<svg width="99" height="99" viewBox="0 0 99 99" fill="none" xmlns="http://www.w3.org/2000/svg">
<rect x="0.5" y="0.5" width="98" height="98" rx="9.5" fill="#080808"/>
<rect x="0.5" y="0.5" width="98" height="98" rx="9.5" stroke="url(#paint0_linear_266_34)"/>
<g filter="url(#filter0_d_266_34)">
<path d="M66.6091 19.485C66.6099 18.9938 66.4649 18.5133 66.1924 18.1046C65.9199 17.6958 65.5322 17.3772 65.0784 17.1891C64.6245 17.001 64.1251 16.9518 63.6433 17.0479C63.1616 17.144 62.7192 17.381 62.3722 17.7288L52.4499 27.651C52.2197 27.8818 52.0373 28.1557 51.913 28.4571C51.7887 28.7584 51.725 29.0813 51.7256 29.4073V43.2638L48.0494 46.935C47.314 46.7399 46.5436 46.7161 45.7976 46.8656C45.0515 47.0151 44.3498 47.3339 43.7464 47.7974C43.1429 48.2608 42.654 48.8566 42.3171 49.5389C41.9802 50.2211 41.8045 50.9716 41.8033 51.7324C41.8037 52.4385 41.9547 53.1363 42.2463 53.7793C42.5379 54.4223 42.9634 54.9957 43.4944 55.461C44.0253 55.9264 44.6495 56.2731 45.3252 56.4779C46.0009 56.6828 46.7125 56.741 47.4125 56.6488C48.1125 56.5566 48.7847 56.316 49.3843 55.9432C49.9838 55.5704 50.4969 55.0738 50.8892 54.4868C51.2816 53.8998 51.5441 53.2358 51.6592 52.5392C51.7743 51.8427 51.7395 51.1295 51.5569 50.4475L55.2332 46.7713H69.0896C69.4156 46.7719 69.7385 46.7082 70.0398 46.5839C70.3412 46.4596 70.6151 46.2772 70.8459 46.047L80.7682 36.1247C81.116 35.7777 81.3529 35.3354 81.449 34.8536C81.5451 34.3718 81.496 33.8724 81.3078 33.4186C81.1197 32.9647 80.8011 32.577 80.3924 32.3045C79.9836 32.032 79.5032 31.887 79.0119 31.8879H66.6091V19.485ZM76.2535 47.6544C77.1072 53.8318 75.9992 60.1214 73.0859 65.6352C70.1726 71.1491 65.6011 75.6087 60.0168 78.3845C54.4325 81.1604 48.1174 82.1123 41.963 81.1059C35.8086 80.0995 30.1257 77.1856 25.7165 72.7755C21.3073 68.3654 18.3945 62.682 17.3893 56.5274C16.3841 50.3727 17.3372 44.0579 20.1142 38.4741C22.8911 32.8904 27.3516 28.3198 32.866 25.4075C38.3804 22.4953 44.6702 21.3885 50.8475 22.2434L48.9474 24.1435C48.2556 24.8345 47.7067 25.655 47.3321 26.5582C46.9576 27.4614 46.7647 28.4295 46.7645 29.4073C42.349 29.4073 38.0326 30.7166 34.3613 33.1698C30.6899 35.6229 27.8285 39.1096 26.1387 43.189C24.449 47.2684 24.0069 51.7572 24.8683 56.0878C25.7297 60.4185 27.856 64.3965 30.9782 67.5187C34.1004 70.6409 38.0784 72.7672 42.4091 73.6286C46.7397 74.49 51.2286 74.0479 55.3079 72.3582C59.3873 70.6684 62.874 67.807 65.3272 64.1356C67.7803 60.4643 69.0896 56.1479 69.0896 51.7324C71.0626 51.7307 72.9542 50.9455 74.3484 49.5495L76.2535 47.6544ZM46.7645 34.3684C43.3302 34.3684 39.9731 35.3868 37.1176 37.2948C34.2621 39.2028 32.0365 41.9147 30.7222 45.0875C29.408 48.2604 29.0641 51.7517 29.7341 55.12C30.4041 58.4883 32.0579 61.5822 34.4863 64.0106C36.9147 66.439 40.0086 68.0928 43.3769 68.7628C46.7452 69.4328 50.2365 69.0889 53.4094 67.7747C56.5822 66.4604 59.2941 64.2348 61.2021 61.3793C63.1101 58.5239 64.1285 55.1667 64.1285 51.7324H57.2871L56.6669 52.3526C56.5477 54.2585 55.8809 56.0895 54.7467 57.6259C53.6126 59.1623 52.0591 60.3387 50.2729 61.014C48.4866 61.6894 46.5434 61.8349 44.6765 61.4331C42.8095 61.0313 41.0982 60.0994 39.7479 58.749C38.3976 57.3987 37.4656 55.6874 37.0638 53.8204C36.662 51.9535 36.8075 50.0103 37.4829 48.2241C38.1582 46.4378 39.3346 44.8843 40.871 43.7502C42.4074 42.616 44.2384 41.9493 46.1443 41.83L46.7645 41.2098V34.3684Z" fill="white"/>
</g>
<defs>
<filter id="filter0_d_266_34" x="17" y="17" width="65.4043" height="66.3105" filterUnits="userSpaceOnUse" color-interpolation-filters="sRGB">
<feFlood flood-opacity="0" result="BackgroundImageFix"/>
<feColorMatrix in="SourceAlpha" type="matrix" values="0 0 0 0 0 0 0 0 0 0 0 0 0 0 0 0 0 0 127 0" result="hardAlpha"/>
<feOffset dx="0.90718" dy="1.81436"/>
<feComposite in2="hardAlpha" operator="out"/>
<feColorMatrix type="matrix" values="0 0 0 0 0.168627 0 0 0 0 0.635294 0 0 0 0 0.698039 0 0 0 1 0"/>
<feBlend mode="normal" in2="BackgroundImageFix" result="effect1_dropShadow_266_34"/>
<feBlend mode="normal" in="SourceGraphic" in2="effect1_dropShadow_266_34" result="shape"/>
</filter>
<linearGradient id="paint0_linear_266_34" x1="49.5" y1="0" x2="49.5" y2="99" gradientUnits="userSpaceOnUse">
<stop stop-color="#20B985"/>
<stop offset="1" stop-color="#2BA2B2"/>
</linearGradient>
</defs>
</svg>
