<svg width="99" height="99" viewBox="0 0 99 99" fill="none" xmlns="http://www.w3.org/2000/svg">
<rect x="0.5" y="0.5" width="98" height="98" rx="9.5" fill="#080808"/>
<rect x="0.5" y="0.5" width="98" height="98" rx="9.5" stroke="url(#paint0_linear_266_43)"/>
<g filter="url(#filter0_d_266_43)">
<path d="M63.0729 49.3472C59.7414 49.3472 56.52 47.8597 53.9987 45.1601C51.547 42.5269 50.0497 39.0155 49.7856 35.2756C49.5037 31.2862 50.7206 27.6176 53.2112 24.9439C55.7017 22.2703 59.184 20.8281 63.0729 20.8281C66.9344 20.8281 70.4263 22.2962 72.9088 24.9634C75.4155 27.6565 76.6357 31.3186 76.3538 35.274C76.0831 39.0188 74.5875 42.5286 72.1407 45.1585C69.6258 47.8597 66.4061 49.3472 63.0729 49.3472ZM84.4347 77.8663H41.7128C41.0259 77.87 40.3473 77.716 39.7293 77.4163C39.1113 77.1165 38.5703 76.679 38.1479 76.1373C37.6999 75.5501 37.3904 74.8692 37.2428 74.1455C37.0952 73.4218 37.1133 72.6741 37.2956 71.9583C38.6599 66.4797 42.0401 61.9361 47.0698 58.8201C51.534 56.0557 57.2168 54.5325 63.0729 54.5325C69.0441 54.5325 74.5778 55.9909 79.0679 58.7537C84.109 61.8535 87.494 66.423 88.8519 71.968C89.032 72.6843 89.048 73.432 88.8988 74.1554C88.7495 74.8787 88.4388 75.559 87.9899 76.1454C87.5679 76.6846 87.0281 77.12 86.4119 77.4183C85.7957 77.7166 85.1193 77.8698 84.4347 77.8663ZM32.4473 49.9954C26.7451 49.9954 21.7316 44.6934 21.2665 38.1778C21.0364 34.8398 22.0767 31.7529 24.1833 29.4892C26.2671 27.2482 29.2065 26.0134 32.4473 26.0134C35.6881 26.0134 38.6048 27.2546 40.7 29.5086C42.8228 31.7902 43.8598 34.8705 43.6167 38.181C43.1517 44.695 38.1398 49.9954 32.4473 49.9954ZM43.0869 55.0915C40.2366 53.698 36.5372 53.0012 32.4489 53.0012C27.6752 53.0012 23.0393 54.2457 19.3933 56.5045C15.2597 59.0696 12.4791 62.8047 11.3561 67.3142C11.1918 67.9629 11.1763 68.6403 11.3107 69.2958C11.4451 69.9513 11.726 70.5679 12.1323 71.0995C12.5179 71.5945 13.0118 71.9944 13.5762 72.2686C14.1406 72.5428 14.7603 72.6839 15.3877 72.681H33.3742C33.6778 72.681 33.9717 72.5744 34.2047 72.3798C34.4378 72.1853 34.5952 71.9151 34.6494 71.6164C34.6673 71.5143 34.6899 71.4122 34.7159 71.3118C36.09 65.7927 39.3097 61.1292 44.0672 57.7296C44.2422 57.6034 44.3829 57.4356 44.4767 57.2414C44.5704 57.0471 44.6142 56.8325 44.6041 56.617C44.594 56.4016 44.5302 56.192 44.4186 56.0074C44.3071 55.8228 44.1512 55.669 43.9651 55.5598C43.7107 55.4108 43.4191 55.2536 43.0869 55.0915Z" fill="white"/>
</g>
<defs>
<filter id="filter0_d_266_43" x="11.2202" y="20.8281" width="78.728" height="58.9347" filterUnits="userSpaceOnUse" color-interpolation-filters="sRGB">
<feFlood flood-opacity="0" result="BackgroundImageFix"/>
<feColorMatrix in="SourceAlpha" type="matrix" values="0 0 0 0 0 0 0 0 0 0 0 0 0 0 0 0 0 0 127 0" result="hardAlpha"/>
<feOffset dx="0.948167" dy="1.89633"/>
<feComposite in2="hardAlpha" operator="out"/>
<feColorMatrix type="matrix" values="0 0 0 0 0.12549 0 0 0 0 0.72549 0 0 0 0 0.521569 0 0 0 1 0"/>
<feBlend mode="normal" in2="BackgroundImageFix" result="effect1_dropShadow_266_43"/>
<feBlend mode="normal" in="SourceGraphic" in2="effect1_dropShadow_266_43" result="shape"/>
</filter>
<linearGradient id="paint0_linear_266_43" x1="49.5" y1="0" x2="49.5" y2="99" gradientUnits="userSpaceOnUse">
<stop stop-color="#20B985"/>
<stop offset="1" stop-color="#2BA2B2"/>
</linearGradient>
</defs>
</svg>
