<svg width="99" height="99" viewBox="0 0 99 99" fill="none" xmlns="http://www.w3.org/2000/svg">
<rect x="0.5" y="0.5" width="98" height="98" rx="9.5" fill="#080808"/>
<rect x="0.5" y="0.5" width="98" height="98" rx="9.5" stroke="url(#paint0_linear_266_39)"/>
<g filter="url(#filter0_d_266_39)">
<path d="M57.2257 54.7476L61.7387 46.9467C62.0288 46.4631 61.8999 45.8507 61.4808 45.4961L56.71 41.7568C56.8067 41.0476 56.8711 40.3062 56.8711 39.5648C56.8711 38.8233 56.8067 38.0819 56.71 37.3405L61.4808 33.6012C61.8999 33.2466 62.0288 32.6342 61.7387 32.1506L57.2257 24.3497C56.9356 23.8661 56.3554 23.6727 55.8396 23.8661L50.2307 26.1226C49.0702 25.22 47.813 24.4786 46.4269 23.8984L45.5888 17.9348C45.5347 17.6741 45.3935 17.4395 45.1885 17.2697C44.9835 17.0998 44.7267 17.0047 44.4605 17H35.4346C34.8866 17 34.4031 17.4191 34.3064 17.9671L33.4683 23.9306C32.1144 24.5108 30.825 25.2523 29.6645 26.1548L24.0555 23.8984C23.5398 23.705 22.9595 23.8984 22.6694 24.3819L18.1565 32.1829C17.8663 32.6664 17.9953 33.2789 18.4143 33.6334L23.1852 37.3727C23.0885 38.0819 23.024 38.8233 23.024 39.5648C23.024 40.3062 23.0885 41.0476 23.1852 41.789L18.4143 45.5283C17.9953 45.8829 17.8663 46.4954 18.1565 46.9789L22.6694 54.7798C22.9595 55.2634 23.5398 55.4568 24.0555 55.2634L29.6645 53.0069C30.825 53.9095 32.0821 54.6509 33.4683 55.2311L34.3064 61.1947C34.4031 61.7104 34.8866 62.1295 35.4346 62.1295H44.4605C45.0085 62.1295 45.4921 61.7104 45.5888 61.1624L46.4269 55.1989C47.7808 54.6187 49.0702 53.8773 50.2307 52.9747L55.8396 55.2311C56.3554 55.4246 56.9356 55.2311 57.2257 54.7476ZM39.9476 46.0118C36.4017 46.0118 33.5005 43.1106 33.5005 39.5648C33.5005 36.0189 36.4017 33.1177 39.9476 33.1177C43.4935 33.1177 46.3946 36.0189 46.3946 39.5648C46.3946 43.1106 43.4935 46.0118 39.9476 46.0118ZM82.2081 70.7364L79.1135 68.3509C79.178 67.8996 79.2425 67.4161 79.2425 66.9326C79.2425 66.449 79.2102 65.9655 79.1135 65.5142L82.1759 63.1288C82.4338 62.9032 82.5305 62.5163 82.3371 62.194L79.4359 57.1975C79.2747 56.8751 78.8879 56.7784 78.5333 56.8751L74.9552 58.3257C74.2138 57.7455 73.4079 57.262 72.5053 56.9074L71.9573 53.1036C71.9445 52.9313 71.8682 52.7699 71.7431 52.6508C71.618 52.5316 71.4531 52.4632 71.2803 52.4589H65.5102C65.1556 52.4589 64.8333 52.7168 64.801 53.0714L64.253 56.8751C63.3827 57.262 62.5446 57.7133 61.8032 58.2935L58.225 56.8429C58.0608 56.7811 57.8799 56.7796 57.7146 56.8386C57.5494 56.8977 57.4104 57.0134 57.3224 57.1653L54.4212 62.1617C54.2601 62.4841 54.2923 62.8709 54.5824 63.0966L57.6448 65.482C57.5118 66.4229 57.5118 67.3778 57.6448 68.3187L54.5824 70.7041C54.3245 70.9298 54.2278 71.3166 54.4212 71.6389L57.3224 76.6354C57.4836 76.9578 57.8704 77.0545 58.225 76.9578L61.8032 75.5072C62.5446 76.0874 63.3504 76.5709 64.253 76.9255L64.801 80.7293C64.8655 81.0839 65.1556 81.3418 65.5102 81.3418H71.2803C71.6349 81.3418 71.9573 81.0839 71.9895 80.7293L72.5375 76.9255C73.4079 76.5387 74.246 76.0874 74.9552 75.5072L78.5655 76.9578C78.8879 77.0867 79.2747 76.9578 79.4681 76.6354L82.3693 71.6389C82.5627 71.3488 82.466 70.962 82.2081 70.7364ZM68.3792 71.2521C67.2246 71.2517 66.1174 70.7926 65.3013 69.9759C64.4852 69.1592 64.027 68.0517 64.0274 66.8971C64.0278 65.7425 64.4869 64.6354 65.3036 63.8193C66.1203 63.0032 67.2278 62.5449 68.3824 62.5453C69.537 62.5458 70.6441 63.0048 71.4602 63.8216C72.2763 64.6383 72.7346 65.7458 72.7342 66.9003C72.7337 68.0549 72.2747 69.1621 71.4579 69.9782C70.6412 70.7943 69.5337 71.2525 68.3792 71.2521Z" fill="white"/>
</g>
<defs>
<filter id="filter0_d_266_39" x="18" y="17" width="65.3554" height="66.1101" filterUnits="userSpaceOnUse" color-interpolation-filters="sRGB">
<feFlood flood-opacity="0" result="BackgroundImageFix"/>
<feColorMatrix in="SourceAlpha" type="matrix" values="0 0 0 0 0 0 0 0 0 0 0 0 0 0 0 0 0 0 127 0" result="hardAlpha"/>
<feOffset dx="0.88417" dy="1.76834"/>
<feComposite in2="hardAlpha" operator="out"/>
<feColorMatrix type="matrix" values="0 0 0 0 0.12549 0 0 0 0 0.72549 0 0 0 0 0.521569 0 0 0 1 0"/>
<feBlend mode="normal" in2="BackgroundImageFix" result="effect1_dropShadow_266_39"/>
<feBlend mode="normal" in="SourceGraphic" in2="effect1_dropShadow_266_39" result="shape"/>
</filter>
<linearGradient id="paint0_linear_266_39" x1="49.5" y1="0" x2="49.5" y2="99" gradientUnits="userSpaceOnUse">
<stop stop-color="#20B985"/>
<stop offset="1" stop-color="#2BA2B2"/>
</linearGradient>
</defs>
</svg>
