<svg width="18" height="14" viewBox="0 0 18 14" fill="none" xmlns="http://www.w3.org/2000/svg">
<path d="M1 6.05609C0.478691 6.05609 0.0560867 6.47869 0.0560868 7C0.0560868 7.52131 0.478691 7.94391 1 7.94391L1 6.05609ZM17.242 7.66745C17.6106 7.29882 17.6106 6.70117 17.242 6.33255L11.235 0.325525C10.8664 -0.0430965 10.2687 -0.0430964 9.90009 0.325525C9.53147 0.694146 9.53147 1.2918 9.90009 1.66042L15.2397 7L9.90009 12.3396C9.53147 12.7082 9.53147 13.3059 9.90009 13.6745C10.2687 14.0431 10.8664 14.0431 11.235 13.6745L17.242 7.66745ZM1 7.94391L16.5746 7.94391L16.5746 6.05609L1 6.05609L1 7.94391Z" fill="white"/>
</svg>
