<svg width="19" height="20" viewBox="0 0 19 20" fill="none" xmlns="http://www.w3.org/2000/svg">
<path d="M0.0432304 19.0564L1.28144 14.5064C0.465556 13.1077 0.0369023 11.517 0.0395631 9.89778C0.0395631 4.8395 4.13982 0.739258 9.19811 0.739258C14.2564 0.739258 18.3567 4.8395 18.3567 9.89778C18.3567 14.9561 14.2564 19.0564 9.19811 19.0564C7.57954 19.0589 5.98954 18.6306 4.59135 17.8154L0.0432304 19.0564ZM5.89282 5.6006C5.77448 5.608 5.65891 5.63912 5.55305 5.69222C5.45368 5.74845 5.36298 5.81878 5.28373 5.90104C5.17383 6.00446 5.11159 6.09423 5.04472 6.18123C4.70623 6.62177 4.52414 7.16248 4.52726 7.71801C4.52911 8.16688 4.6463 8.60371 4.82943 9.0122C5.20403 9.83832 5.8204 10.7129 6.63461 11.5234C6.83058 11.7185 7.02204 11.9145 7.22808 12.0968C8.2386 12.9865 9.4429 13.6281 10.745 13.9706L11.2661 14.0502C11.4355 14.0594 11.605 14.0467 11.7753 14.0383C12.042 14.0246 12.3024 13.9524 12.5382 13.8268C12.6902 13.7462 12.7617 13.706 12.889 13.6253C12.889 13.6253 12.9283 13.5996 13.0035 13.5428C13.1271 13.4513 13.2031 13.3863 13.3057 13.2791C13.3817 13.2004 13.4476 13.1079 13.4981 13.0026C13.5694 12.8532 13.6409 12.5684 13.6702 12.3313C13.6922 12.1499 13.6858 12.0509 13.6831 11.9896C13.6793 11.8916 13.5979 11.79 13.5091 11.7469L12.976 11.5079C12.976 11.5079 12.1792 11.1607 11.6929 10.9391C11.6416 10.9167 11.5867 10.904 11.5308 10.9016C11.4681 10.8951 11.4048 10.9022 11.345 10.9222C11.2853 10.9423 11.2306 10.9749 11.1846 11.0179V11.016C11.1801 11.016 11.1186 11.0683 10.4564 11.8706C10.4185 11.9216 10.3661 11.9602 10.306 11.9814C10.2461 12.0026 10.1811 12.0055 10.1194 11.9896C10.0597 11.9737 10.0013 11.9534 9.94452 11.9291C9.83091 11.8816 9.79158 11.8632 9.71373 11.8293L9.7091 11.8276C9.18515 11.5987 8.70008 11.2897 8.27123 10.9117C8.15589 10.8109 8.04865 10.701 7.93874 10.5948C7.5785 10.2497 7.26452 9.85937 7.00457 9.43342L6.95055 9.34642C6.91179 9.288 6.88044 9.22495 6.85719 9.15866C6.82237 9.02412 6.91306 8.91595 6.91306 8.91595C6.91306 8.91595 7.13565 8.67243 7.23907 8.54054C7.32526 8.43087 7.40566 8.31692 7.47993 8.19892C7.58798 8.02493 7.62188 7.84631 7.56508 7.70795C7.30871 7.0815 7.0431 6.45784 6.77019 5.83868C6.71617 5.71605 6.55582 5.62813 6.41029 5.61066C6.36078 5.60523 6.31138 5.59967 6.26186 5.59609C6.13889 5.58996 6.01557 5.59204 5.89282 5.6006Z" fill="#F3F1F9"/>
</svg>
