<svg width="824" height="353" viewBox="0 0 824 353" fill="none" xmlns="http://www.w3.org/2000/svg">
<rect x="3.23188" y="15.2932" width="563.093" height="305.498" rx="9.7126" fill="#0A0A0A" stroke="#262626" stroke-width="6.46376"/>
<path d="M33.6113 117.293C33.6113 113.872 37.1514 111.569 40.2843 112.943C59.8084 121.509 118.044 145.438 159.332 145.438C209.62 145.438 234.764 115.673 285.052 97.6502C335.34 79.6272 360.484 55.3235 410.772 55.3235C455.806 55.3235 521.006 89.2685 534.137 96.3609C535.622 97.163 536.492 98.6951 536.492 100.383V179.002C536.492 181.579 534.437 183.669 531.86 183.669C514.711 183.669 453.616 183.669 410.772 183.669C360.484 183.669 335.34 183.669 285.052 183.669C234.764 183.669 209.62 183.669 159.332 183.669C116.487 183.669 55.3925 183.669 38.2438 183.669C35.6662 183.669 33.6113 181.579 33.6113 179.002V117.293Z" fill="#2BA2B2" fill-opacity="0.65"/>
<path d="M33.6113 179.701C33.6113 178.009 34.6365 176.52 36.234 175.964C49.96 171.187 114.595 148.566 159.332 130.676C209.62 110.566 234.764 76.3251 285.052 76.3251C335.34 76.3251 369.856 162.157 420.144 162.157C459.533 162.157 508.597 115.335 528.016 95.0381C531.003 91.9153 536.492 94.038 536.492 98.3599V179.001C536.492 181.579 534.437 183.669 531.86 183.669C514.711 183.669 453.616 183.669 410.772 183.669C360.484 183.669 335.34 183.669 285.052 183.669C234.764 183.669 209.62 183.669 159.332 183.669C115.877 183.669 53.6491 183.669 37.5382 183.669C35.3469 183.669 33.6113 181.892 33.6113 179.701Z" fill="#20B985" fill-opacity="0.83"/>
<path d="M536.492 180.98C536.492 179.74 535.663 178.666 534.459 178.37C522.11 175.336 456.187 159.06 410.772 146.228C360.484 132.02 335.34 107.828 285.052 107.828C234.764 107.828 209.62 175.029 159.332 175.029C118.592 175.029 61.3492 139.917 41.0809 126.583C37.9155 124.501 33.6115 126.773 33.6115 130.562V179.002C33.6115 181.579 35.6663 183.669 38.2439 183.669C55.3926 183.669 116.488 183.669 159.332 183.669C209.62 183.669 234.764 183.669 285.052 183.669C335.34 183.669 360.484 183.669 410.772 183.669C455.487 183.669 520.082 183.669 533.85 183.669C535.335 183.669 536.492 182.465 536.492 180.98Z" fill="#20B985" fill-opacity="0.83"/>
<rect x="519.688" y="193.648" width="5.17101" height="81.4434" rx="2.58551" fill="#262626"/>
<rect x="518.396" y="215.625" width="7.75652" height="27.1478" rx="3.87826" fill="#20B985"/>
<rect x="429.194" y="193.648" width="5.17101" height="81.4434" rx="2.58551" fill="#262626"/>
<rect x="427.901" y="215.625" width="7.75652" height="27.1478" rx="3.87826" fill="#20B985"/>
<rect x="338.701" y="193.648" width="5.17101" height="81.4434" rx="2.58551" fill="#262626"/>
<rect x="337.408" y="215.625" width="7.75652" height="27.1478" rx="3.87826" fill="#20B985"/>
<rect x="506.76" y="203.99" width="5.17101" height="81.4434" rx="2.58551" fill="#262626"/>
<rect x="505.467" y="225.967" width="7.75652" height="27.1478" rx="3.87826" fill="#20B985"/>
<rect x="416.267" y="203.99" width="5.17101" height="81.4434" rx="2.58551" fill="#262626"/>
<rect x="414.974" y="225.967" width="7.75652" height="27.1478" rx="3.87826" fill="#20B985"/>
<rect x="325.773" y="203.99" width="5.17101" height="81.4434" rx="2.58551" fill="#262626"/>
<rect x="324.481" y="225.967" width="7.75652" height="27.1478" rx="3.87826" fill="#20B985"/>
<rect x="493.831" y="188.477" width="5.17101" height="81.4434" rx="2.58551" fill="#262626"/>
<rect x="492.538" y="210.454" width="7.75652" height="27.1478" rx="3.87826" fill="#20B985"/>
<rect x="403.339" y="188.477" width="5.17101" height="81.4434" rx="2.58551" fill="#262626"/>
<rect x="402.046" y="210.454" width="7.75652" height="27.1478" rx="3.87826" fill="#20B985"/>
<rect x="312.846" y="188.477" width="5.17101" height="81.4434" rx="2.58551" fill="#262626"/>
<rect x="311.553" y="210.454" width="7.75652" height="27.1478" rx="3.87826" fill="#20B985"/>
<rect x="480.904" y="220.796" width="5.17101" height="81.4434" rx="2.58551" fill="#262626"/>
<rect x="479.611" y="242.772" width="7.75652" height="27.1478" rx="3.87826" fill="#20B985"/>
<rect x="390.411" y="220.796" width="5.17101" height="81.4434" rx="2.58551" fill="#262626"/>
<rect x="389.119" y="242.772" width="7.75652" height="27.1478" rx="3.87826" fill="#20B985"/>
<rect x="299.918" y="220.796" width="5.17101" height="81.4434" rx="2.58551" fill="#262626"/>
<rect x="298.626" y="242.772" width="7.75652" height="27.1478" rx="3.87826" fill="#20B985"/>
<rect x="467.977" y="209.161" width="5.17101" height="81.4434" rx="2.58551" fill="#262626"/>
<rect x="466.684" y="231.138" width="7.75652" height="27.1478" rx="3.87826" fill="#20B985"/>
<rect x="377.484" y="209.161" width="5.17101" height="81.4434" rx="2.58551" fill="#262626"/>
<rect x="376.191" y="231.138" width="7.75652" height="27.1478" rx="3.87826" fill="#20B985"/>
<rect x="286.991" y="209.161" width="5.17101" height="81.4434" rx="2.58551" fill="#262626"/>
<rect x="285.698" y="231.138" width="7.75652" height="27.1478" rx="3.87826" fill="#20B985"/>
<rect x="455.049" y="192.355" width="5.17101" height="81.4434" rx="2.58551" fill="#262626"/>
<rect x="453.756" y="214.332" width="7.75652" height="27.1478" rx="3.87826" fill="#20B985"/>
<rect x="364.556" y="192.355" width="5.17101" height="81.4434" rx="2.58551" fill="#262626"/>
<rect x="363.264" y="214.332" width="7.75652" height="27.1478" rx="3.87826" fill="#20B985"/>
<rect x="274.063" y="192.355" width="5.17101" height="81.4434" rx="2.58551" fill="#262626"/>
<rect x="272.771" y="214.332" width="7.75652" height="27.1478" rx="3.87826" fill="#20B985"/>
<rect x="442.121" y="213.039" width="5.17101" height="81.4434" rx="2.58551" fill="#262626"/>
<rect x="440.828" y="235.016" width="7.75652" height="27.1478" rx="3.87826" fill="#20B985"/>
<rect x="351.629" y="213.039" width="5.17101" height="81.4434" rx="2.58551" fill="#262626"/>
<rect x="350.336" y="235.016" width="7.75652" height="27.1478" rx="3.87826" fill="#20B985"/>
<rect x="261.136" y="213.039" width="5.17101" height="81.4434" rx="2.58551" fill="#262626"/>
<rect x="259.843" y="235.016" width="7.75652" height="27.1478" rx="3.87826" fill="#20B985"/>
<rect x="248.208" y="206.575" width="5.17101" height="81.4434" rx="2.58551" fill="#262626"/>
<rect x="246.916" y="228.552" width="7.75652" height="27.1478" rx="3.87826" fill="#20B985"/>
<rect x="235.281" y="215.625" width="5.17101" height="81.4434" rx="2.58551" fill="#262626"/>
<rect x="233.988" y="237.602" width="7.75652" height="27.1478" rx="3.87826" fill="#20B985"/>
<rect x="222.354" y="196.233" width="5.17101" height="81.4434" rx="2.58551" fill="#262626"/>
<rect x="221.061" y="218.21" width="7.75652" height="27.1478" rx="3.87826" fill="#20B985"/>
<rect x="209.426" y="213.039" width="5.17101" height="81.4434" rx="2.58551" fill="#262626"/>
<rect x="208.133" y="235.016" width="7.75652" height="27.1478" rx="3.87826" fill="#20B985"/>
<rect x="33.6113" y="202.697" width="164.18" height="90.4927" rx="2.58551" fill="#181818"/>
<path d="M34.9771 246.086C34.9771 246.086 67.2668 246.086 88.7933 246.086C110.32 246.086 121.083 237.676 142.61 237.676C164.136 237.676 196.426 265.429 196.426 265.429" stroke="#2BA2B2" stroke-width="0.598583"/>
<path d="M34.9771 266.271C34.9771 266.271 67.2668 211.605 88.7933 211.605C110.32 211.605 121.083 285.614 142.61 285.614C164.136 285.614 196.426 219.174 196.426 219.174" stroke="#20B985" stroke-width="0.598583"/>
<path d="M34.9771 224.22C34.9771 224.22 67.2668 256.178 88.7933 256.178C110.32 256.178 121.083 256.178 142.61 254.496C164.136 252.814 196.426 225.902 196.426 225.902" stroke="#20B985" stroke-width="0.598583"/>
<path d="M34.9771 255.337C34.9771 255.337 67.2668 267.784 88.7933 273.84C110.32 279.895 121.083 285.614 142.61 285.614C164.136 285.614 196.426 257.86 196.426 257.86" stroke="#20B985" stroke-width="0.598583"/>
<path d="M34.9766 247.191C34.6146 247.191 34.2674 247.065 34.0113 246.84C33.7553 246.616 33.6114 246.311 33.6113 245.994C33.6112 245.677 33.7549 245.372 34.0109 245.147C34.2668 244.923 34.6139 244.797 34.976 244.797C35.338 244.796 35.6853 244.922 35.9415 245.147C36.1976 245.371 36.3417 245.675 36.342 245.993C36.3422 246.31 36.1987 246.615 35.9429 246.839C35.6871 247.064 35.3401 247.191 34.978 247.191H34.9766Z" fill="#2BA2B2"/>
<path d="M88.5655 247.191C88.2035 247.191 87.8562 247.065 87.6002 246.84C87.3442 246.616 87.2003 246.311 87.2002 245.994C87.2001 245.677 87.3438 245.372 87.5997 245.147C87.8556 244.923 88.2028 244.797 88.5648 244.797C88.9269 244.796 89.2742 244.922 89.5303 245.147C89.7865 245.371 89.9306 245.675 89.9308 245.993C89.9311 246.31 89.7876 246.615 89.5318 246.839C89.276 247.064 88.9289 247.191 88.5669 247.191H88.5655Z" fill="#2BA2B2"/>
<path d="M142.496 238.811C142.134 238.811 141.786 238.685 141.53 238.46C141.274 238.236 141.13 237.931 141.13 237.614C141.13 237.296 141.274 236.992 141.53 236.767C141.786 236.543 142.133 236.417 142.495 236.416C142.857 236.416 143.204 236.542 143.461 236.766C143.717 236.991 143.861 237.295 143.861 237.613C143.861 237.93 143.718 238.235 143.462 238.459C143.206 238.684 142.859 238.81 142.497 238.811H142.496Z" fill="#2BA2B2"/>
<path d="M196.425 266.645C196.063 266.645 195.716 266.518 195.46 266.294C195.204 266.07 195.06 265.765 195.06 265.448C195.059 265.13 195.203 264.826 195.459 264.601C195.715 264.377 196.062 264.25 196.424 264.25C196.786 264.25 197.134 264.376 197.39 264.6C197.646 264.825 197.79 265.129 197.79 265.447C197.79 265.764 197.647 266.069 197.391 266.293C197.135 266.518 196.788 266.644 196.426 266.645H196.425Z" fill="#2F0A3F"/>
<path d="M34.9766 267.543C34.6146 267.543 34.2674 267.416 34.0113 267.192C33.7553 266.968 33.6114 266.663 33.6113 266.346C33.6112 266.028 33.7549 265.724 34.0109 265.499C34.2668 265.275 34.6139 265.148 34.976 265.148C35.338 265.148 35.6853 265.274 35.9415 265.498C36.1976 265.723 36.3417 266.027 36.342 266.344C36.3422 266.662 36.1987 266.966 35.9429 267.191C35.6871 267.416 35.3401 267.542 34.978 267.543H34.9766Z" fill="#20B985"/>
<path d="M88.5655 212.772C88.2035 212.772 87.8562 212.646 87.6002 212.422C87.3442 212.197 87.2003 211.893 87.2002 211.575C87.2001 211.258 87.3438 210.953 87.5997 210.729C87.8556 210.504 88.2028 210.378 88.5648 210.378C88.9269 210.378 89.2742 210.504 89.5303 210.728C89.7865 210.952 89.9306 211.257 89.9308 211.574C89.9311 211.892 89.7876 212.196 89.5318 212.421C89.276 212.646 88.9289 212.772 88.5669 212.772L88.5655 212.772Z" fill="#20B985"/>
<path d="M142.496 286.697C142.134 286.697 141.786 286.571 141.53 286.347C141.274 286.122 141.13 285.818 141.13 285.501C141.13 285.183 141.274 284.879 141.53 284.654C141.786 284.43 142.133 284.303 142.495 284.303C142.857 284.303 143.204 284.429 143.461 284.653C143.717 284.878 143.861 285.182 143.861 285.499C143.861 285.817 143.718 286.121 143.462 286.346C143.206 286.571 142.859 286.697 142.497 286.697H142.496Z" fill="#20B985"/>
<path d="M196.425 220.254C196.063 220.254 195.716 220.128 195.46 219.904C195.204 219.679 195.06 219.375 195.06 219.057C195.059 218.74 195.203 218.435 195.459 218.211C195.715 217.986 196.062 217.86 196.424 217.86C196.786 217.86 197.134 217.986 197.39 218.21C197.646 218.434 197.79 218.739 197.79 219.056C197.79 219.374 197.647 219.678 197.391 219.903C197.135 220.127 196.788 220.254 196.426 220.254L196.425 220.254Z" fill="#20B985"/>
<path d="M34.9766 225.343C34.6146 225.343 34.2674 225.216 34.0113 224.992C33.7553 224.768 33.6114 224.463 33.6113 224.146C33.6112 223.828 33.7549 223.524 34.0109 223.299C34.2668 223.075 34.6139 222.948 34.976 222.948C35.338 222.948 35.6853 223.074 35.9415 223.298C36.1976 223.523 36.3417 223.827 36.342 224.145C36.3422 224.462 36.1987 224.767 35.9429 224.991C35.6871 225.216 35.3401 225.342 34.978 225.343H34.9766Z" fill="#20B985"/>
<path d="M88.5655 257.367C88.2035 257.367 87.8562 257.241 87.6002 257.016C87.3442 256.792 87.2003 256.487 87.2002 256.17C87.2001 255.852 87.3438 255.548 87.5997 255.323C87.8556 255.099 88.2028 254.972 88.5648 254.972C88.9269 254.972 89.2742 255.098 89.5303 255.322C89.7865 255.547 89.9306 255.851 89.9308 256.169C89.9311 256.486 89.7876 256.791 89.5318 257.015C89.276 257.24 88.9289 257.366 88.5669 257.367H88.5655Z" fill="#20B985"/>
<path d="M142.496 255.57C142.134 255.57 141.786 255.444 141.53 255.22C141.274 254.995 141.13 254.691 141.13 254.373C141.13 254.056 141.274 253.752 141.53 253.527C141.786 253.302 142.133 253.176 142.495 253.176C142.857 253.176 143.204 253.302 143.461 253.526C143.717 253.75 143.861 254.055 143.861 254.372C143.861 254.69 143.718 254.994 143.462 255.219C143.206 255.444 142.859 255.57 142.497 255.57H142.496Z" fill="#20B985"/>
<path d="M196.425 227.138C196.063 227.138 195.716 227.012 195.46 226.788C195.204 226.563 195.06 226.259 195.06 225.941C195.059 225.624 195.203 225.32 195.459 225.095C195.715 224.87 196.062 224.744 196.424 224.744C196.786 224.744 197.134 224.87 197.39 225.094C197.646 225.318 197.79 225.623 197.79 225.94C197.79 226.258 197.647 226.562 197.391 226.787C197.135 227.012 196.788 227.138 196.426 227.138H196.425Z" fill="#54002B"/>
<path d="M34.9766 256.469C34.6146 256.469 34.2674 256.343 34.0113 256.118C33.7553 255.894 33.6114 255.589 33.6113 255.272C33.6112 254.954 33.7549 254.65 34.0109 254.425C34.2668 254.201 34.6139 254.074 34.976 254.074C35.338 254.074 35.6853 254.2 35.9415 254.424C36.1976 254.649 36.3417 254.953 36.342 255.271C36.3422 255.588 36.1987 255.893 35.9429 256.117C35.6871 256.342 35.3401 256.468 34.978 256.469H34.9766Z" fill="#20B985"/>
<path d="M88.5655 275.025C88.2035 275.025 87.8562 274.899 87.6002 274.674C87.3442 274.45 87.2003 274.145 87.2002 273.828C87.2001 273.511 87.3438 273.206 87.5997 272.981C87.8556 272.757 88.2028 272.631 88.5648 272.63C88.9269 272.63 89.2742 272.756 89.5303 272.981C89.7865 273.205 89.9306 273.509 89.9308 273.827C89.9311 274.144 89.7876 274.449 89.5318 274.673C89.276 274.898 88.9289 275.025 88.5669 275.025H88.5655Z" fill="#20B985"/>
<path d="M142.496 286.697C142.134 286.697 141.786 286.571 141.53 286.347C141.274 286.122 141.13 285.818 141.13 285.501C141.13 285.183 141.274 284.879 141.53 284.654C141.786 284.43 142.133 284.303 142.495 284.303C142.857 284.303 143.204 284.429 143.461 284.653C143.717 284.878 143.861 285.182 143.861 285.499C143.861 285.817 143.718 286.121 143.462 286.346C143.206 286.571 142.859 286.697 142.497 286.697H142.496Z" fill="#20B985"/>
<path d="M196.425 259.162C196.063 259.162 195.716 259.036 195.46 258.811C195.204 258.587 195.06 258.283 195.06 257.965C195.059 257.648 195.203 257.343 195.459 257.119C195.715 256.894 196.062 256.768 196.424 256.768C196.786 256.768 197.134 256.893 197.39 257.118C197.646 257.342 197.79 257.647 197.79 257.964C197.79 258.281 197.647 258.586 197.391 258.811C197.135 259.035 196.788 259.162 196.426 259.162H196.425Z" fill="#20B985"/>
<rect x="519.743" y="170.424" width="299.026" height="178.642" rx="9.7126" fill="#0A0A0A" stroke="#262626" stroke-width="6.46376"/>
<path d="M784.805 135.03V135.53H785.305H810.47H810.97V135.03V115.107H822.14H822.64V114.607V91.4476V90.9476H822.14H810.97V58.6239V58.1239H810.47H785.305H784.805V58.6239V90.9476H757.464L798.522 3.9487L798.859 3.23531H798.07H769.623H769.306L769.17 3.52191L727.776 91.2342L727.728 91.3355V91.4476V114.607V115.107H728.228H784.805V135.03ZM631.915 132.093C639.295 136.214 647.892 138.265 657.689 138.265C667.485 138.265 676.082 136.214 683.462 132.093C690.837 127.975 696.587 122.225 700.705 114.85C704.825 107.47 706.877 98.8737 706.877 89.077V49.6885C706.877 39.8917 704.825 31.2953 700.705 23.9152C696.587 16.5401 690.837 10.79 683.462 6.67229C676.082 2.55174 667.485 0.5 657.689 0.5C647.892 0.5 639.295 2.55174 631.915 6.67229C624.54 10.79 618.79 16.5401 614.672 23.9152C610.552 31.2953 608.5 39.8917 608.5 49.6885V89.077C608.5 98.8737 610.552 107.47 614.672 114.85C618.79 122.225 624.54 127.975 631.915 132.093ZM669.289 110.71C665.845 112.729 661.983 113.742 657.689 113.742C653.394 113.742 649.532 112.729 646.088 110.71C642.637 108.687 639.902 105.952 637.879 102.501C635.86 99.0573 634.847 95.1946 634.847 90.9005V47.6826C634.847 43.3885 635.86 39.5258 637.879 36.0825C639.902 32.6307 642.637 29.8961 646.088 27.8727C649.532 25.8541 653.394 24.8413 657.689 24.8413C661.983 24.8413 665.845 25.8541 669.289 27.8727C672.74 29.8961 675.475 32.6307 677.498 36.0825C679.517 39.5258 680.53 43.3885 680.53 47.6826V90.9005C680.53 95.1946 679.517 99.0573 677.498 102.501C675.475 105.952 672.74 108.687 669.289 110.71Z" stroke="white"/>
<path d="M729.507 261.786C729.056 294.151 702.934 319.754 671.494 319.316C640.054 318.877 614.656 292.556 615.107 260.191C615.558 227.826 641.68 202.223 673.12 202.661C704.561 203.1 729.959 229.421 729.507 261.786Z" stroke="white" stroke-width="19.1625"/>
<mask id="path-79-inside-1_627_7" fill="white">
<path d="M745.316 277.212C742.182 290.702 735.3 303.031 725.462 312.778C715.624 322.524 703.232 329.292 689.715 332.301L683.198 303.022C691.197 301.242 698.529 297.237 704.35 291.47C710.172 285.702 714.244 278.407 716.098 270.425L745.316 277.212Z"/>
</mask>
<path d="M745.316 277.212C742.182 290.702 735.3 303.031 725.462 312.778C715.624 322.524 703.232 329.292 689.715 332.301L683.198 303.022C691.197 301.242 698.529 297.237 704.35 291.47C710.172 285.702 714.244 278.407 716.098 270.425L745.316 277.212Z" stroke="#2E96DD" stroke-width="36.0896" mask="url(#path-79-inside-1_627_7)"/>
<path d="M681.069 208.605L680.671 196.515C687.615 197.264 694.412 199.14 700.789 202.088C709.914 206.305 717.926 212.598 724.184 220.464C730.443 228.33 734.774 237.551 736.833 247.391C738.271 254.267 738.572 261.311 737.742 268.247L726.05 265.141C726.494 260.039 726.191 254.883 725.135 249.838C723.459 241.823 719.93 234.312 714.832 227.904C709.734 221.497 703.208 216.371 695.775 212.936C691.097 210.773 686.141 209.319 681.069 208.605Z" stroke="#1ABC9C" stroke-width="18.0448"/>
<path d="M676.708 313.014L679.452 324.796C671.87 325.468 664.203 324.793 656.813 322.778C646.502 319.966 637.051 314.634 629.313 307.261C621.574 299.889 615.791 290.708 612.484 280.544C610.113 273.26 609.068 265.636 609.372 258.029L621.273 260.2C621.229 265.831 622.093 271.453 623.848 276.846C626.542 285.125 631.253 292.604 637.556 298.609C643.859 304.614 651.557 308.958 659.957 311.248C665.428 312.74 671.085 313.33 676.708 313.014Z" stroke="#21936C" stroke-width="18.0448"/>
<path d="M659.801 253.385C662.96 253.429 664.511 255.564 664.452 259.789C664.418 262.192 663.947 264.007 663.037 265.234C662.141 266.448 660.856 267.044 659.183 267.021C657.275 266.994 655.899 266.182 655.053 264.584L657.053 263.831C657.598 264.693 658.324 265.131 659.228 265.144C660.095 265.156 660.794 264.825 661.324 264.151C661.854 263.464 662.158 262.526 662.237 261.338C662.238 261.226 662.202 261.152 662.128 261.113C662.067 261.075 661.992 261.087 661.905 261.147C661.214 261.782 660.361 262.092 659.345 262.078C658.069 262.06 657.028 261.649 656.221 260.845C655.427 260.028 655.038 258.995 655.056 257.743C655.074 256.455 655.528 255.401 656.42 254.584C657.311 253.766 658.438 253.366 659.801 253.385ZM659.7 255.261C658.957 255.251 658.347 255.478 657.869 255.942C657.392 256.394 657.148 256.992 657.138 257.735C657.127 258.478 657.348 259.082 657.8 259.547C658.265 260.012 658.875 260.25 659.631 260.261C660.386 260.271 661.003 260.05 661.48 259.599C661.957 259.147 662.201 258.549 662.211 257.806C662.222 257.062 661.995 256.458 661.53 255.993C661.066 255.516 660.456 255.272 659.7 255.261ZM666.753 266.922L666.773 265.435C666.786 264.543 666.976 263.802 667.343 263.212C667.724 262.61 668.37 262.018 669.283 261.436L671.534 259.98C672.609 259.264 673.154 258.435 673.167 257.494C673.175 256.911 672.984 256.432 672.592 256.054C672.201 255.677 671.689 255.484 671.057 255.475C670.438 255.467 669.903 255.639 669.452 255.992C669.013 256.345 668.74 256.825 668.632 257.431L666.651 256.864C666.839 255.85 667.34 255.039 668.154 254.431C668.968 253.823 669.951 253.527 671.103 253.543C672.342 253.56 673.359 253.946 674.154 254.701C674.949 255.443 675.339 256.378 675.323 257.505C675.311 258.373 675.077 259.15 674.621 259.838C674.166 260.513 673.444 261.172 672.456 261.815L670.205 263.271C669.805 263.538 669.535 263.788 669.395 264.021C669.256 264.243 669.177 264.576 669.158 265.022L675.217 265.106L675.19 267.039L666.753 266.922ZM680.543 260.18C679.601 260.167 678.868 259.866 678.344 259.276C677.819 258.674 677.564 257.853 677.579 256.812C677.593 255.771 677.871 254.963 678.412 254.388C678.953 253.813 679.694 253.533 680.635 253.546C681.577 253.559 682.304 253.86 682.816 254.45C683.341 255.039 683.596 255.855 683.582 256.895C683.567 257.936 683.289 258.75 682.748 259.338C682.207 259.912 681.472 260.193 680.543 260.18ZM678.829 267.09L688.232 253.986L690.351 254.016L680.948 267.12L678.829 267.09ZM680.567 258.489C681.335 258.5 681.726 257.96 681.742 256.87C681.757 255.792 681.38 255.248 680.612 255.237C679.831 255.226 679.434 255.76 679.419 256.837C679.403 257.928 679.786 258.478 680.567 258.489ZM688.583 267.505C687.641 267.492 686.908 267.184 686.383 266.582C685.859 265.98 685.604 265.165 685.618 264.136C685.633 263.108 685.91 262.306 686.451 261.731C686.992 261.144 687.733 260.857 688.675 260.87C689.617 260.883 690.344 261.191 690.856 261.793C691.38 262.382 691.635 263.192 691.621 264.22C691.607 265.248 691.329 266.056 690.788 266.643C690.247 267.231 689.512 267.518 688.583 267.505ZM688.606 265.814C689.374 265.824 689.766 265.285 689.781 264.194C689.796 263.116 689.42 262.572 688.651 262.561C687.871 262.55 687.473 263.084 687.458 264.162C687.443 265.252 687.826 265.803 688.606 265.814Z" fill="white"/>
</svg>
