<svg width="686" height="450" viewBox="0 0 686 450" fill="none" xmlns="http://www.w3.org/2000/svg">
<rect x="235.182" y="3.69945" width="368.221" height="200.504" rx="3.15257" fill="#0A0A0A" stroke="#262626" stroke-width="6.30515"/>
<rect x="3.15257" y="220.597" width="301.386" height="225.724" rx="3.15257" fill="#0A0A0A" stroke="#262626" stroke-width="6.30515"/>
<rect x="320.932" y="220.597" width="361.916" height="200.504" rx="3.15257" fill="#0A0A0A" stroke="#262626" stroke-width="6.30515"/>
<circle cx="295.666" cy="61.6604" r="29.5879" fill="#2BA2B2"/>
<path d="M303.735 54.4872C303.735 58.9438 300.122 62.5566 295.665 62.5566C291.209 62.5566 287.596 58.9438 287.596 54.4872C287.596 50.0305 291.209 46.4177 295.665 46.4177C300.122 46.4177 303.735 50.0305 303.735 54.4872Z" fill="white"/>
<path d="M309.114 77.7989C309.114 74.2319 307.697 70.8111 305.175 68.2889C302.653 65.7667 299.232 64.3498 295.665 64.3498C292.098 64.3498 288.678 65.7667 286.155 68.2889C283.633 70.8111 282.216 74.2319 282.216 77.7989L309.114 77.7989Z" fill="white"/>
<rect x="330.633" y="50.0044" width="130.904" height="10.7592" rx="3.58642" fill="#20B985"/>
<rect x="465.32" y="49.7268" width="80.7059" height="11.3493" rx="3.58642" fill="#20B985"/>
<circle cx="343.185" cy="78.6958" r="12.5525" fill="#2BA2B2"/>
<circle cx="371.877" cy="78.6958" r="12.5525" fill="#2BA2B2"/>
<circle cx="400.95" cy="78.6958" r="12.5525" fill="#2BA2B2"/>
<circle cx="295.666" cy="145.941" r="29.5879" fill="#2BA2B2"/>
<path d="M303.735 138.768C303.735 143.225 300.122 146.838 295.665 146.838C291.209 146.838 287.596 143.225 287.596 138.768C287.596 134.312 291.209 130.699 295.665 130.699C300.122 130.699 303.735 134.312 303.735 138.768Z" fill="white"/>
<path d="M309.114 162.08C309.114 158.513 307.697 155.092 305.175 152.57C302.653 150.048 299.232 148.631 295.665 148.631C292.098 148.631 288.678 150.048 286.155 152.57C283.633 155.092 282.216 158.513 282.216 162.08L309.114 162.08Z" fill="white"/>
<rect x="330.633" y="134.285" width="127.318" height="10.7592" rx="3.58642" fill="#20B985"/>
<rect x="330.633" y="118.146" width="93.2468" height="10.7592" rx="3.58642" fill="#20B985"/>
<rect x="428.751" y="117.823" width="136.191" height="11.3493" rx="3.58642" fill="#20B985"/>
<circle cx="343.185" cy="162.977" r="12.5525" fill="#2BA2B2"/>
<circle cx="371.877" cy="162.977" r="12.5525" fill="#2BA2B2"/>
<rect x="22" y="333" width="233.098" height="17.056" rx="5.68532" fill="url(#paint0_linear_627_6)"/>
<rect x="22" y="369.955" width="167.717" height="17.056" rx="5.68532" fill="url(#paint1_linear_627_6)"/>
<rect x="22" y="406.909" width="122.234" height="17.056" rx="5.68532" fill="url(#paint2_linear_627_6)"/>
<circle cx="50.4266" cy="292.427" r="28.4266" fill="#2BA2B2"/>
<path d="M58.1793 285.535C58.1793 289.817 54.7083 293.288 50.4266 293.288C46.1449 293.288 42.6738 289.817 42.6738 285.535C42.6738 281.253 46.1449 277.782 50.4266 277.782C54.7083 277.782 58.1793 281.253 58.1793 285.535Z" fill="white"/>
<path d="M63.3477 307.932C63.3477 304.505 61.9864 301.218 59.5632 298.795C57.14 296.372 53.8535 295.01 50.4266 295.01C46.9996 295.01 43.7131 296.372 41.2899 298.795C38.8667 301.218 37.5054 304.505 37.5054 307.932L63.3477 307.932Z" fill="white"/>
<rect x="343" y="248.953" width="54.0106" height="14.2133" rx="5.68532" fill="#20B985"/>
<rect x="343" y="285.908" width="233.098" height="17.056" rx="5.68532" fill="#20B985"/>
<rect x="343" y="322.863" width="167.717" height="17.056" rx="5.68532" fill="#20B985"/>
<rect x="343" y="359.817" width="122.234" height="17.056" rx="5.68532" fill="#20B985"/>
<rect x="408.381" y="248.953" width="54.0106" height="14.2133" rx="5.68532" fill="#20B985"/>
<rect x="473.763" y="248.953" width="54.0106" height="14.2133" rx="5.68532" fill="#20B985"/>
<rect x="539.144" y="248.953" width="54.0106" height="14.2133" rx="5.68532" fill="#20B985"/>
<circle cx="629.938" cy="375.65" r="28.4266" fill="#2BA2B2"/>
<path d="M637.69 368.758C637.69 373.04 634.219 376.511 629.938 376.511C625.656 376.511 622.185 373.04 622.185 368.758C622.185 364.476 625.656 361.005 629.938 361.005C634.219 361.005 637.69 364.476 637.69 368.758Z" fill="white"/>
<path d="M642.859 391.155C642.859 387.728 641.498 384.441 639.074 382.018C636.651 379.595 633.365 378.234 629.938 378.234C626.511 378.234 623.224 379.595 620.801 382.018C618.378 384.441 617.017 387.728 617.017 391.155L642.859 391.155Z" fill="white"/>
<path d="M155.805 168.906L155.809 168.908C161.83 171.55 168.159 172.87 174.793 172.87C183.14 172.87 190.822 170.936 197.829 167.064L197.832 167.062C204.831 163.133 210.454 157.849 214.694 151.213L214.695 151.211C218.942 144.501 221.063 136.962 221.063 128.606C221.063 121.79 219.682 115.367 216.916 109.344C214.208 103.253 210.207 98.1437 204.918 94.022C201.337 91.1581 197.201 89.0033 192.516 87.5532L218.54 62.4059L218.693 62.2585V62.0463V38.705V38.205H218.193H136.134H135.634V38.705V62.0463V62.5463H136.134H187.457L153.138 91.0205L152.815 91.2885L153.023 91.653L164.146 111.165L164.395 111.601L164.831 111.35C166.377 110.458 167.98 109.776 169.642 109.301L169.65 109.299L169.657 109.296C171.309 108.765 173.02 108.5 174.793 108.5C180.684 108.5 185.472 110.487 189.199 114.451L189.204 114.456C193.003 118.374 194.899 123.081 194.899 128.606C194.899 132.286 193.98 135.63 192.145 138.649L192.141 138.655C190.362 141.679 187.933 144.08 184.846 145.861L184.842 145.863C181.823 147.639 178.477 148.529 174.793 148.529C170.525 148.529 166.552 147.257 162.864 144.7C159.26 142.1 156.831 138.465 155.582 133.765L155.453 133.282L154.97 133.411L130.9 139.793L130.405 139.924L130.547 140.415C132.452 146.99 135.619 152.711 140.049 157.572L140.052 157.574C144.535 162.426 149.787 166.204 155.805 168.906ZM36.5383 167.063C43.9183 171.183 52.5148 173.235 62.3116 173.235C72.1083 173.235 80.7048 171.183 88.0849 167.063C95.4599 162.945 101.21 157.195 105.328 149.82C109.448 142.44 111.5 133.843 111.5 124.047V84.6582C111.5 74.8615 109.448 66.265 105.328 58.8849C101.21 51.5099 95.4599 45.7598 88.0849 41.642C80.7048 37.5215 72.1083 35.4697 62.3116 35.4697C52.5148 35.4697 43.9183 37.5215 36.5383 41.642C29.1632 45.7598 23.4131 51.5099 19.2953 58.8849C15.1748 66.265 13.123 74.8615 13.123 84.6582V124.047C13.123 133.843 15.1748 142.44 19.2953 149.82C23.4131 157.195 29.1632 162.945 36.5383 167.063ZM73.9117 145.68C70.4683 147.699 66.6057 148.712 62.3116 148.712C58.0174 148.712 54.1548 147.699 50.7114 145.68C47.2597 143.657 44.525 140.922 42.5016 137.47C40.4831 134.027 39.4703 130.164 39.4703 125.87V82.6523C39.4703 78.3582 40.4831 74.4956 42.5016 71.0522C44.525 67.6005 47.2597 64.8658 50.7114 62.8424C54.1548 60.8239 58.0174 59.811 62.3116 59.811C66.6057 59.811 70.4683 60.8239 73.9117 62.8424C77.3634 64.8658 80.0981 67.6005 82.1215 71.0522C84.14 74.4956 85.1529 78.3582 85.1529 82.6523V125.87C85.1529 130.164 84.14 134.027 82.1215 137.47C80.0981 140.922 77.3634 143.657 73.9117 145.68Z" stroke="white"/>
<path d="M334.363 193.411C334.28 193.009 334.084 192.638 333.798 192.343C333.512 192.048 333.148 191.841 332.748 191.746C306.094 185.229 244.508 208.452 211.142 241.804C205.191 247.707 199.765 254.118 194.927 260.963C184.638 260.053 174.349 260.813 165.579 264.636C140.837 275.526 133.633 303.941 131.626 316.164C131.512 316.833 131.555 317.519 131.752 318.169C131.948 318.819 132.292 319.414 132.758 319.908C133.223 320.402 133.797 320.781 134.433 321.016C135.07 321.251 135.753 321.335 136.427 321.261L176.16 316.879C176.188 319.874 176.369 322.866 176.702 325.844C176.902 327.911 177.819 329.843 179.296 331.305L194.682 346.654C196.144 348.129 198.076 349.046 200.143 349.248C203.103 349.579 206.079 349.76 209.058 349.79L204.698 389.473C204.625 390.147 204.71 390.829 204.945 391.465C205.18 392.102 205.559 392.675 206.053 393.14C206.547 393.605 207.142 393.95 207.791 394.146C208.44 394.343 209.126 394.387 209.795 394.274C221.996 392.317 250.461 385.113 261.287 360.37C265.11 351.601 265.892 341.362 265.01 331.123C271.871 326.284 278.299 320.857 284.218 314.904C317.689 281.601 340.78 221.39 334.363 193.411ZM250.825 275.175C247.768 272.121 245.687 268.229 244.843 263.991C243.999 259.753 244.43 255.361 246.083 251.368C247.736 247.376 250.536 243.964 254.128 241.563C257.721 239.162 261.945 237.881 266.266 237.881C270.586 237.881 274.81 239.162 278.403 241.563C281.995 243.964 284.795 247.376 286.448 251.368C288.101 255.361 288.533 259.753 287.689 263.991C286.844 268.229 284.763 272.121 281.706 275.175C279.68 277.205 277.273 278.815 274.623 279.913C271.974 281.012 269.134 281.577 266.266 281.577C263.397 281.577 260.557 281.012 257.908 279.913C255.258 278.815 252.851 277.205 250.825 275.175Z" fill="url(#paint3_linear_627_6)"/>
<path d="M193.635 357.772C191.141 360.27 187.141 361.244 182.326 362.077C171.509 363.92 161.957 354.573 163.9 343.637C164.642 339.491 166.836 333.68 168.201 332.315C168.499 332.022 168.698 331.643 168.768 331.231C168.839 330.819 168.778 330.395 168.594 330.02C168.41 329.645 168.113 329.337 167.744 329.14C167.375 328.943 166.954 328.868 166.54 328.924C160.491 329.665 154.863 332.407 150.553 336.715C139.854 347.423 138.844 387.156 138.844 387.156C138.844 387.156 178.599 386.146 189.298 375.438C193.62 371.131 196.366 365.495 197.094 359.437C197.262 357.535 194.946 356.402 193.635 357.772Z" fill="url(#paint4_linear_627_6)"/>
<defs>
<linearGradient id="paint0_linear_627_6" x1="22" y1="342" x2="203" y2="342" gradientUnits="userSpaceOnUse">
<stop stop-color="#20B985"/>
<stop offset="1" stop-opacity="0"/>
</linearGradient>
<linearGradient id="paint1_linear_627_6" x1="22" y1="378" x2="177.5" y2="378" gradientUnits="userSpaceOnUse">
<stop stop-color="#20B985"/>
<stop offset="1" stop-opacity="0"/>
</linearGradient>
<linearGradient id="paint2_linear_627_6" x1="24" y1="415.5" x2="144" y2="417.5" gradientUnits="userSpaceOnUse">
<stop stop-color="#20B985"/>
<stop offset="1" stop-opacity="0"/>
</linearGradient>
<linearGradient id="paint3_linear_627_6" x1="233.5" y1="190.647" x2="233.5" y2="394.335" gradientUnits="userSpaceOnUse">
<stop stop-color="#20B985"/>
<stop offset="0.0989583" stop-color="#2BA2B2"/>
<stop offset="1" stop-opacity="0"/>
</linearGradient>
<linearGradient id="paint4_linear_627_6" x1="167.973" y1="328.906" x2="167.973" y2="387.156" gradientUnits="userSpaceOnUse">
<stop stop-color="#20B985"/>
<stop offset="0.0989583" stop-color="#2BA2B2"/>
<stop offset="1" stop-opacity="0"/>
</linearGradient>
</defs>
</svg>
