<svg width="686" height="450" viewBox="0 0 686 450" fill="none" xmlns="http://www.w3.org/2000/svg">
<rect x="235.182" y="3.69921" width="368.221" height="200.504" rx="3.15257" fill="#0A0A0A" stroke="#262626" stroke-width="6.30515"/>
<rect x="3.15257" y="220.596" width="301.386" height="225.724" rx="3.15257" fill="#0A0A0A" stroke="#262626" stroke-width="6.30515"/>
<rect x="320.932" y="220.596" width="361.916" height="200.504" rx="3.15257" fill="#0A0A0A" stroke="#262626" stroke-width="6.30515"/>
<circle cx="295.666" cy="61.6602" r="29.5879" fill="#2BA2B2"/>
<path d="M303.735 54.487C303.735 58.9437 300.122 62.5565 295.665 62.5565C291.209 62.5565 287.596 58.9437 287.596 54.487C287.596 50.0304 291.209 46.4176 295.665 46.4176C300.122 46.4176 303.735 50.0304 303.735 54.487Z" fill="white"/>
<path d="M309.114 77.7987C309.114 74.2318 307.697 70.811 305.175 68.2888C302.653 65.7666 299.232 64.3497 295.665 64.3497C292.098 64.3497 288.678 65.7666 286.155 68.2888C283.633 70.811 282.216 74.2318 282.216 77.7987L309.114 77.7987Z" fill="white"/>
<rect x="330.633" y="50.0043" width="130.904" height="10.7592" rx="3.58642" fill="#20B985"/>
<rect x="465.32" y="49.7266" width="80.7059" height="11.3493" rx="3.58642" fill="#20B985"/>
<circle cx="343.185" cy="78.6955" r="12.5525" fill="#2BA2B2"/>
<circle cx="371.877" cy="78.6955" r="12.5525" fill="#2BA2B2"/>
<circle cx="400.95" cy="78.6955" r="12.5525" fill="#2BA2B2"/>
<circle cx="295.666" cy="145.941" r="29.5879" fill="#2BA2B2"/>
<path d="M303.735 138.768C303.735 143.225 300.122 146.838 295.665 146.838C291.209 146.838 287.596 143.225 287.596 138.768C287.596 134.312 291.209 130.699 295.665 130.699C300.122 130.699 303.735 134.312 303.735 138.768Z" fill="white"/>
<path d="M309.114 162.08C309.114 158.513 307.697 155.092 305.175 152.57C302.653 150.048 299.232 148.631 295.665 148.631C292.098 148.631 288.678 150.048 286.155 152.57C283.633 155.092 282.216 158.513 282.216 162.08L309.114 162.08Z" fill="white"/>
<rect x="330.633" y="134.285" width="127.318" height="10.7592" rx="3.58642" fill="#20B985"/>
<rect x="330.633" y="118.146" width="93.2468" height="10.7592" rx="3.58642" fill="#20B985"/>
<rect x="428.751" y="117.822" width="136.191" height="11.3493" rx="3.58642" fill="#20B985"/>
<circle cx="343.185" cy="162.977" r="12.5525" fill="#2BA2B2"/>
<circle cx="371.877" cy="162.977" r="12.5525" fill="#2BA2B2"/>
<rect x="343" y="248.953" width="54.0106" height="14.2133" rx="5.68532" fill="#20B985"/>
<rect x="343" y="285.907" width="233.098" height="17.056" rx="5.68532" fill="#20B985"/>
<rect x="192" y="288" width="90" height="9" rx="3.07317" fill="#20B985"/>
<rect x="192" y="348" width="90" height="9" rx="3.07317" fill="#20B985"/>
<rect x="343" y="322.862" width="167.717" height="17.056" rx="5.68532" fill="#20B985"/>
<rect x="192" y="308" width="65" height="9" rx="3.07317" fill="#20B985"/>
<rect x="192" y="368" width="65" height="9" rx="3.07317" fill="#20B985"/>
<rect x="343" y="359.817" width="122.234" height="17.056" rx="5.68532" fill="#20B985"/>
<rect x="192" y="328" width="47" height="9" rx="3.07317" fill="#20B985"/>
<rect x="192" y="388" width="47" height="9" rx="3.07317" fill="#20B985"/>
<rect x="408.381" y="248.953" width="54.0106" height="14.2133" rx="5.68532" fill="#20B985"/>
<rect x="473.763" y="248.953" width="54.0106" height="14.2133" rx="5.68532" fill="#20B985"/>
<rect x="539.144" y="248.953" width="54.0106" height="14.2133" rx="5.68532" fill="#20B985"/>
<circle cx="629.938" cy="375.65" r="28.4266" fill="#2BA2B2"/>
<path d="M637.69 368.758C637.69 373.04 634.219 376.511 629.938 376.511C625.656 376.511 622.185 373.04 622.185 368.758C622.185 364.476 625.656 361.005 629.938 361.005C634.219 361.005 637.69 364.476 637.69 368.758Z" fill="white"/>
<path d="M642.859 391.155C642.859 387.728 641.498 384.441 639.074 382.018C636.651 379.595 633.365 378.233 629.938 378.233C626.511 378.233 623.224 379.595 620.801 382.018C618.378 384.441 617.017 387.728 617.017 391.155L642.859 391.155Z" fill="white"/>
<path d="M156.994 169.114L156.995 169.115C162.899 171.883 169.202 173.265 175.899 173.265C184.248 173.265 191.99 171.3 199.117 167.368L199.12 167.366C206.24 163.377 211.984 158.033 216.345 151.338L216.346 151.337C220.716 144.566 222.899 136.995 222.899 128.636C222.899 120.296 221.09 112.885 217.457 106.42C213.888 99.8986 208.901 94.7878 202.502 91.0951C196.154 87.3366 188.801 85.465 180.458 85.465C176.755 85.465 172.788 86.082 168.557 87.3083C166.508 87.902 164.566 88.6676 162.73 89.605L164.383 62.3943H213.646H214.146V61.8943V38.7353V38.2353H213.646H141.981H141.509L141.482 38.7066L137.47 108.548L137.448 108.941L137.824 109.055L158.794 115.438L159.075 115.523L159.286 115.32C160.696 113.969 162.837 112.536 165.736 111.026L165.743 111.022C168.564 109.494 172.243 108.712 176.811 108.712C180.495 108.712 183.841 109.602 186.86 111.378L186.864 111.381C189.951 113.162 192.38 115.562 194.159 118.586L194.163 118.593C195.998 121.611 196.917 124.955 196.917 128.636C196.917 132.317 195.998 135.66 194.163 138.679L194.159 138.685C192.38 141.71 189.951 144.11 186.864 145.891L186.86 145.893C183.841 147.669 180.495 148.559 176.811 148.559C174.029 148.559 171.304 147.969 168.632 146.782C166.02 145.534 163.704 143.813 161.682 141.612C159.734 139.427 158.372 136.827 157.601 133.801L157.476 133.31L156.987 133.441L133.099 139.823L132.609 139.954L132.747 140.443C134.59 146.953 137.632 152.672 141.876 157.592C146.115 162.507 151.156 166.349 156.994 169.114ZM36.9152 167.093C44.2953 171.214 52.8918 173.265 62.6885 173.265C72.4853 173.265 81.0817 171.214 88.4618 167.093C95.8369 162.975 101.587 157.225 105.705 149.85C109.825 142.47 111.877 133.874 111.877 124.077V84.6885C111.877 74.8917 109.825 66.2953 105.705 58.9152C101.587 51.5401 95.8369 45.79 88.4618 41.6723C81.0817 37.5517 72.4853 35.5 62.6885 35.5C52.8918 35.5 44.2953 37.5517 36.9152 41.6723C29.5402 45.79 23.79 51.5401 19.6723 58.9152C15.5517 66.2953 13.5 74.8917 13.5 84.6885V124.077C13.5 133.874 15.5517 142.47 19.6723 149.85C23.79 157.225 29.5402 162.975 36.9152 167.093ZM74.2887 145.71C70.8453 147.729 66.9827 148.742 62.6885 148.742C58.3944 148.742 54.5317 147.729 51.0884 145.71C47.6366 143.687 44.902 140.952 42.8786 137.501C40.86 134.057 39.8472 130.195 39.8472 125.901V82.6826C39.8472 78.3885 40.86 74.5258 42.8786 71.0825C44.902 67.6307 47.6366 64.8961 51.0884 62.8727C54.5317 60.8541 58.3944 59.8413 62.6885 59.8413C66.9827 59.8413 70.8453 60.8541 74.2887 62.8727C77.7404 64.8961 80.475 67.6307 82.4985 71.0825C84.517 74.5258 85.5298 78.3885 85.5298 82.6826V125.901C85.5298 130.195 84.517 134.057 82.4985 137.501C80.475 140.952 77.7404 143.687 74.2887 145.71Z" stroke="white"/>
<path d="M91.7649 281.819C121.651 274.256 151.644 291.976 158.991 321.008C166.337 350.039 148.383 379.893 118.497 387.456C88.6116 395.019 58.6186 377.299 51.2718 348.267C43.925 319.235 61.879 289.381 91.7649 281.819Z" stroke="white" stroke-width="18.2507"/>
<mask id="path-35-inside-1_627_8" fill="white">
<path d="M102.06 263.473C115.242 263.031 128.28 266.323 139.672 272.971C151.064 279.618 160.345 289.35 166.445 301.044L141.116 314.257C137.507 307.337 132.015 301.579 125.274 297.645C118.533 293.712 110.818 291.763 103.018 292.025L102.06 263.473Z"/>
</mask>
<path d="M102.06 263.473C115.242 263.031 128.28 266.323 139.672 272.971C151.064 279.618 160.345 289.35 166.445 301.044L141.116 314.257C137.507 307.337 132.015 301.579 125.274 297.645C118.533 293.712 110.818 291.763 103.018 292.025L102.06 263.473Z" stroke="#2E96DD" stroke-width="34.3723" mask="url(#path-35-inside-1_627_8)"/>
<path d="M54.7803 339.489L43.7555 342.836C42.7335 336.262 42.784 329.547 43.9233 322.954C45.5535 313.52 49.3681 304.598 55.062 296.902C60.7559 289.205 68.1713 282.947 76.7156 278.628C82.6866 275.61 89.0933 273.597 95.6781 272.651L95.7037 284.172C90.9002 285.021 86.2314 286.571 81.8504 288.786C74.8906 292.304 68.8502 297.402 64.2122 303.671C59.5741 309.94 56.4669 317.208 55.139 324.892C54.3031 329.73 54.1868 334.648 54.7803 339.489Z" stroke="#2BA2B2" stroke-width="17.1862"/>
<path d="M131.665 375.309L126.981 368.105L131.665 375.309C138.617 370.79 144.336 364.613 148.306 357.333C152.277 350.054 154.375 341.902 154.412 333.61C154.436 328.209 153.584 322.859 151.908 317.764L162.07 312.335C164.557 319.145 165.826 326.364 165.794 333.66C165.749 343.839 163.173 353.848 158.298 362.784C153.424 371.72 146.403 379.304 137.868 384.852C131.751 388.828 124.995 391.669 117.922 393.265L116.985 381.782C122.177 380.433 127.136 378.253 131.665 375.309Z" stroke="#20B985" stroke-width="17.1862"/>
</svg>
