<svg xmlns="http://www.w3.org/2000/svg" xmlns:xlink="http://www.w3.org/1999/xlink"><defs>
<filter id="filter0_d_266_37" x="14.7441" y="21.4673" width="71.9797" height="56.8691" filterUnits="userSpaceOnUse" color-interpolation-filters="sRGB">
<feFlood flood-opacity="0" result="BackgroundImageFix"/>
<feColorMatrix in="SourceAlpha" type="matrix" values="0 0 0 0 0 0 0 0 0 0 0 0 0 0 0 0 0 0 127 0" result="hardAlpha"/>
<feOffset dx="0.723871" dy="1.44774"/>
<feComposite in2="hardAlpha" operator="out"/>
<feColorMatrix type="matrix" values="0 0 0 0 0.12549 0 0 0 0 0.72549 0 0 0 0 0.521569 0 0 0 1 0"/>
<feBlend mode="normal" in2="BackgroundImageFix" result="effect1_dropShadow_266_37"/>
<feBlend mode="normal" in="SourceGraphic" in2="effect1_dropShadow_266_37" result="shape"/>
</filter>
<linearGradient id="paint0_linear_266_37" x1="49.5" y1="0" x2="49.5" y2="99" gradientUnits="userSpaceOnUse">
<stop stop-color="#20B985"/>
<stop offset="1" stop-color="#2BA2B2"/>
</linearGradient>

<filter id="filter0_d_266_39" x="18" y="17" width="65.3554" height="66.1101" filterUnits="userSpaceOnUse" color-interpolation-filters="sRGB">
<feFlood flood-opacity="0" result="BackgroundImageFix"/>
<feColorMatrix in="SourceAlpha" type="matrix" values="0 0 0 0 0 0 0 0 0 0 0 0 0 0 0 0 0 0 127 0" result="hardAlpha"/>
<feOffset dx="0.88417" dy="1.76834"/>
<feComposite in2="hardAlpha" operator="out"/>
<feColorMatrix type="matrix" values="0 0 0 0 0.12549 0 0 0 0 0.72549 0 0 0 0 0.521569 0 0 0 1 0"/>
<feBlend mode="normal" in2="BackgroundImageFix" result="effect1_dropShadow_266_39"/>
<feBlend mode="normal" in="SourceGraphic" in2="effect1_dropShadow_266_39" result="shape"/>
</filter>
<linearGradient id="paint0_linear_266_39" x1="49.5" y1="0" x2="49.5" y2="99" gradientUnits="userSpaceOnUse">
<stop stop-color="#20B985"/>
<stop offset="1" stop-color="#2BA2B2"/>
</linearGradient>

<filter id="filter0_d_266_41" x="15" y="17" width="71.3386" height="66.2637" filterUnits="userSpaceOnUse" color-interpolation-filters="sRGB">
<feFlood flood-opacity="0" result="BackgroundImageFix"/>
<feColorMatrix in="SourceAlpha" type="matrix" values="0 0 0 0 0 0 0 0 0 0 0 0 0 0 0 0 0 0 127 0" result="hardAlpha"/>
<feOffset dx="0.805933" dy="1.61187"/>
<feComposite in2="hardAlpha" operator="out"/>
<feColorMatrix type="matrix" values="0 0 0 0 0.168627 0 0 0 0 0.635294 0 0 0 0 0.698039 0 0 0 1 0"/>
<feBlend mode="normal" in2="BackgroundImageFix" result="effect1_dropShadow_266_41"/>
<feBlend mode="normal" in="SourceGraphic" in2="effect1_dropShadow_266_41" result="shape"/>
</filter>
<linearGradient id="paint0_linear_266_41" x1="49.5" y1="0" x2="49.5" y2="99" gradientUnits="userSpaceOnUse">
<stop stop-color="#20B985"/>
<stop offset="1" stop-color="#2BA2B2"/>
</linearGradient>

<filter id="filter0_d_266_43" x="11.2202" y="20.8281" width="78.728" height="58.9347" filterUnits="userSpaceOnUse" color-interpolation-filters="sRGB">
<feFlood flood-opacity="0" result="BackgroundImageFix"/>
<feColorMatrix in="SourceAlpha" type="matrix" values="0 0 0 0 0 0 0 0 0 0 0 0 0 0 0 0 0 0 127 0" result="hardAlpha"/>
<feOffset dx="0.948167" dy="1.89633"/>
<feComposite in2="hardAlpha" operator="out"/>
<feColorMatrix type="matrix" values="0 0 0 0 0.12549 0 0 0 0 0.72549 0 0 0 0 0.521569 0 0 0 1 0"/>
<feBlend mode="normal" in2="BackgroundImageFix" result="effect1_dropShadow_266_43"/>
<feBlend mode="normal" in="SourceGraphic" in2="effect1_dropShadow_266_43" result="shape"/>
</filter>
<linearGradient id="paint0_linear_266_43" x1="49.5" y1="0" x2="49.5" y2="99" gradientUnits="userSpaceOnUse">
<stop stop-color="#20B985"/>
<stop offset="1" stop-color="#2BA2B2"/>
</linearGradient>

<filter id="filter0_d_266_34" x="17" y="17" width="65.4043" height="66.3105" filterUnits="userSpaceOnUse" color-interpolation-filters="sRGB">
<feFlood flood-opacity="0" result="BackgroundImageFix"/>
<feColorMatrix in="SourceAlpha" type="matrix" values="0 0 0 0 0 0 0 0 0 0 0 0 0 0 0 0 0 0 127 0" result="hardAlpha"/>
<feOffset dx="0.90718" dy="1.81436"/>
<feComposite in2="hardAlpha" operator="out"/>
<feColorMatrix type="matrix" values="0 0 0 0 0.168627 0 0 0 0 0.635294 0 0 0 0 0.698039 0 0 0 1 0"/>
<feBlend mode="normal" in2="BackgroundImageFix" result="effect1_dropShadow_266_34"/>
<feBlend mode="normal" in="SourceGraphic" in2="effect1_dropShadow_266_34" result="shape"/>
</filter>
<linearGradient id="paint0_linear_266_34" x1="49.5" y1="0" x2="49.5" y2="99" gradientUnits="userSpaceOnUse">
<stop stop-color="#20B985"/>
<stop offset="1" stop-color="#2BA2B2"/>
</linearGradient>

<filter id="filter0_d_266_35" x="21.3188" y="20.3188" width="58.5249" height="59.3687" filterUnits="userSpaceOnUse" color-interpolation-filters="sRGB">
<feFlood flood-opacity="0" result="BackgroundImageFix"/>
<feColorMatrix in="SourceAlpha" type="matrix" values="0 0 0 0 0 0 0 0 0 0 0 0 0 0 0 0 0 0 127 0" result="hardAlpha"/>
<feOffset dx="0.843796" dy="1.68759"/>
<feComposite in2="hardAlpha" operator="out"/>
<feColorMatrix type="matrix" values="0 0 0 0 0.12549 0 0 0 0 0.72549 0 0 0 0 0.521569 0 0 0 1 0"/>
<feBlend mode="normal" in2="BackgroundImageFix" result="effect1_dropShadow_266_35"/>
<feBlend mode="normal" in="SourceGraphic" in2="effect1_dropShadow_266_35" result="shape"/>
</filter>
<linearGradient id="paint0_linear_266_35" x1="49.5" y1="0" x2="49.5" y2="99" gradientUnits="userSpaceOnUse">
<stop stop-color="#20B985"/>
<stop offset="1" stop-color="#2BA2B2"/>
</linearGradient>

                  <linearGradient id="paint0_linear_467_585" x1="18.2852" y1="0" x2="18.2852" y2="36.5703" gradientUnits="userSpaceOnUse">
                  <stop stop-color="#20B985"/>
                  <stop offset="1" stop-color="#2BA2B2"/>
                  </linearGradient>
                  </defs><symbol id="about-tab1" viewBox="0 0 99 99"><g fill="none">
<rect x="0.5" y="0.5" width="98" height="98" rx="9.5" fill="#080808"/>
<rect x="0.5" y="0.5" width="98" height="98" rx="9.5" stroke="url(#paint0_linear_266_37)"/>
<g filter="url(#filter0_d_266_37)">
<path d="M40.4755 27.4053C40.4755 24.127 43.1352 21.4673 46.4135 21.4673H54.3309C57.6091 21.4673 60.2689 24.127 60.2689 27.4053V35.3226C60.2689 38.6009 57.6091 41.2606 54.3309 41.2606H53.3412V46.209H72.1449C75.9675 46.209 79.0725 49.3141 79.0725 53.1367V57.0953H80.0622C83.3405 57.0953 86.0002 59.7551 86.0002 63.0333V70.9507C86.0002 74.2289 83.3405 76.8887 80.0622 76.8887H72.1449C68.8666 76.8887 66.2069 74.2289 66.2069 70.9507V63.0333C66.2069 59.7551 68.8666 57.0953 72.1449 57.0953H73.1345V53.1367C73.1345 52.5923 72.6892 52.147 72.1449 52.147H53.3412V57.0953H54.3309C57.6091 57.0953 60.2689 59.7551 60.2689 63.0333V70.9507C60.2689 74.2289 57.6091 76.8887 54.3309 76.8887H46.4135C43.1352 76.8887 40.4755 74.2289 40.4755 70.9507V63.0333C40.4755 59.7551 43.1352 57.0953 46.4135 57.0953H47.4032V52.147H28.5995C28.0552 52.147 27.6098 52.5923 27.6098 53.1367V57.0953H28.5995C31.8778 57.0953 34.5375 59.7551 34.5375 63.0333V70.9507C34.5375 74.2289 31.8778 76.8887 28.5995 76.8887H20.6821C17.4039 76.8887 14.7441 74.2289 14.7441 70.9507V63.0333C14.7441 59.7551 17.4039 57.0953 20.6821 57.0953H21.6718V53.1367C21.6718 49.3141 24.7769 46.209 28.5995 46.209H47.4032V41.2606H46.4135C43.1352 41.2606 40.4755 38.6009 40.4755 35.3226V27.4053Z" fill="white"/>
</g>

</g></symbol><symbol id="about-tab2" viewBox="0 0 99 99"><g fill="none">
<rect x="0.5" y="0.5" width="98" height="98" rx="9.5" fill="#080808"/>
<rect x="0.5" y="0.5" width="98" height="98" rx="9.5" stroke="url(#paint0_linear_266_39)"/>
<g filter="url(#filter0_d_266_39)">
<path d="M57.2257 54.7476L61.7387 46.9467C62.0288 46.4631 61.8999 45.8507 61.4808 45.4961L56.71 41.7568C56.8067 41.0476 56.8711 40.3062 56.8711 39.5648C56.8711 38.8233 56.8067 38.0819 56.71 37.3405L61.4808 33.6012C61.8999 33.2466 62.0288 32.6342 61.7387 32.1506L57.2257 24.3497C56.9356 23.8661 56.3554 23.6727 55.8396 23.8661L50.2307 26.1226C49.0702 25.22 47.813 24.4786 46.4269 23.8984L45.5888 17.9348C45.5347 17.6741 45.3935 17.4395 45.1885 17.2697C44.9835 17.0998 44.7267 17.0047 44.4605 17H35.4346C34.8866 17 34.4031 17.4191 34.3064 17.9671L33.4683 23.9306C32.1144 24.5108 30.825 25.2523 29.6645 26.1548L24.0555 23.8984C23.5398 23.705 22.9595 23.8984 22.6694 24.3819L18.1565 32.1829C17.8663 32.6664 17.9953 33.2789 18.4143 33.6334L23.1852 37.3727C23.0885 38.0819 23.024 38.8233 23.024 39.5648C23.024 40.3062 23.0885 41.0476 23.1852 41.789L18.4143 45.5283C17.9953 45.8829 17.8663 46.4954 18.1565 46.9789L22.6694 54.7798C22.9595 55.2634 23.5398 55.4568 24.0555 55.2634L29.6645 53.0069C30.825 53.9095 32.0821 54.6509 33.4683 55.2311L34.3064 61.1947C34.4031 61.7104 34.8866 62.1295 35.4346 62.1295H44.4605C45.0085 62.1295 45.4921 61.7104 45.5888 61.1624L46.4269 55.1989C47.7808 54.6187 49.0702 53.8773 50.2307 52.9747L55.8396 55.2311C56.3554 55.4246 56.9356 55.2311 57.2257 54.7476ZM39.9476 46.0118C36.4017 46.0118 33.5005 43.1106 33.5005 39.5648C33.5005 36.0189 36.4017 33.1177 39.9476 33.1177C43.4935 33.1177 46.3946 36.0189 46.3946 39.5648C46.3946 43.1106 43.4935 46.0118 39.9476 46.0118ZM82.2081 70.7364L79.1135 68.3509C79.178 67.8996 79.2425 67.4161 79.2425 66.9326C79.2425 66.449 79.2102 65.9655 79.1135 65.5142L82.1759 63.1288C82.4338 62.9032 82.5305 62.5163 82.3371 62.194L79.4359 57.1975C79.2747 56.8751 78.8879 56.7784 78.5333 56.8751L74.9552 58.3257C74.2138 57.7455 73.4079 57.262 72.5053 56.9074L71.9573 53.1036C71.9445 52.9313 71.8682 52.7699 71.7431 52.6508C71.618 52.5316 71.4531 52.4632 71.2803 52.4589H65.5102C65.1556 52.4589 64.8333 52.7168 64.801 53.0714L64.253 56.8751C63.3827 57.262 62.5446 57.7133 61.8032 58.2935L58.225 56.8429C58.0608 56.7811 57.8799 56.7796 57.7146 56.8386C57.5494 56.8977 57.4104 57.0134 57.3224 57.1653L54.4212 62.1617C54.2601 62.4841 54.2923 62.8709 54.5824 63.0966L57.6448 65.482C57.5118 66.4229 57.5118 67.3778 57.6448 68.3187L54.5824 70.7041C54.3245 70.9298 54.2278 71.3166 54.4212 71.6389L57.3224 76.6354C57.4836 76.9578 57.8704 77.0545 58.225 76.9578L61.8032 75.5072C62.5446 76.0874 63.3504 76.5709 64.253 76.9255L64.801 80.7293C64.8655 81.0839 65.1556 81.3418 65.5102 81.3418H71.2803C71.6349 81.3418 71.9573 81.0839 71.9895 80.7293L72.5375 76.9255C73.4079 76.5387 74.246 76.0874 74.9552 75.5072L78.5655 76.9578C78.8879 77.0867 79.2747 76.9578 79.4681 76.6354L82.3693 71.6389C82.5627 71.3488 82.466 70.962 82.2081 70.7364ZM68.3792 71.2521C67.2246 71.2517 66.1174 70.7926 65.3013 69.9759C64.4852 69.1592 64.027 68.0517 64.0274 66.8971C64.0278 65.7425 64.4869 64.6354 65.3036 63.8193C66.1203 63.0032 67.2278 62.5449 68.3824 62.5453C69.537 62.5458 70.6441 63.0048 71.4602 63.8216C72.2763 64.6383 72.7346 65.7458 72.7342 66.9003C72.7337 68.0549 72.2747 69.1621 71.4579 69.9782C70.6412 70.7943 69.5337 71.2525 68.3792 71.2521Z" fill="white"/>
</g>

</g></symbol><symbol id="about-tab3" viewBox="0 0 99 99"><g fill="none">
<rect x="0.5" y="0.5" width="98" height="98" rx="9.5" fill="#080808"/>
<rect x="0.5" y="0.5" width="98" height="98" rx="9.5" stroke="url(#paint0_linear_266_41)"/>
<g filter="url(#filter0_d_266_41)">
<path d="M79.638 28.7486H20.8812C17.6307 28.7486 15 31.3931 15 34.6298V37.5635H85.5191V34.6298C85.5191 31.3931 82.8884 28.7486 79.638 28.7486ZM44.3784 22.8812H56.127V25.8149H62.0082V22.8812C62.0082 19.6445 59.3775 17 56.127 17H44.3784C41.1417 17 38.4972 19.6307 38.4972 22.8812V25.8149H44.3784V22.8812ZM15 75.7705C15 79.0073 17.6307 81.6517 20.8812 81.6517H79.6517C82.8884 81.6517 85.5329 79.021 85.5329 75.7705V72.8368H15V75.7705ZM15 66.9557H85.5191V43.4447H15V66.9557Z" fill="white"/>
</g>

</g></symbol><symbol id="about-tab4" viewBox="0 0 99 99"><g fill="none">
<rect x="0.5" y="0.5" width="98" height="98" rx="9.5" fill="#080808"/>
<rect x="0.5" y="0.5" width="98" height="98" rx="9.5" stroke="url(#paint0_linear_266_43)"/>
<g filter="url(#filter0_d_266_43)">
<path d="M63.0729 49.3472C59.7414 49.3472 56.52 47.8597 53.9987 45.1601C51.547 42.5269 50.0497 39.0155 49.7856 35.2756C49.5037 31.2862 50.7206 27.6176 53.2112 24.9439C55.7017 22.2703 59.184 20.8281 63.0729 20.8281C66.9344 20.8281 70.4263 22.2962 72.9088 24.9634C75.4155 27.6565 76.6357 31.3186 76.3538 35.274C76.0831 39.0188 74.5875 42.5286 72.1407 45.1585C69.6258 47.8597 66.4061 49.3472 63.0729 49.3472ZM84.4347 77.8663H41.7128C41.0259 77.87 40.3473 77.716 39.7293 77.4163C39.1113 77.1165 38.5703 76.679 38.1479 76.1373C37.6999 75.5501 37.3904 74.8692 37.2428 74.1455C37.0952 73.4218 37.1133 72.6741 37.2956 71.9583C38.6599 66.4797 42.0401 61.9361 47.0698 58.8201C51.534 56.0557 57.2168 54.5325 63.0729 54.5325C69.0441 54.5325 74.5778 55.9909 79.0679 58.7537C84.109 61.8535 87.494 66.423 88.8519 71.968C89.032 72.6843 89.048 73.432 88.8988 74.1554C88.7495 74.8787 88.4388 75.559 87.9899 76.1454C87.5679 76.6846 87.0281 77.12 86.4119 77.4183C85.7957 77.7166 85.1193 77.8698 84.4347 77.8663ZM32.4473 49.9954C26.7451 49.9954 21.7316 44.6934 21.2665 38.1778C21.0364 34.8398 22.0767 31.7529 24.1833 29.4892C26.2671 27.2482 29.2065 26.0134 32.4473 26.0134C35.6881 26.0134 38.6048 27.2546 40.7 29.5086C42.8228 31.7902 43.8598 34.8705 43.6167 38.181C43.1517 44.695 38.1398 49.9954 32.4473 49.9954ZM43.0869 55.0915C40.2366 53.698 36.5372 53.0012 32.4489 53.0012C27.6752 53.0012 23.0393 54.2457 19.3933 56.5045C15.2597 59.0696 12.4791 62.8047 11.3561 67.3142C11.1918 67.9629 11.1763 68.6403 11.3107 69.2958C11.4451 69.9513 11.726 70.5679 12.1323 71.0995C12.5179 71.5945 13.0118 71.9944 13.5762 72.2686C14.1406 72.5428 14.7603 72.6839 15.3877 72.681H33.3742C33.6778 72.681 33.9717 72.5744 34.2047 72.3798C34.4378 72.1853 34.5952 71.9151 34.6494 71.6164C34.6673 71.5143 34.6899 71.4122 34.7159 71.3118C36.09 65.7927 39.3097 61.1292 44.0672 57.7296C44.2422 57.6034 44.3829 57.4356 44.4767 57.2414C44.5704 57.0471 44.6142 56.8325 44.6041 56.617C44.594 56.4016 44.5302 56.192 44.4186 56.0074C44.3071 55.8228 44.1512 55.669 43.9651 55.5598C43.7107 55.4108 43.4191 55.2536 43.0869 55.0915Z" fill="white"/>
</g>

</g></symbol><symbol id="about-tab5" viewBox="0 0 99 99"><g fill="none">
<rect x="0.5" y="0.5" width="98" height="98" rx="9.5" fill="#080808"/>
<rect x="0.5" y="0.5" width="98" height="98" rx="9.5" stroke="url(#paint0_linear_266_34)"/>
<g filter="url(#filter0_d_266_34)">
<path d="M66.6091 19.485C66.6099 18.9938 66.4649 18.5133 66.1924 18.1046C65.9199 17.6958 65.5322 17.3772 65.0784 17.1891C64.6245 17.001 64.1251 16.9518 63.6433 17.0479C63.1616 17.144 62.7192 17.381 62.3722 17.7288L52.4499 27.651C52.2197 27.8818 52.0373 28.1557 51.913 28.4571C51.7887 28.7584 51.725 29.0813 51.7256 29.4073V43.2638L48.0494 46.935C47.314 46.7399 46.5436 46.7161 45.7976 46.8656C45.0515 47.0151 44.3498 47.3339 43.7464 47.7974C43.1429 48.2608 42.654 48.8566 42.3171 49.5389C41.9802 50.2211 41.8045 50.9716 41.8033 51.7324C41.8037 52.4385 41.9547 53.1363 42.2463 53.7793C42.5379 54.4223 42.9634 54.9957 43.4944 55.461C44.0253 55.9264 44.6495 56.2731 45.3252 56.4779C46.0009 56.6828 46.7125 56.741 47.4125 56.6488C48.1125 56.5566 48.7847 56.316 49.3843 55.9432C49.9838 55.5704 50.4969 55.0738 50.8892 54.4868C51.2816 53.8998 51.5441 53.2358 51.6592 52.5392C51.7743 51.8427 51.7395 51.1295 51.5569 50.4475L55.2332 46.7713H69.0896C69.4156 46.7719 69.7385 46.7082 70.0398 46.5839C70.3412 46.4596 70.6151 46.2772 70.8459 46.047L80.7682 36.1247C81.116 35.7777 81.3529 35.3354 81.449 34.8536C81.5451 34.3718 81.496 33.8724 81.3078 33.4186C81.1197 32.9647 80.8011 32.577 80.3924 32.3045C79.9836 32.032 79.5032 31.887 79.0119 31.8879H66.6091V19.485ZM76.2535 47.6544C77.1072 53.8318 75.9992 60.1214 73.0859 65.6352C70.1726 71.1491 65.6011 75.6087 60.0168 78.3845C54.4325 81.1604 48.1174 82.1123 41.963 81.1059C35.8086 80.0995 30.1257 77.1856 25.7165 72.7755C21.3073 68.3654 18.3945 62.682 17.3893 56.5274C16.3841 50.3727 17.3372 44.0579 20.1142 38.4741C22.8911 32.8904 27.3516 28.3198 32.866 25.4075C38.3804 22.4953 44.6702 21.3885 50.8475 22.2434L48.9474 24.1435C48.2556 24.8345 47.7067 25.655 47.3321 26.5582C46.9576 27.4614 46.7647 28.4295 46.7645 29.4073C42.349 29.4073 38.0326 30.7166 34.3613 33.1698C30.6899 35.6229 27.8285 39.1096 26.1387 43.189C24.449 47.2684 24.0069 51.7572 24.8683 56.0878C25.7297 60.4185 27.856 64.3965 30.9782 67.5187C34.1004 70.6409 38.0784 72.7672 42.4091 73.6286C46.7397 74.49 51.2286 74.0479 55.3079 72.3582C59.3873 70.6684 62.874 67.807 65.3272 64.1356C67.7803 60.4643 69.0896 56.1479 69.0896 51.7324C71.0626 51.7307 72.9542 50.9455 74.3484 49.5495L76.2535 47.6544ZM46.7645 34.3684C43.3302 34.3684 39.9731 35.3868 37.1176 37.2948C34.2621 39.2028 32.0365 41.9147 30.7222 45.0875C29.408 48.2604 29.0641 51.7517 29.7341 55.12C30.4041 58.4883 32.0579 61.5822 34.4863 64.0106C36.9147 66.439 40.0086 68.0928 43.3769 68.7628C46.7452 69.4328 50.2365 69.0889 53.4094 67.7747C56.5822 66.4604 59.2941 64.2348 61.2021 61.3793C63.1101 58.5239 64.1285 55.1667 64.1285 51.7324H57.2871L56.6669 52.3526C56.5477 54.2585 55.8809 56.0895 54.7467 57.6259C53.6126 59.1623 52.0591 60.3387 50.2729 61.014C48.4866 61.6894 46.5434 61.8349 44.6765 61.4331C42.8095 61.0313 41.0982 60.0994 39.7479 58.749C38.3976 57.3987 37.4656 55.6874 37.0638 53.8204C36.662 51.9535 36.8075 50.0103 37.4829 48.2241C38.1582 46.4378 39.3346 44.8843 40.871 43.7502C42.4074 42.616 44.2384 41.9493 46.1443 41.83L46.7645 41.2098V34.3684Z" fill="white"/>
</g>

</g></symbol><symbol id="about-tab6" viewBox="0 0 99 99"><g fill="none">
<rect x="0.5" y="0.5" width="98" height="98" rx="9.5" fill="#080808"/>
<rect x="0.5" y="0.5" width="98" height="98" rx="9.5" stroke="url(#paint0_linear_266_35)"/>
<g filter="url(#filter0_d_266_35)">
<path d="M76.693 20.3188H23.6261C22.3499 20.3188 21.3188 21.3499 21.3188 22.6261V75.693C21.3188 76.9692 22.3499 78.0002 23.6261 78.0002H76.693C77.9692 78.0002 79.0002 76.9692 79.0002 75.693V22.6261C79.0002 21.3499 77.9692 20.3188 76.693 20.3188ZM39.7769 65.8871C39.7769 66.2044 39.5173 66.4639 39.2001 66.4639H33.4319C33.1147 66.4639 32.8551 66.2044 32.8551 65.8871V32.4319C32.8551 32.1147 33.1147 31.8551 33.4319 31.8551H39.2001C39.5173 31.8551 39.7769 32.1147 39.7769 32.4319V65.8871ZM53.6204 45.6986C53.6204 46.0159 53.3608 46.2755 53.0436 46.2755H47.2755C46.9582 46.2755 46.6986 46.0159 46.6986 45.6986V32.4319C46.6986 32.1147 46.9582 31.8551 47.2755 31.8551H53.0436C53.3608 31.8551 53.6204 32.1147 53.6204 32.4319V45.6986ZM67.4639 50.89C67.4639 51.2072 67.2044 51.4668 66.8871 51.4668H61.119C60.8017 51.4668 60.5422 51.2072 60.5422 50.89V32.4319C60.5422 32.1147 60.8017 31.8551 61.119 31.8551H66.8871C67.2044 31.8551 67.4639 32.1147 67.4639 32.4319V50.89Z" fill="white"/>
</g>

</g></symbol><symbol id="button-arrow" viewBox="0 0 10 7"><g fill="none">
<path d="M1.27356 1.36255L4.95358 5.52257L8.6336 1.36255" stroke="white" stroke-width="0.960005" stroke-linecap="round"/>
</g></symbol><symbol id="faq-arrow" viewBox="0 0 37 37"><g fill="none">
                  <circle cx="18.2852" cy="18.2852" r="17.7474" stroke="url(#paint0_linear_467_585)" stroke-width="1.0756"/>
                  <path d="M17.7147 27.4603C18.0298 27.7754 18.5405 27.7754 18.8556 27.4603L23.9894 22.3265C24.3044 22.0115 24.3044 21.5007 23.9894 21.1857C23.6743 20.8706 23.1636 20.8706 22.8485 21.1857L18.2852 25.7491L13.7218 21.1857C13.4067 20.8706 12.896 20.8706 12.5809 21.1857C12.2659 21.5007 12.2659 22.0115 12.5809 22.3265L17.7147 27.4603ZM17.4785 10.2181L17.4785 26.8899L19.0919 26.8899L19.0919 10.2181L17.4785 10.2181Z" fill="white"/>
                  
                  </g></symbol><symbol id="logo" viewBox="0 0 167 53"><g fill="none">
<path fill-rule="evenodd" clip-rule="evenodd" d="M155.868 31.2466V44.6066H161.741C163.124 44.3592 165.888 43.0479 165.888 39.7821C165.83 38.3595 164.989 35.403 162.087 34.9577H157.941V31.2466H155.868ZM158.094 36.087V41.9928C158.094 42.2066 158.267 42.3799 158.481 42.3799H161.641C162.028 42.3799 162.407 42.2436 162.651 41.9447C163.116 41.3767 163.655 40.4506 163.655 39.3915C163.712 38.4058 163.384 36.3072 161.626 35.7182C161.589 35.7058 161.55 35.6999 161.511 35.6999H158.481C158.267 35.6999 158.094 35.8732 158.094 36.087Z" fill="#20B985"/>
<path fill-rule="evenodd" clip-rule="evenodd" d="M152.527 40.6165V36.3484C152.527 36.3174 152.524 36.2874 152.517 36.2571C152.211 34.8599 150.778 32.1949 147.388 32.3679C146.12 32.3679 143.379 32.3978 142.979 33.7436C142.969 33.7787 142.964 33.8157 142.967 33.8523C142.985 34.0603 143.107 34.3853 143.483 34.4438C143.563 34.4562 143.643 34.4304 143.716 34.3956C144.277 34.1278 145.464 33.8977 146.104 33.8977H148.194C148.228 33.8977 148.261 33.9013 148.294 33.9095C148.951 34.0738 150.172 34.6715 150.172 35.8646V36.9371C150.172 37.1897 149.967 37.3945 149.714 37.3945H145.929C145.05 37.3945 144.145 37.4403 143.362 37.8395C142.465 38.2968 141.593 39.146 141.394 40.8912C141.394 42.1297 142.079 44.6065 144.819 44.6065H148.537C150.741 44.6065 152.527 42.8201 152.527 40.6165ZM150.3 39.6423V42.8911C150.3 43.2238 150.03 43.4934 149.698 43.4934H145.119C145.077 43.4934 145.036 43.4823 145 43.4598C143.932 42.7794 142.523 41.0161 144.992 39.0883C145.031 39.0575 145.081 39.0401 145.131 39.0401H149.698C150.03 39.0401 150.3 39.3097 150.3 39.6423Z" fill="#20B985"/>
<path d="M13.36 50.1729V37.9263H0V44.0496V50.1729H13.36Z" fill="#2BA2B2"/>
<path d="M34.5123 13.4337V1.18701H21.1523V7.31035V13.4337H34.5123Z" fill="#20B985"/>
<path d="M1.11377 27.3495L13.3604 20.1128V34.5861L1.11377 27.3495Z" fill="#20B985"/>
<path d="M33.4004 27.3499L21.1537 20.1133V34.5866L33.4004 27.3499Z" fill="#2BA2B2"/>
<circle cx="7.79333" cy="7.86658" r="7.79333" fill="#2BA2B2"/>
<circle cx="27.8343" cy="44.6068" r="7.79333" fill="#20B985"/>
<path fill-rule="evenodd" clip-rule="evenodd" d="M55.6675 1.23015V51.287H72.6711C75.5051 51.287 79.0475 49.2013 79.0475 40.8585L78.339 8.18249C78.5752 5.6333 77.2054 0.673964 69.8372 1.23015H55.6675ZM64.5738 7.26727V44.4321C66.8005 44.8996 71.2538 44.7126 71.2538 40.2248V10.0722C71.0064 8.43598 69.324 5.58434 64.5738 7.26727Z" fill="#2BA2B2"/>
<path d="M89.6234 43.2802V37.6334C89.6234 35.3276 87.7542 33.4584 85.4484 33.4584C83.1426 33.4584 81.2734 35.3276 81.2734 37.6334V42.7208C81.2734 44.8897 82.0649 46.984 83.4992 48.6109L84.1806 49.3839C85.8714 51.3016 88.3048 52.4003 90.8615 52.4003H92.62C95.1421 52.4003 97.5459 51.3311 99.2348 49.4581L101.248 47.2251C102.724 45.5889 103.54 43.4639 103.54 41.2607V37.9659C103.54 35.9556 102.86 34.0045 101.611 32.4297L91.0886 19.1692C90.1398 17.9735 89.6234 16.492 89.6234 14.9655V9.5942C89.6234 8.82561 90.2465 8.20254 91.0151 8.20254C91.7837 8.20254 92.4068 8.82561 92.4068 9.5942V11.7103C92.4068 13.6476 93.9772 15.2181 95.9145 15.2181H96.5818C98.8876 15.2181 100.757 13.3489 100.757 11.0431V8.26126C100.757 6.42607 100.032 4.66521 98.7393 3.36224L98.6814 3.30385C97.3376 1.94906 95.5085 1.18701 93.6003 1.18701H89.6509C87.827 1.18701 86.0529 1.78225 84.5981 2.88233C82.5041 4.46575 81.2734 6.93921 81.2734 9.56449V14.313C81.2734 16.2652 81.9149 18.1634 83.0991 19.7155L93.3645 33.1703C94.5487 34.7224 95.1901 36.6206 95.1901 38.5728V40.1758C95.1901 42.1861 94.6601 44.6651 92.6738 44.9746C90.9431 45.2442 89.6234 43.7632 89.6234 43.2802Z" fill="#2BA2B2"/>
<path d="M103.542 8.14534V1.18701H124.695V8.14534H117.644V51.287H110.593V8.14534H103.542Z" fill="#2BA2B2"/>
<path d="M133.6 51.287V1.18701H140.463V46.1552H167V51.287H133.6Z" fill="#2BA2B2"/>
</g></symbol><symbol id="services-arrow" viewBox="0 0 18 14"><g fill="none">
<path d="M1 6.05609C0.478691 6.05609 0.0560867 6.47869 0.0560868 7C0.0560868 7.52131 0.478691 7.94391 1 7.94391L1 6.05609ZM17.242 7.66745C17.6106 7.29882 17.6106 6.70117 17.242 6.33255L11.235 0.325525C10.8664 -0.0430965 10.2687 -0.0430964 9.90009 0.325525C9.53147 0.694146 9.53147 1.2918 9.90009 1.66042L15.2397 7L9.90009 12.3396C9.53147 12.7082 9.53147 13.3059 9.90009 13.6745C10.2687 14.0431 10.8664 14.0431 11.235 13.6745L17.242 7.66745ZM1 7.94391L16.5746 7.94391L16.5746 6.05609L1 6.05609L1 7.94391Z" fill="currentColor"/>
</g></symbol><symbol id="telegram" viewBox="0 0 20 17"><g fill="none">
<path d="M19.4923 2.34785L16.6046 15.8799C16.3866 16.8348 15.8186 17.0726 15.0115 16.6229L10.6112 13.401L8.48836 15.4304C8.25329 15.664 8.05708 15.8589 7.60394 15.8589L7.92046 11.4063L16.075 4.08442C16.4297 3.77068 15.9977 3.5961 15.5241 3.91054L5.4428 10.2185L1.10277 8.86841C0.158898 8.57561 0.141811 7.93042 1.29962 7.48017L18.275 0.981354C19.061 0.688632 19.7486 1.15454 19.4923 2.34785Z" fill="#F3F1F9"/>
</g></symbol><symbol id="whatsApp" viewBox="0 0 19 20"><g fill="none">
<path d="M0.0432304 19.0564L1.28144 14.5064C0.465556 13.1077 0.0369023 11.517 0.0395631 9.89778C0.0395631 4.8395 4.13982 0.739258 9.19811 0.739258C14.2564 0.739258 18.3567 4.8395 18.3567 9.89778C18.3567 14.9561 14.2564 19.0564 9.19811 19.0564C7.57954 19.0589 5.98954 18.6306 4.59135 17.8154L0.0432304 19.0564ZM5.89282 5.6006C5.77448 5.608 5.65891 5.63912 5.55305 5.69222C5.45368 5.74845 5.36298 5.81878 5.28373 5.90104C5.17383 6.00446 5.11159 6.09423 5.04472 6.18123C4.70623 6.62177 4.52414 7.16248 4.52726 7.71801C4.52911 8.16688 4.6463 8.60371 4.82943 9.0122C5.20403 9.83832 5.8204 10.7129 6.63461 11.5234C6.83058 11.7185 7.02204 11.9145 7.22808 12.0968C8.2386 12.9865 9.4429 13.6281 10.745 13.9706L11.2661 14.0502C11.4355 14.0594 11.605 14.0467 11.7753 14.0383C12.042 14.0246 12.3024 13.9524 12.5382 13.8268C12.6902 13.7462 12.7617 13.706 12.889 13.6253C12.889 13.6253 12.9283 13.5996 13.0035 13.5428C13.1271 13.4513 13.2031 13.3863 13.3057 13.2791C13.3817 13.2004 13.4476 13.1079 13.4981 13.0026C13.5694 12.8532 13.6409 12.5684 13.6702 12.3313C13.6922 12.1499 13.6858 12.0509 13.6831 11.9896C13.6793 11.8916 13.5979 11.79 13.5091 11.7469L12.976 11.5079C12.976 11.5079 12.1792 11.1607 11.6929 10.9391C11.6416 10.9167 11.5867 10.904 11.5308 10.9016C11.4681 10.8951 11.4048 10.9022 11.345 10.9222C11.2853 10.9423 11.2306 10.9749 11.1846 11.0179V11.016C11.1801 11.016 11.1186 11.0683 10.4564 11.8706C10.4185 11.9216 10.3661 11.9602 10.306 11.9814C10.2461 12.0026 10.1811 12.0055 10.1194 11.9896C10.0597 11.9737 10.0013 11.9534 9.94452 11.9291C9.83091 11.8816 9.79158 11.8632 9.71373 11.8293L9.7091 11.8276C9.18515 11.5987 8.70008 11.2897 8.27123 10.9117C8.15589 10.8109 8.04865 10.701 7.93874 10.5948C7.5785 10.2497 7.26452 9.85937 7.00457 9.43342L6.95055 9.34642C6.91179 9.288 6.88044 9.22495 6.85719 9.15866C6.82237 9.02412 6.91306 8.91595 6.91306 8.91595C6.91306 8.91595 7.13565 8.67243 7.23907 8.54054C7.32526 8.43087 7.40566 8.31692 7.47993 8.19892C7.58798 8.02493 7.62188 7.84631 7.56508 7.70795C7.30871 7.0815 7.0431 6.45784 6.77019 5.83868C6.71617 5.71605 6.55582 5.62813 6.41029 5.61066C6.36078 5.60523 6.31138 5.59967 6.26186 5.59609C6.13889 5.58996 6.01557 5.59204 5.89282 5.6006Z" fill="#F3F1F9"/>
</g></symbol></svg>