<svg width="65" height="67" viewBox="0 0 65 67" fill="none" xmlns="http://www.w3.org/2000/svg">
<path d="M27.2377 30.1576C24.3213 30.1576 21.4704 29.2928 19.0455 27.6725C16.6206 26.0523 14.7306 23.7493 13.6146 21.0549C12.4985 18.3605 12.2065 15.3957 12.7755 12.5353C13.3444 9.67499 14.7488 7.04759 16.811 4.98538C18.8732 2.92318 21.5006 1.5188 24.361 0.949842C27.2214 0.380882 30.1862 0.672893 32.8806 1.78895C35.575 2.905 37.8779 4.79498 39.4982 7.21987C41.1185 9.64477 41.9833 12.4957 41.9833 15.4121C41.9833 19.3228 40.4297 23.0734 37.6644 25.8387C34.8991 28.6041 31.1485 30.1576 27.2377 30.1576ZM27.2377 5.04805C25.1546 5.04805 23.1182 5.66577 21.3861 6.8231C19.6541 7.98043 18.3041 9.62539 17.5069 11.55C16.7097 13.4745 16.5012 15.5923 16.9076 17.6354C17.314 19.6785 18.3171 21.5552 19.7901 23.0282C21.2631 24.5012 23.1398 25.5043 25.1829 25.9107C27.226 26.3171 29.3438 26.1086 31.2683 25.3114C33.1929 24.5142 34.8379 23.1642 35.9952 21.4322C37.1525 19.7001 37.7702 17.6637 37.7702 15.5806C37.7702 14.1974 37.4978 12.8278 36.9685 11.55C36.4392 10.2721 35.6634 9.11099 34.6853 8.13296C33.7073 7.15492 32.5462 6.3791 31.2683 5.84979C29.9905 5.32048 28.6209 5.04805 27.2377 5.04805ZM38.971 32.7065C27.5714 30.1414 15.6457 31.3768 5.01405 36.2244C3.55192 36.9228 2.31828 38.0222 1.45679 39.3946C0.595309 40.767 0.141434 42.3559 0.14802 43.9763V56.51C0.14802 56.7867 0.202507 57.0606 0.308369 57.3162C0.41423 57.5717 0.569394 57.804 0.765002 57.9996C0.960609 58.1952 1.19283 58.3503 1.4484 58.4562C1.70398 58.5621 1.9779 58.6165 2.25453 58.6165C2.53116 58.6165 2.80508 58.5621 3.06065 58.4562C3.31623 58.3503 3.54845 58.1952 3.74405 57.9996C3.93966 57.804 4.09482 57.5717 4.20069 57.3162C4.30655 57.0606 4.36104 56.7867 4.36104 56.51V43.9763C4.34269 43.1562 4.56414 42.3487 4.99821 41.6527C5.43228 40.9567 6.06008 40.4025 6.80458 40.0582C13.2089 37.1011 20.1837 35.5839 27.2377 35.6135C31.1902 35.6084 35.1291 36.0752 38.971 37.0038V32.7065ZM39.2659 52.7394H52.1998V55.6885H39.2659V52.7394Z" fill="white"/>
<path d="M62.5013 40.2267H51.6106V44.4397H60.3947V62.0712H30.5455V44.4397H43.8165V45.3245C43.8165 45.8832 44.0385 46.419 44.4335 46.814C44.8286 47.209 45.3644 47.431 45.923 47.431C46.4817 47.431 47.0175 47.209 47.4126 46.814C47.8076 46.419 48.0295 45.8832 48.0295 45.3245V37.1302C48.0295 36.5715 47.8076 36.0357 47.4126 35.6406C47.0175 35.2456 46.4817 35.0237 45.923 35.0237C45.3644 35.0237 44.8286 35.2456 44.4335 35.6406C44.0385 36.0357 43.8165 36.5715 43.8165 37.1302V40.2267H28.439C27.8803 40.2267 27.3445 40.4487 26.9495 40.8437C26.5545 41.2388 26.3325 41.7746 26.3325 42.3332V64.1777C26.3325 64.7364 26.5545 65.2722 26.9495 65.6672C27.3445 66.0623 27.8803 66.2842 28.439 66.2842H62.5013C63.0599 66.2842 63.5957 66.0623 63.9908 65.6672C64.3858 65.2722 64.6078 64.7364 64.6078 64.1777V42.3332C64.6078 41.7746 64.3858 41.2388 63.9908 40.8437C63.5957 40.4487 63.0599 40.2267 62.5013 40.2267Z" fill="white"/>
</svg>
