<svg width="463" height="253" viewBox="0 0 463 253" fill="none" xmlns="http://www.w3.org/2000/svg">
<path d="M83.8012 191.024C61.5508 174.721 57.5149 152.668 69.4288 130.049C81.335 107.444 109.117 84.4258 150.025 66.409C190.932 48.3923 237.096 38.8423 278.6 37.9237C320.131 37.0044 356.723 44.7189 378.973 61.0216C401.224 77.3243 405.26 99.3771 393.346 121.997C381.439 144.602 353.657 167.62 312.75 185.636C271.843 203.653 225.679 213.203 184.174 214.122C142.643 215.041 106.052 207.327 83.8012 191.024Z" stroke="white" stroke-width="2.83245"/>
<circle cx="376.225" cy="58.7834" r="8.49735" fill="white"/>
<circle cx="369.144" cy="150.839" r="7.08113" fill="white"/>
<circle cx="270.717" cy="38.2477" r="4.95679" fill="white"/>
<circle cx="172.499" cy="58.1988" r="3.49141" fill="white"/>
<circle cx="363.837" cy="68.339" r="5.30711" fill="white"/>
<circle cx="353.776" cy="76.276" r="4.03836" fill="white"/>
</svg>
