<svg width="100" height="106" viewBox="0 0 100 106" fill="none" xmlns="http://www.w3.org/2000/svg">
<path d="M87.9225 23.4462L85.3527 14.2928L76.1994 11.7231L85.3527 9.15339L87.9225 7.15968e-05L90.4922 9.15339L99.6455 11.7231L90.4922 14.2928L87.9225 23.4462Z" fill="white"/>
<path d="M87.9225 50.7999L85.3527 41.6465L76.1994 39.0768L85.3527 36.5071L87.9225 27.3538L90.4922 36.5071L99.6455 39.0768L90.4922 41.6465L87.9225 50.7999Z" fill="white"/>
<path d="M87.9225 78.1536L85.3527 69.0002L76.1994 66.4305L85.3527 63.8608L87.9225 54.7075L90.4922 63.8608L99.6455 66.4305L90.4922 69.0002L87.9225 78.1536Z" fill="white"/>
<path d="M62.523 23.4462L59.9533 14.2928L50.8 11.7231L59.9533 9.15339L62.523 7.15968e-05L65.0928 9.15339L74.2461 11.7231L65.0928 14.2928L62.523 23.4462Z" fill="white"/>
<path d="M62.523 50.7999L59.9533 41.6466L50.8 39.0769L59.9533 36.5072L62.523 27.3538L65.0928 36.5072L74.2461 39.0769L65.0928 41.6466L62.523 50.7999Z" fill="white"/>
<path d="M62.523 78.1536L59.9533 69.0002L50.8 66.4305L59.9533 63.8608L62.523 54.7075L65.0928 63.8608L74.2461 66.4305L65.0928 69.0002L62.523 78.1536Z" fill="white"/>
<path d="M62.523 105.507L59.9533 96.354L50.8 93.7843L59.9533 91.2145L62.523 82.0612L65.0928 91.2145L74.2461 93.7843L65.0928 96.354L62.523 105.507Z" fill="white"/>
<path d="M37.1227 23.4462L34.5529 14.2928L25.3996 11.7231L34.5529 9.15339L37.1227 7.15968e-05L39.6924 9.15339L48.8457 11.7231L39.6924 14.2928L37.1227 23.4462Z" fill="white"/>
<path d="M37.1227 50.7999L34.5529 41.6465L25.3996 39.0768L34.5529 36.5071L37.1227 27.3538L39.6924 36.5071L48.8457 39.0768L39.6924 41.6465L37.1227 50.7999Z" fill="white"/>
<path d="M11.7232 50.7999L9.15351 41.6466L0.000191617 39.0769L9.15351 36.5072L11.7232 27.3538L14.293 36.5072L23.4463 39.0769L14.293 41.6466L11.7232 50.7999Z" fill="white"/>
</svg>
