<svg width="121" height="39" viewBox="0 0 121 39" fill="none" xmlns="http://www.w3.org/2000/svg">
<path fill-rule="evenodd" clip-rule="evenodd" d="M112.934 23.5508V33.2308H117.19C118.192 33.0515 120.194 32.1014 120.194 29.7352C120.153 28.7045 119.543 26.5623 117.441 26.2397H114.436V23.5508H112.934ZM114.547 27.0566V31.3357C114.547 31.4906 114.673 31.6162 114.827 31.6162H117.117C117.397 31.6162 117.672 31.5174 117.849 31.3008C118.185 30.8893 118.576 30.2183 118.576 29.4509C118.617 28.7367 118.38 27.2162 117.106 26.7894C117.079 26.7804 117.051 26.7762 117.022 26.7762H114.827C114.673 26.7762 114.547 26.9017 114.547 27.0566Z" fill="#20B985"/>
<path fill-rule="evenodd" clip-rule="evenodd" d="M110.514 30.3393V27.2468C110.514 27.2244 110.512 27.2026 110.507 27.1806C110.285 26.1683 109.246 24.2374 106.791 24.3627C105.872 24.3628 103.886 24.3844 103.596 25.3595C103.588 25.385 103.585 25.4118 103.587 25.4383C103.6 25.589 103.689 25.8245 103.961 25.8668C104.019 25.8758 104.077 25.8572 104.13 25.8319C104.537 25.6379 105.396 25.4712 105.86 25.4712H107.374C107.399 25.4712 107.423 25.4738 107.447 25.4798C107.923 25.5988 108.808 26.0318 108.808 26.8963V27.6734C108.808 27.8564 108.659 28.0048 108.476 28.0048H105.733C105.096 28.0048 104.441 28.0379 103.873 28.3272C103.223 28.6586 102.592 29.2738 102.447 30.5383C102.447 31.4357 102.944 33.2303 104.929 33.2303H107.623C109.22 33.2303 110.514 31.9359 110.514 30.3393ZM108.9 29.6333V31.9872C108.9 32.2282 108.704 32.4236 108.463 32.4236H105.146C105.115 32.4236 105.086 32.4155 105.06 32.3992C104.286 31.9062 103.265 30.6287 105.054 29.2319C105.082 29.2095 105.119 29.1969 105.155 29.1969H108.463C108.704 29.1969 108.9 29.3923 108.9 29.6333Z" fill="#20B985"/>
<path d="M9.68 37.263V28.3896H0V32.8263V37.263H9.68Z" fill="#2BA2B2"/>
<path d="M25.0064 10.6443V1.771H15.3264V6.20766V10.6443H25.0064Z" fill="#20B985"/>
<path d="M0.806885 20.7262L9.68022 15.4829V25.9696L0.806885 20.7262Z" fill="#20B985"/>
<path d="M24.2002 20.7267L15.3269 15.4834L15.3269 25.9701L24.2002 20.7267Z" fill="#2BA2B2"/>
<circle cx="5.64667" cy="6.61005" r="5.64667" fill="#2BA2B2"/>
<circle cx="20.1674" cy="33.2302" r="5.64667" fill="#20B985"/>
<path fill-rule="evenodd" clip-rule="evenodd" d="M40.3335 1.80225V38.071H52.6535C54.7068 38.071 57.2735 36.5598 57.2735 30.515L56.7602 6.83958C56.9313 4.99256 55.9388 1.39927 50.6002 1.80225H40.3335ZM46.787 6.17651V33.1043C48.4003 33.443 51.627 33.3076 51.627 30.0559V8.2088C51.4477 7.0233 50.2287 4.95714 46.787 6.17651Z" fill="#2BA2B2"/>
<path d="M64.937 32.2696V28.1783C64.937 26.5076 63.5826 25.1533 61.912 25.1533C60.2413 25.1533 58.887 26.5076 58.887 28.1783V31.8643C58.887 33.4358 59.4604 34.9533 60.4996 36.132L60.9934 36.6921C62.2184 38.0816 63.9816 38.8777 65.834 38.8777H67.1081C68.9355 38.8777 70.6772 38.103 71.9009 36.7458L73.3597 35.1279C74.4287 33.9424 75.0203 32.4027 75.0203 30.8064V28.4192C75.0203 26.9626 74.5276 25.5489 73.6222 24.4079L65.9986 14.8C65.3111 13.9337 64.937 12.8602 64.937 11.7542V7.86243C64.937 7.30555 65.3884 6.8541 65.9453 6.8541C66.5022 6.8541 66.9536 7.30555 66.9536 7.86244V9.39565C66.9536 10.7993 68.0915 11.9372 69.4952 11.9372H69.9786C71.6493 11.9372 73.0036 10.5829 73.0036 8.91221V6.89665C73.0036 5.56696 72.4782 4.29113 71.5418 3.34706L71.4999 3.30475C70.5263 2.32314 69.201 1.771 67.8184 1.771H64.9569C63.6354 1.771 62.3499 2.20228 61.2959 2.99934C59.7786 4.14661 58.887 5.93876 58.887 7.84091V11.2814C58.887 12.6959 59.3517 14.0713 60.2097 15.1959L67.6475 24.9445C68.5055 26.0691 68.9703 27.4444 68.9703 28.8589V30.0204C68.9703 31.4769 68.5863 33.2731 67.1471 33.4973C65.8931 33.6927 64.937 32.6196 64.937 32.2696Z" fill="#2BA2B2"/>
<path d="M75.021 6.81266V1.771H90.3477V6.81266H85.2388V38.071H80.1299V6.81266H75.021Z" fill="#2BA2B2"/>
<path d="M96.7998 38.071V1.771H101.772V34.3527H121V38.071H96.7998Z" fill="#2BA2B2"/>
</svg>
