<svg width="151" height="48" viewBox="0 0 151 48" fill="none" xmlns="http://www.w3.org/2000/svg">
<path fill-rule="evenodd" clip-rule="evenodd" d="M140.934 28.188V40.268H146.245C147.495 40.0443 149.994 38.8587 149.994 35.9058C149.942 34.6195 149.182 31.9462 146.558 31.5435H142.809V28.188H140.934ZM142.947 32.5631V37.9031C142.947 38.0964 143.103 38.2531 143.297 38.2531H146.154C146.503 38.2531 146.847 38.1299 147.067 37.8596C147.487 37.346 147.975 36.5086 147.975 35.551C148.026 34.6598 147.73 32.7622 146.14 32.2296C146.107 32.2184 146.071 32.2131 146.036 32.2131H143.297C143.103 32.2131 142.947 32.3698 142.947 32.5631Z" fill="#20B985"/>
<path fill-rule="evenodd" clip-rule="evenodd" d="M137.914 36.6595V32.8003C137.914 32.7722 137.911 32.7451 137.905 32.7177C137.628 31.4544 136.332 29.0447 133.268 29.2011C132.121 29.2011 129.643 29.2281 129.281 30.445C129.271 30.4768 129.267 30.5102 129.27 30.5433C129.286 30.7314 129.397 31.0253 129.737 31.0781C129.809 31.0893 129.881 31.0661 129.947 31.0345C130.455 30.7924 131.528 30.5844 132.106 30.5844H133.996C134.027 30.5844 134.057 30.5876 134.087 30.5951C134.68 30.7436 135.784 31.284 135.784 32.3628V33.3326C135.784 33.561 135.599 33.7461 135.371 33.7461H131.948C131.153 33.7461 130.335 33.7875 129.627 34.1485C128.816 34.562 128.027 35.3298 127.847 36.9078C127.847 38.0276 128.467 40.2672 130.945 40.2672H134.306C136.299 40.2672 137.914 38.6519 137.914 36.6595ZM135.9 35.7782V38.7157C135.9 39.0165 135.656 39.2603 135.355 39.2603H131.215C131.177 39.2603 131.14 39.2503 131.108 39.2299C130.142 38.6147 128.868 37.0204 131.1 35.2773C131.136 35.2494 131.181 35.2336 131.226 35.2336H135.355C135.656 35.2336 135.9 35.4774 135.9 35.7782Z" fill="#20B985"/>
<path d="M12.08 45.2999V34.2266H0V39.7632V45.2999H12.08Z" fill="#2BA2B2"/>
<path d="M31.2062 12.0811V1.00781H19.1262V6.54448V12.0811H31.2062Z" fill="#20B985"/>
<path d="M1.00696 24.663L12.0803 18.1196V31.2063L1.00696 24.663Z" fill="#20B985"/>
<path d="M30.2001 24.6635L19.1267 18.1201V31.2068L30.2001 24.6635Z" fill="#2BA2B2"/>
<circle cx="7.04667" cy="7.04667" r="7.04667" fill="#2BA2B2"/>
<circle cx="25.1676" cy="40.2669" r="7.04667" fill="#20B985"/>
<path fill-rule="evenodd" clip-rule="evenodd" d="M50.3337 1.04682V46.3078H65.7083C68.2707 46.3078 71.4737 44.4219 71.4737 36.8784L70.8331 7.33307C71.0467 5.02811 69.8082 0.54392 63.1459 1.04682H50.3337ZM58.3872 6.5058V40.1099C60.4006 40.5326 64.4272 40.3635 64.4272 36.3057V9.04196C64.2035 7.56253 62.6823 4.9841 58.3872 6.5058Z" fill="#2BA2B2"/>
<path d="M81.0371 39.0681V33.9624C81.0371 31.8775 79.3469 30.1874 77.2621 30.1874C75.1772 30.1874 73.4871 31.8775 73.4871 33.9624V38.5623C73.4871 40.5234 74.2026 42.4171 75.4996 43.8881L76.1157 44.587C77.6445 46.321 79.8448 47.3145 82.1565 47.3145H83.7465C86.027 47.3145 88.2005 46.3477 89.7275 44.6541L91.5481 42.6351C92.8821 41.1556 93.6204 39.2342 93.6204 37.2421V34.263C93.6204 32.4453 93.0055 30.6811 91.8757 29.2572L82.3619 17.2672C81.504 16.186 81.0371 14.8464 81.0371 13.4662V8.60953C81.0371 7.91457 81.6004 7.35119 82.2954 7.35119C82.9904 7.35119 83.5537 7.91457 83.5537 8.60952V10.5229C83.5537 12.2746 84.9737 13.6946 86.7254 13.6946H87.3287C89.4136 13.6946 91.1037 12.0044 91.1037 9.91957V7.40429C91.1037 5.74492 90.4481 4.15277 89.2795 2.97463L89.2272 2.92184C88.0121 1.69685 86.3582 1.00781 84.6329 1.00781H81.0619C79.4127 1.00781 77.8086 1.54602 76.4932 2.54071C74.5998 3.97242 73.4871 6.2089 73.4871 8.58266V12.8762C73.4871 14.6414 74.067 16.3578 75.1378 17.7612L84.4197 29.9268C85.4904 31.3302 86.0704 33.0465 86.0704 34.8117V36.2612C86.0704 38.0788 85.5912 40.3203 83.7952 40.6001C82.2303 40.844 81.0371 39.5049 81.0371 39.0681Z" fill="#2BA2B2"/>
<path d="M93.6212 7.29948V1.00781H112.748V7.29948H106.372V46.3078H99.9968V7.29948H93.6212Z" fill="#2BA2B2"/>
<path d="M120.8 46.3078V1.00781H127.005V41.6677H151V46.3078H120.8Z" fill="#2BA2B2"/>
</svg>
