<svg width="60" height="64" viewBox="0 0 60 64" fill="none" xmlns="http://www.w3.org/2000/svg">
<g filter="url(#filter0_i_198_63)">
<path d="M7.05882 49.4116L8.60614 54.9231L14.1176 56.4704L8.60614 58.0178L7.05882 63.5293L5.51151 58.0178L0 56.4704L5.51151 54.9231L7.05882 49.4116Z" fill="white"/>
<path d="M7.05882 32.9414L8.60614 38.4529L14.1176 40.0002L8.60614 41.5475L7.05882 47.0591L5.51151 41.5475L0 40.0002L5.51151 38.4529L7.05882 32.9414Z" fill="white"/>
<path d="M7.05882 16.4702L8.60614 21.9817L14.1176 23.529L8.60614 25.0764L7.05882 30.5879L5.51151 25.0764L0 23.529L5.51151 21.9817L7.05882 16.4702Z" fill="white"/>
<path d="M22.3528 49.4116L23.9001 54.9231L29.4116 56.4704L23.9001 58.0178L22.3528 63.5293L20.8055 58.0178L15.2939 56.4704L20.8055 54.9231L22.3528 49.4116Z" fill="white"/>
<path d="M22.3528 32.9414L23.9001 38.4529L29.4116 40.0002L23.9001 41.5475L22.3528 47.0591L20.8055 41.5475L15.2939 40.0002L20.8055 38.4529L22.3528 32.9414Z" fill="white"/>
<path d="M22.3528 16.4702L23.9001 21.9817L29.4116 23.529L23.9001 25.0764L22.3528 30.5879L20.8055 25.0764L15.2939 23.529L20.8055 21.9817L22.3528 16.4702Z" fill="white"/>
<path d="M22.3528 0L23.9001 5.51151L29.4116 7.05882L23.9001 8.60614L22.3528 14.1176L20.8055 8.60614L15.2939 7.05882L20.8055 5.51151L22.3528 0Z" fill="white"/>
<path d="M37.6472 49.4116L39.1945 54.9231L44.706 56.4704L39.1945 58.0178L37.6472 63.5293L36.0999 58.0178L30.5884 56.4704L36.0999 54.9231L37.6472 49.4116Z" fill="white"/>
<path d="M37.6472 32.9414L39.1945 38.4529L44.706 40.0002L39.1945 41.5475L37.6472 47.0591L36.0999 41.5475L30.5884 40.0002L36.0999 38.4529L37.6472 32.9414Z" fill="white"/>
<path d="M52.9411 32.9414L54.4885 38.4529L60 40.0002L54.4885 41.5475L52.9411 47.0591L51.3938 41.5475L45.8823 40.0002L51.3938 38.4529L52.9411 32.9414Z" fill="white"/>
</g>
<defs>
<filter id="filter0_i_198_63" x="0" y="0" width="60" height="63.5293" filterUnits="userSpaceOnUse" color-interpolation-filters="sRGB">
<feFlood flood-opacity="0" result="BackgroundImageFix"/>
<feBlend mode="normal" in="SourceGraphic" in2="BackgroundImageFix" result="shape"/>
<feColorMatrix in="SourceAlpha" type="matrix" values="0 0 0 0 0 0 0 0 0 0 0 0 0 0 0 0 0 0 127 0" result="hardAlpha"/>
<feOffset/>
<feGaussianBlur stdDeviation="1.28863"/>
<feComposite in2="hardAlpha" operator="arithmetic" k2="-1" k3="1"/>
<feColorMatrix type="matrix" values="0 0 0 0 0.12549 0 0 0 0 0.72549 0 0 0 0 0.521569 0 0 0 1 0"/>
<feBlend mode="normal" in2="shape" result="effect1_innerShadow_198_63"/>
</filter>
</defs>
</svg>
