<svg width="241" height="60" viewBox="0 0 241 60" fill="none" xmlns="http://www.w3.org/2000/svg">
<g clip-path="url(#clip0_266_60)">
<path d="M39.4704 37.5705L43.0061 24.9411H59.6025L63.1447 37.5705H39.4704ZM55.2769 9.52236L57.7669 18.3295H44.8682L47.3199 9.52236H55.2769ZM48.0602 6.90767L49.7867 0.731848H52.8283L54.5451 6.90767H48.0602ZM212.501 27.7671C214.774 30.0257 217.592 31.1569 220.954 31.1569C224.315 31.1569 227.13 30.0257 229.408 27.7671C231.68 25.5066 232.817 22.6275 232.817 19.1229C232.817 15.6217 231.68 12.7309 229.408 10.4538C227.13 8.17841 224.315 7.04072 220.954 7.04072C217.592 7.04072 214.774 8.17841 212.501 10.4538C210.221 12.7309 209.085 15.6217 209.085 19.1229C209.085 22.6275 210.221 25.5066 212.501 27.7671ZM234.5 32.7038C230.788 36.4012 226.275 38.2491 220.954 38.2491C215.634 38.2491 211.125 36.4012 207.433 32.7038C203.737 29.0094 201.892 24.4821 201.892 19.1229C201.892 13.7638 203.737 9.23792 207.433 5.54209C211.125 1.84625 215.634 0 220.954 0C226.275 0 230.788 1.84625 234.5 5.54209C238.209 9.23792 240.065 13.7638 240.065 19.1229C240.065 24.4821 238.209 29.0094 234.5 32.7038ZM197.923 17.7573V20.5933C197.923 25.8493 196.247 30.1056 192.883 33.3608C189.523 36.6191 185.183 38.2491 179.863 38.2491C174.191 38.2491 169.492 36.4012 165.761 32.7038C162.039 29.0094 160.172 24.5019 160.172 19.1777C160.172 13.8153 162.017 9.28284 165.713 5.56871C169.406 1.85457 173.984 0 179.44 0C182.871 0 186.005 0.778421 188.84 2.33692C189.994 2.97064 191.042 3.68919 191.985 4.49256C192.092 4.58404 192.362 4.82355 192.362 4.82355L187.385 9.88162C187.385 9.88162 187.159 9.68869 187.081 9.62715C186.547 9.19802 185.953 8.80881 185.297 8.45784C183.526 7.51144 181.561 7.04072 179.392 7.04072C175.889 7.04072 173.009 8.18674 170.752 10.4804C168.496 12.7758 167.364 15.6732 167.364 19.1777C167.364 22.6425 168.512 25.5066 170.807 27.7671C173.095 30.0257 176.132 31.1569 179.915 31.1569C182.714 31.1569 185.036 30.5331 186.871 29.2907C188.711 28.0481 189.962 26.34 190.627 24.1676H179.494V17.7573H197.923ZM142.343 28.4107C143.689 28.4107 144.897 28.0847 145.96 27.4376L140.084 21.054C140.033 21.0007 140.01 20.9625 140.01 20.9376C138.581 21.819 137.869 23.0782 137.869 24.7132C137.869 25.8293 138.249 26.7242 139.015 27.3977C139.78 28.0731 140.887 28.4107 142.343 28.4107ZM156.071 31.2516L151.793 33.705L149.304 31.0187C147.202 32.574 144.763 33.3523 141.989 33.3523C139.19 33.3523 136.902 32.6205 135.126 31.1535C133.348 29.6882 132.463 27.7221 132.463 25.2572C132.463 23.6486 132.853 22.1567 133.629 20.7812C134.407 19.4074 135.534 18.2912 137.014 17.433C136.131 16.0325 135.691 14.5139 135.691 12.8789C135.691 10.5702 136.492 8.68404 138.1 7.21536C139.708 5.75168 141.745 5.01816 144.207 5.01816C146.151 5.01816 147.896 5.51715 149.441 6.51679C150.984 7.51476 152.131 8.96183 152.884 10.8547L148.292 13.5026C147.539 11.3237 146.204 10.2326 144.287 10.2326C143.352 10.2326 142.579 10.507 141.969 11.0509C141.36 11.5965 141.059 12.2834 141.059 13.1134C141.059 13.8403 141.232 14.5023 141.581 15.0977C141.933 15.6948 142.495 16.4101 143.273 17.2384L149.11 23.6237C149.68 22.4046 150.122 20.8993 150.434 19.1079L154.946 21.6776C154.452 23.7784 153.662 25.6845 152.572 27.3977L156.071 31.2516ZM115.027 38.2491C111.384 38.2491 108.326 37.434 105.836 35.8041C103.353 34.1756 101.603 31.9601 100.587 29.1593L106.784 25.5332C108.218 29.2822 111.037 31.1569 115.237 31.1569C117.267 31.1569 118.756 30.7892 119.703 30.0523C120.645 29.3188 121.117 28.3892 121.117 27.2664C121.117 25.9723 120.542 24.9643 119.384 24.2475C118.231 23.529 116.164 22.7488 113.191 21.9073C111.547 21.4166 110.15 20.9293 109.013 20.4369C107.876 19.9479 106.74 19.2892 105.603 18.4659C104.466 17.6442 103.595 16.603 103.006 15.3422C102.411 14.0798 102.113 12.6094 102.113 10.9278C102.113 7.60125 103.291 4.94829 105.652 2.96732C108.017 0.989655 110.859 0 114.188 0C117.165 0 119.779 0.72852 122.036 2.18057C124.293 3.63429 126.052 5.65686 127.313 8.24661L121.224 11.7661C119.752 8.6142 117.408 7.04072 114.188 7.04072C112.684 7.04072 111.503 7.38004 110.642 8.06364C109.788 8.74727 109.355 9.63047 109.355 10.7183C109.355 11.8726 109.836 12.8107 110.799 13.5259C111.762 14.2461 113.609 15.0245 116.342 15.8678C117.462 16.2155 118.307 16.4882 118.885 16.6812C119.465 16.8724 120.25 17.1719 121.251 17.5727C122.247 17.9752 123.015 18.3545 123.562 18.7037C124.104 19.0547 124.727 19.5253 125.424 20.1225C126.123 20.7163 126.658 21.33 127.027 21.9621C127.394 22.5909 127.708 23.3542 127.974 24.2475C128.233 25.1391 128.364 26.1103 128.364 27.1633C128.364 30.5597 127.129 33.2576 124.661 35.2536C122.193 37.2512 118.982 38.2491 115.027 38.2491ZM77.0743 7.51144V18.3877H84.5325C85.8971 18.3877 87.0718 17.8538 88.05 16.7843C89.0314 15.7165 89.5221 14.4307 89.5221 12.9255C89.5221 11.4185 89.0314 10.1411 88.05 9.08824C87.0718 8.03704 85.8971 7.51144 84.5325 7.51144H77.0743ZM89.9946 37.5705L82.5894 24.7464H77.0743V37.5705H69.8312V0.735171H84.5325C87.9261 0.735171 90.8175 1.92609 93.1982 4.30626C95.574 6.68811 96.7654 9.56061 96.7654 12.9255C96.7654 15.2025 96.1209 17.3116 94.8223 19.2544C93.5285 21.1987 91.812 22.6624 89.6807 23.6421L97.8144 37.5705H89.9946ZM19.1781 38.2491C13.6465 38.2491 9.07818 36.4095 5.47308 32.7319C1.86798 29.0528 0.0654297 24.5169 0.0654297 19.1229C0.0654297 13.6956 1.86798 9.14978 5.47308 5.48888C9.07818 1.83128 13.6465 0 19.1781 0C22.5056 0 25.5754 0.778421 28.3957 2.33692C31.2094 3.89542 33.4069 6.00782 34.983 8.66908L28.7361 12.2934C27.8272 10.6467 26.5337 9.36101 24.8501 8.43124C23.1714 7.50311 21.2781 7.04072 19.1781 7.04072C15.611 7.04072 12.7312 8.16011 10.5453 10.4022C8.35285 12.6444 7.25911 15.5518 7.25911 19.1229C7.25911 22.6624 8.35285 25.5516 10.5453 27.792C12.7312 30.0341 15.611 31.1569 19.1781 31.1569C21.2781 31.1569 23.178 30.6911 24.8766 29.7613C26.5766 28.8366 27.8587 27.5657 28.7361 25.9541L34.983 29.58C33.4069 32.2414 31.221 34.3521 28.4222 35.9106C25.6183 37.4691 22.5386 38.2491 19.1781 38.2491ZM226.28 49.6376H229.654V50.9417H226.28V49.6376ZM229.526 59.8371V54.8655L226.035 59.8371H224.814V51.6868H226.419V56.67L229.909 51.6868H231.131V59.8371H229.526ZM217.875 58.3001H221.308V59.8371H216.27V51.6868H221.25V53.2238H217.875V54.9585H220.959V56.4722H217.875V58.3001ZM205.492 59.8371V58.3466C205.972 58.4166 206.334 58.32 206.574 58.0556C206.814 57.7911 206.934 57.2754 206.934 56.5071V51.6868H212.473V59.8371H210.879V53.2238H208.528V56.4606C208.528 57.1658 208.442 57.7596 208.273 58.2418C208.102 58.7226 207.868 59.0801 207.568 59.313C207.272 59.5459 206.953 59.7006 206.615 59.7788C206.276 59.8553 205.903 59.8753 205.492 59.8371ZM200.732 59.8371V54.8655L197.24 59.8371H196.02V51.6868H197.625V56.67L201.114 51.6868H202.337V59.8371H200.732ZM190.02 58.335C190.337 58.335 190.601 58.2435 190.811 58.0607C191.021 57.8777 191.126 57.6248 191.126 57.2989C191.126 56.9728 191.021 56.7201 190.811 56.5419C190.601 56.3623 190.337 56.2742 190.02 56.2742H188.509V58.335H190.02ZM190.02 54.7723C190.811 54.7723 191.46 55.0069 191.964 55.4758C192.469 55.9466 192.72 56.5536 192.72 57.2989C192.72 58.0506 192.469 58.6628 191.964 59.1317C191.46 59.6025 190.811 59.8371 190.02 59.8371H186.903V51.6868H192.022V53.2238H188.509V54.7723H190.02ZM177.434 57.6763C177.938 58.1769 178.564 58.4282 179.308 58.4282C180.053 58.4282 180.677 58.1769 181.181 57.6763C181.685 57.1757 181.938 56.5371 181.938 55.7619C181.938 54.9851 181.685 54.3448 181.181 53.8408C180.677 53.3368 180.053 53.0841 179.308 53.0841C178.564 53.0841 177.938 53.3368 177.434 53.8408C176.93 54.3448 176.677 54.9851 176.677 55.7619C176.677 56.5371 176.93 57.1757 177.434 57.6763ZM182.31 58.7708C181.488 59.5909 180.487 60 179.308 60C178.128 60 177.13 59.5909 176.312 58.7708C175.492 57.9525 175.084 56.9496 175.084 55.7619C175.084 54.5743 175.492 53.5714 176.312 52.7514C177.13 51.933 178.128 51.5239 179.308 51.5239C180.487 51.5239 181.488 51.933 182.31 52.7514C183.132 53.5714 183.544 54.5743 183.544 55.7619C183.544 56.9496 183.132 57.9525 182.31 58.7708ZM171.712 51.6868V59.8371H170.118V54.5494L167.826 58.335H167.64L165.348 54.5627V59.8371H163.742V51.6868H165.394L167.734 55.5407L170.06 51.6868H171.712ZM154.273 57.6763C154.779 58.1769 155.404 58.4282 156.149 58.4282C156.892 58.4282 157.517 58.1769 158.02 57.6763C158.526 57.1757 158.777 56.5371 158.777 55.7619C158.777 54.9851 158.526 54.3448 158.02 53.8408C157.517 53.3368 156.892 53.0841 156.149 53.0841C155.404 53.0841 154.779 53.3368 154.273 53.8408C153.77 54.3448 153.518 54.9851 153.518 55.7619C153.518 56.5371 153.77 57.1757 154.273 57.6763ZM159.151 58.7708C158.328 59.5909 157.327 60 156.149 60C154.969 60 153.969 59.5909 153.151 58.7708C152.334 57.9525 151.924 56.9496 151.924 55.7619C151.924 54.5743 152.334 53.5714 153.151 52.7514C153.969 51.933 154.969 51.5239 156.149 51.5239C157.327 51.5239 158.328 51.933 159.151 52.7514C159.972 53.5714 160.383 54.5743 160.383 55.7619C160.383 56.9496 159.972 57.9525 159.151 58.7708ZM149.274 51.6868V53.2238H147.075V59.8371H145.469V53.2238H143.281V51.6868H149.274ZM137.994 58.335C138.267 58.335 138.492 58.2435 138.67 58.0607C138.848 57.8777 138.938 57.6482 138.938 57.3686C138.938 57.0958 138.848 56.8697 138.67 56.6867C138.492 56.5054 138.267 56.4139 137.994 56.4139H136.145V58.335H137.994ZM137.75 53.1889H136.145V54.9818H137.75C137.999 54.9818 138.206 54.897 138.373 54.7239C138.539 54.5544 138.624 54.3414 138.624 54.0853C138.624 53.8292 138.541 53.6147 138.379 53.445C138.216 53.2736 138.007 53.1889 137.75 53.1889ZM139.461 55.6106C140.175 56.0214 140.532 56.6419 140.532 57.4734C140.532 58.1638 140.287 58.7308 139.798 59.1733C139.309 59.6158 138.708 59.8371 137.994 59.8371H134.539V51.6868H137.75C138.449 51.6868 139.037 51.9015 139.513 52.3322C139.99 52.7631 140.23 53.3119 140.23 53.9805C140.23 54.6542 139.974 55.1998 139.461 55.6106ZM126.472 56.868H128.706L127.589 53.5382L126.472 56.868ZM129.695 59.8371L129.206 58.3699H125.96L125.471 59.8371H123.737L126.589 51.6868H128.578L131.44 59.8371H129.695ZM111.602 56.868H113.836L112.717 53.5382L111.602 56.868ZM114.824 59.8371L114.336 58.3699H111.09L110.601 59.8371H108.866L111.718 51.6868H113.707L116.57 59.8371H114.824ZM107.082 51.6868V53.2238H104.883V59.8371H103.277V53.2238H101.089V51.6868H107.082ZM94.3251 56.868H96.5587L95.4403 53.5382L94.3251 56.868ZM97.5469 59.8371L97.0577 58.3699H93.8128L93.3238 59.8371H91.5889L94.4407 51.6868H96.4299L99.2932 59.8371H97.5469ZM88.8761 59.8371H87.0272L84.1177 56.0181V59.8371H82.5118V51.6868H84.1177V55.2846L86.91 51.6868H88.7604L85.7467 55.6455L88.8761 59.8371ZM73.0431 57.6763C73.5469 58.1769 74.1731 58.4282 74.9182 58.4282C75.6619 58.4282 76.2862 58.1769 76.7902 57.6763C77.2957 57.1757 77.547 56.5371 77.547 55.7619C77.547 54.9851 77.2957 54.3448 76.7902 53.8408C76.2862 53.3368 75.6619 53.0841 74.9182 53.0841C74.1731 53.0841 73.5469 53.3368 73.0431 53.8408C72.5391 54.3448 72.288 54.9851 72.288 55.7619C72.288 56.5371 72.5391 57.1757 73.0431 57.6763ZM77.9186 58.7708C77.0976 59.5909 76.0963 60 74.9182 60C73.7387 60 72.7391 59.5909 71.9212 58.7708C71.1034 57.9525 70.6937 56.9496 70.6937 55.7619C70.6937 54.5743 71.1034 53.5714 71.9212 52.7514C72.7391 51.933 73.7387 51.5239 74.9182 51.5239C76.0963 51.5239 77.0976 51.933 77.9186 52.7514C78.7416 53.5714 79.1529 54.5743 79.1529 55.7619C79.1529 56.9496 78.7416 57.9525 77.9186 58.7708ZM64.9042 55.6571C65.2447 55.6571 65.5271 55.539 65.7536 55.3013C65.9782 55.065 66.0906 54.7723 66.0906 54.423C66.0906 54.0654 65.9782 53.7709 65.7536 53.5382C65.5271 53.3053 65.2447 53.1889 64.9042 53.1889H63.4719V55.6571H64.9042ZM64.9042 51.6868C65.6874 51.6868 66.3467 51.9514 66.882 52.4786C67.4173 53.0059 67.6849 53.6546 67.6849 54.423C67.6849 55.1914 67.4173 55.8384 66.882 56.3674C66.3467 56.8946 65.6874 57.159 64.9042 57.159H63.4719V59.8371H61.8675V51.6868H64.9042ZM58.0708 51.6868V59.8371H56.4649V53.2238H53.5901V59.8371H51.9857V51.6868H58.0708ZM41.1969 58.335C41.5159 58.335 41.7786 58.2435 41.9884 58.0607C42.1982 57.8777 42.3022 57.6248 42.3022 57.2989C42.3022 56.9728 42.1982 56.7201 41.9884 56.5419C41.7786 56.3623 41.5159 56.2742 41.1969 56.2742H39.6851V58.335H41.1969ZM41.1969 54.7723C41.9884 54.7723 42.636 55.0069 43.1415 55.4758C43.6455 55.9466 43.8966 56.5536 43.8966 57.2989C43.8966 58.0506 43.6455 58.6628 43.1415 59.1317C42.636 59.6025 41.9884 59.8371 41.1969 59.8371H38.0792V51.6868H43.1994V53.2238H39.6851V54.7723H41.1969ZM33.3242 51.6868H34.9301L32.4864 57.5899C31.8356 59.1733 30.765 59.9218 29.2762 59.8371V58.335C29.7092 58.3732 30.0611 58.3134 30.3287 58.1537C30.5964 57.9958 30.8194 57.738 30.9979 57.3802L28.3329 51.6868H29.9389L31.7199 55.6222L33.3242 51.6868ZM18.1289 59.8371V58.3466C18.6097 58.4166 18.9699 58.32 19.2094 58.0556C19.4507 57.7911 19.5712 57.2754 19.5712 56.5071V51.6868H25.1094V59.8371H23.5151V53.2238H21.1641V56.4606C21.1641 57.1658 21.0797 57.7596 20.9096 58.2418C20.7377 58.7226 20.5031 59.0801 20.2041 59.313C19.9067 59.5459 19.5877 59.7006 19.2508 59.7788C18.9137 59.8553 18.5387 59.8753 18.1289 59.8371ZM15.3648 59.8371H13.5143L10.6048 56.0181V59.8371H9.00052V51.6868H10.6048V55.2846L13.3987 51.6868H15.2475L12.2339 55.6455L15.3648 59.8371Z" fill="white"/>
</g>
<defs>
<clipPath id="clip0_266_60">
<rect width="240" height="60" fill="white" transform="translate(0.0654297)"/>
</clipPath>
</defs>
</svg>
