<svg width="268" height="61" viewBox="0 0 268 61" fill="none" xmlns="http://www.w3.org/2000/svg">
<g clip-path="url(#clip0_266_53)">
<path d="M33.1486 33.5491C35.3346 31.5348 37.1641 29.1654 38.5599 26.5409C39.9276 24.0188 40.6451 21.1955 40.6473 18.3263C40.6218 16.4151 40.2275 14.5267 39.486 12.7649C38.6822 10.8112 37.5152 9.02765 36.047 7.50876C34.4109 5.83125 32.4528 4.50148 30.2903 3.59921C27.6878 2.54559 24.8976 2.03457 22.0907 2.09746C18.0226 2.09746 14.5453 2.96013 11.6586 4.68547C8.83045 6.36587 6.56542 8.8487 5.15099 11.8188C3.6387 15.0463 2.88528 18.5771 2.94843 22.1408H11.989C11.9448 19.9921 12.3542 17.8583 13.1903 15.8785C13.894 14.1866 15.0928 12.747 16.6294 11.7487C18.2225 10.7686 20.0656 10.2714 21.9355 10.317C23.2867 10.2919 24.6289 10.5423 25.8801 11.0529C26.9653 11.5134 27.9499 12.1817 28.7785 13.0202C29.5518 13.8057 30.1565 14.7409 30.5556 15.7684C30.9398 16.7423 31.1369 17.78 31.1362 18.8269C31.1458 20.2221 30.9103 21.608 30.4404 22.9217C29.9293 24.3014 29.2266 25.6023 28.353 26.7862C27.3297 28.1892 26.2196 29.5267 25.0291 30.7909L0 57.1515H41.278V48.6416H17.8408L33.1486 33.5491Z" fill="#7C5A50"/>
<path d="M82.5459 3.01343H77.0394L46.5039 46.7694H73.1749V57.1264H82.5308V46.7694H91.0407V38.8852H82.5308L82.5459 3.01343ZM73.8057 19.3274V39.5009H59.8945L73.8057 19.3274Z" fill="#7C5A50"/>
<path d="M131.783 6.37734C127.608 4.13473 122.769 3.01343 117.266 3.01343H99.7959V57.1264H117.266C122.783 57.1264 127.622 56.0068 131.783 53.7675C135.869 51.6207 139.262 48.357 141.565 44.3565C143.901 40.3185 145.069 35.5647 145.069 30.095C145.069 24.6253 143.901 19.8714 141.565 15.8333C139.265 11.819 135.873 8.53997 131.783 6.37734ZM134.286 38.1093C133.418 40.2946 132.072 42.2581 130.346 43.856C128.629 45.4108 126.614 46.6027 124.425 47.36C122.038 48.1781 119.529 48.5843 117.006 48.5614H109.137V11.5934H117.021C119.536 11.5735 122.037 11.9675 124.425 12.7598C126.623 13.4946 128.64 14.6891 130.341 16.2639C132.066 17.8821 133.411 19.8616 134.281 22.0606C136.188 27.2505 136.188 32.9494 134.281 38.1393L134.286 38.1093Z" fill="#7C5A50"/>
<path d="M163.245 3.01343H153.969V57.1264H163.245V3.01343Z" fill="#7C5A50"/>
<path d="M211.791 3.01343L195.867 41.0477L179.944 3.01343H169.432L195.867 60.1399L222.383 3.01343H211.791Z" fill="#7C5A50"/>
<path d="M214.108 57.1265H224.395L230.548 43.2153H250.491L256.693 57.1265H267.09L240.559 0L214.108 57.1265ZM247.968 35.4813H233.201L240.559 18.3263L247.968 35.4813Z" fill="#7C5A50"/>
</g>
<defs>
<clipPath id="clip0_266_53">
<rect width="267.066" height="60.14" fill="white"/>
</clipPath>
</defs>
</svg>
