<svg width="367" height="201" viewBox="0 0 367 201" fill="none" xmlns="http://www.w3.org/2000/svg">
<path d="M300.117 151.967C317.737 139.057 320.933 121.592 311.499 103.68C302.07 85.7782 280.068 67.5497 247.673 53.2819C215.278 39.0141 178.72 31.4513 145.852 30.7238C112.962 29.9958 83.9848 36.1051 66.3643 49.0155C48.7437 61.9259 45.5476 79.39 54.9825 97.3029C64.4112 115.204 86.4126 133.433 118.808 147.7C151.203 161.968 187.761 169.531 220.629 170.259C253.519 170.987 282.496 164.877 300.117 151.967Z" stroke="white" stroke-width="2.24307"/>
<circle cx="6.72922" cy="6.72922" r="6.72922" transform="matrix(-1 -8.74228e-08 -8.74228e-08 1 75.2695 40.5137)" fill="white"/>
<circle cx="5.60768" cy="5.60768" r="5.60768" transform="matrix(-1 -8.74228e-08 -8.74228e-08 1 79.7559 114.535)" fill="white"/>
<circle cx="3.92538" cy="3.92538" r="3.92538" transform="matrix(-1 -8.74228e-08 -8.74228e-08 1 156.02 27.0551)" fill="white"/>
<circle cx="2.76491" cy="2.76491" r="2.76491" transform="matrix(-1 -8.74228e-08 -8.74228e-08 1 232.64 44.0153)" fill="white"/>
<circle cx="4.2028" cy="4.2028" r="4.2028" transform="matrix(-1 -8.74228e-08 -8.74228e-08 1 82.5537 50.6074)" fill="white"/>
<circle cx="3.19806" cy="3.19806" r="3.19806" transform="matrix(-1 -8.74228e-08 -8.74228e-08 1 89.5161 57.8977)" fill="white"/>
</svg>
