<svg width="824" height="374" viewBox="0 0 824 374" fill="none" xmlns="http://www.w3.org/2000/svg">
<path d="M727.114 138.793V139.44H727.761H821.753H822.401V138.793V114.922V114.275H821.753H768.87L797.562 89.1145C802.915 84.4457 807.434 80.2704 811.115 76.5894L811.118 76.5855C814.837 72.8043 817.651 68.6975 819.551 64.2646L819.552 64.2616C821.461 59.7437 822.401 54.1186 822.401 47.4119C822.401 38.2999 820.389 30.2586 816.345 23.3086C812.307 16.369 806.751 10.9705 799.687 7.12215C792.681 3.20958 784.738 1.26049 775.876 1.26049C766.22 1.26049 757.723 3.11068 750.406 6.83235C743.091 10.5531 737.373 15.8265 733.268 22.6476C729.156 29.4785 727.114 37.5552 727.114 46.8524V47.4996H727.761H753.87H754.539L754.517 46.8308C754.396 43.2175 755.208 39.886 756.95 36.822L756.953 36.8173C758.699 33.6859 761.136 31.1884 764.272 29.3186L764.275 29.3167C767.458 27.3952 771.131 26.426 775.317 26.426C779.318 26.426 782.772 27.3343 785.702 29.1282L785.71 29.1331C788.649 30.8724 790.928 33.2989 792.552 36.4273L792.555 36.4319C794.177 39.4963 794.997 43.0263 794.997 47.0389C794.997 49.766 794.167 52.7391 792.461 55.9679C790.771 59.1674 787.849 62.6198 783.654 66.3218L783.652 66.323L727.332 116.303L727.114 116.496V116.787V138.793ZM629.196 136.095C636.767 140.322 645.582 142.424 655.621 142.424C665.659 142.424 674.474 140.322 682.045 136.095C689.609 131.871 695.508 125.972 699.732 118.408C703.959 110.837 706.061 102.022 706.061 91.9835V51.7012C706.061 41.6627 703.959 32.8476 699.732 25.2767C695.508 17.7123 689.609 11.8136 682.045 7.59009C674.474 3.363 665.659 1.26049 655.621 1.26049C645.582 1.26049 636.767 3.363 629.196 7.59009C621.632 11.8136 615.733 17.7123 611.51 25.2767C607.282 32.8476 605.18 41.6627 605.18 51.7012V91.9835C605.18 102.022 607.282 110.837 611.51 118.408C615.733 125.972 621.632 131.871 629.196 136.095ZM667.415 113.991C663.916 116.042 659.99 117.072 655.621 117.072C651.251 117.072 647.325 116.042 643.826 113.991C640.316 111.933 637.536 109.153 635.478 105.643C633.427 102.144 632.397 98.2177 632.397 93.8485V49.6498C632.397 45.2805 633.427 41.3543 635.478 37.8551C637.536 34.3451 640.316 31.5651 643.826 29.5075C647.325 27.4562 651.251 26.426 655.621 26.426C659.99 26.426 663.916 27.4562 667.415 29.5075C670.925 31.5651 673.705 34.3451 675.763 37.8551C677.814 41.3543 678.844 45.2805 678.844 49.6498V93.8485C678.844 98.2177 677.814 102.144 675.763 105.643C673.705 109.153 670.925 111.933 667.415 113.991Z" stroke="white" stroke-width="1.29445"/>
<rect x="3.23188" y="36.8076" width="563.093" height="305.498" rx="9.7126" fill="#0A0A0A" stroke="#262626" stroke-width="6.46376"/>
<path d="M33.6113 138.807C33.6113 135.386 37.1514 133.083 40.2843 134.458C59.8084 143.024 118.044 166.953 159.332 166.953C209.62 166.953 234.764 137.188 285.052 119.165C335.34 101.142 360.484 76.8379 410.772 76.8379C455.806 76.8379 521.006 110.783 534.137 117.875C535.622 118.677 536.492 120.21 536.492 121.897V200.516C536.492 203.094 534.437 205.183 531.86 205.183C514.711 205.183 453.616 205.183 410.772 205.183C360.484 205.183 335.34 205.183 285.052 205.183C234.764 205.183 209.62 205.183 159.332 205.183C116.487 205.183 55.3925 205.183 38.2438 205.183C35.6662 205.183 33.6113 203.094 33.6113 200.516V138.807Z" fill="#2BA2B2" fill-opacity="0.65"/>
<path d="M33.6113 201.215C33.6113 199.524 34.6365 198.034 36.234 197.478C49.96 192.702 114.595 170.081 159.332 152.191C209.62 132.081 234.764 97.8396 285.052 97.8396C335.34 97.8396 369.856 183.671 420.144 183.671C459.533 183.671 508.597 136.849 528.016 116.553C531.003 113.43 536.492 115.553 536.492 119.874V200.516C536.492 203.094 534.437 205.183 531.86 205.183C514.711 205.183 453.616 205.183 410.772 205.183C360.484 205.183 335.34 205.183 285.052 205.183C234.764 205.183 209.62 205.183 159.332 205.183C115.877 205.183 53.6491 205.183 37.5382 205.183C35.3469 205.183 33.6113 203.407 33.6113 201.215Z" fill="#20B985" fill-opacity="0.83"/>
<path d="M536.492 202.494C536.492 201.255 535.663 200.18 534.459 199.884C522.11 196.851 456.187 180.574 410.772 167.743C360.484 153.535 335.34 129.343 285.052 129.343C234.764 129.343 209.62 196.543 159.332 196.543C118.592 196.543 61.3492 161.431 41.0809 148.098C37.9155 146.015 33.6115 148.287 33.6115 152.076V200.516C33.6115 203.093 35.6663 205.183 38.2439 205.183C55.3926 205.183 116.488 205.183 159.332 205.183C209.62 205.183 234.764 205.183 285.052 205.183C335.34 205.183 360.484 205.183 410.772 205.183C455.487 205.183 520.082 205.183 533.85 205.183C535.335 205.183 536.492 203.979 536.492 202.494Z" fill="#20B985" fill-opacity="0.83"/>
<rect x="519.688" y="215.162" width="5.17101" height="81.4434" rx="2.58551" fill="#262626"/>
<rect x="518.395" y="237.139" width="7.75652" height="27.1478" rx="3.87826" fill="#20B985"/>
<rect x="429.194" y="215.162" width="5.17101" height="81.4434" rx="2.58551" fill="#262626"/>
<rect x="427.901" y="237.139" width="7.75652" height="27.1478" rx="3.87826" fill="#20B985"/>
<rect x="338.701" y="215.162" width="5.17101" height="81.4434" rx="2.58551" fill="#262626"/>
<rect x="337.408" y="237.139" width="7.75652" height="27.1478" rx="3.87826" fill="#20B985"/>
<rect x="506.76" y="225.504" width="5.17101" height="81.4434" rx="2.58551" fill="#262626"/>
<rect x="505.467" y="247.481" width="7.75652" height="27.1478" rx="3.87826" fill="#20B985"/>
<rect x="416.267" y="225.504" width="5.17101" height="81.4434" rx="2.58551" fill="#262626"/>
<rect x="414.974" y="247.481" width="7.75652" height="27.1478" rx="3.87826" fill="#20B985"/>
<rect x="325.773" y="225.504" width="5.17101" height="81.4434" rx="2.58551" fill="#262626"/>
<rect x="324.481" y="247.481" width="7.75652" height="27.1478" rx="3.87826" fill="#20B985"/>
<rect x="493.831" y="209.991" width="5.17101" height="81.4434" rx="2.58551" fill="#262626"/>
<rect x="492.538" y="231.968" width="7.75652" height="27.1478" rx="3.87826" fill="#20B985"/>
<rect x="403.339" y="209.991" width="5.17101" height="81.4434" rx="2.58551" fill="#262626"/>
<rect x="402.046" y="231.968" width="7.75652" height="27.1478" rx="3.87826" fill="#20B985"/>
<rect x="312.846" y="209.991" width="5.17101" height="81.4434" rx="2.58551" fill="#262626"/>
<rect x="311.553" y="231.968" width="7.75652" height="27.1478" rx="3.87826" fill="#20B985"/>
<rect x="480.904" y="242.31" width="5.17101" height="81.4434" rx="2.58551" fill="#262626"/>
<rect x="479.611" y="264.287" width="7.75652" height="27.1478" rx="3.87826" fill="#20B985"/>
<rect x="390.411" y="242.31" width="5.17101" height="81.4434" rx="2.58551" fill="#262626"/>
<rect x="389.119" y="264.287" width="7.75652" height="27.1478" rx="3.87826" fill="#20B985"/>
<rect x="299.918" y="242.31" width="5.17101" height="81.4434" rx="2.58551" fill="#262626"/>
<rect x="298.626" y="264.287" width="7.75652" height="27.1478" rx="3.87826" fill="#20B985"/>
<rect x="467.977" y="230.675" width="5.17101" height="81.4434" rx="2.58551" fill="#262626"/>
<rect x="466.684" y="252.652" width="7.75652" height="27.1478" rx="3.87826" fill="#20B985"/>
<rect x="377.484" y="230.675" width="5.17101" height="81.4434" rx="2.58551" fill="#262626"/>
<rect x="376.191" y="252.652" width="7.75652" height="27.1478" rx="3.87826" fill="#20B985"/>
<rect x="286.991" y="230.675" width="5.17101" height="81.4434" rx="2.58551" fill="#262626"/>
<rect x="285.698" y="252.652" width="7.75652" height="27.1478" rx="3.87826" fill="#20B985"/>
<rect x="455.049" y="213.87" width="5.17101" height="81.4434" rx="2.58551" fill="#262626"/>
<rect x="453.756" y="235.846" width="7.75652" height="27.1478" rx="3.87826" fill="#20B985"/>
<rect x="364.556" y="213.87" width="5.17101" height="81.4434" rx="2.58551" fill="#262626"/>
<rect x="363.264" y="235.846" width="7.75652" height="27.1478" rx="3.87826" fill="#20B985"/>
<rect x="274.063" y="213.87" width="5.17101" height="81.4434" rx="2.58551" fill="#262626"/>
<rect x="272.771" y="235.846" width="7.75652" height="27.1478" rx="3.87826" fill="#20B985"/>
<rect x="442.121" y="234.554" width="5.17101" height="81.4434" rx="2.58551" fill="#262626"/>
<rect x="440.828" y="256.531" width="7.75652" height="27.1478" rx="3.87826" fill="#20B985"/>
<rect x="351.629" y="234.554" width="5.17101" height="81.4434" rx="2.58551" fill="#262626"/>
<rect x="350.336" y="256.531" width="7.75652" height="27.1478" rx="3.87826" fill="#20B985"/>
<rect x="261.136" y="234.554" width="5.17101" height="81.4434" rx="2.58551" fill="#262626"/>
<rect x="259.843" y="256.531" width="7.75652" height="27.1478" rx="3.87826" fill="#20B985"/>
<rect x="248.208" y="228.09" width="5.17101" height="81.4434" rx="2.58551" fill="#262626"/>
<rect x="246.916" y="250.067" width="7.75652" height="27.1478" rx="3.87826" fill="#20B985"/>
<rect x="235.281" y="237.139" width="5.17101" height="81.4434" rx="2.58551" fill="#262626"/>
<rect x="233.988" y="259.116" width="7.75652" height="27.1478" rx="3.87826" fill="#20B985"/>
<rect x="222.354" y="217.748" width="5.17101" height="81.4434" rx="2.58551" fill="#262626"/>
<rect x="221.061" y="239.725" width="7.75652" height="27.1478" rx="3.87826" fill="#20B985"/>
<rect x="209.426" y="234.554" width="5.17101" height="81.4434" rx="2.58551" fill="#262626"/>
<rect x="208.133" y="256.531" width="7.75652" height="27.1478" rx="3.87826" fill="#20B985"/>
<rect x="33.6113" y="224.212" width="164.18" height="90.4927" rx="2.58551" fill="#181818"/>
<path d="M34.9771 267.601C34.9771 267.601 67.2668 267.601 88.7933 267.601C110.32 267.601 121.083 259.19 142.61 259.19C164.136 259.19 196.426 286.944 196.426 286.944" stroke="#2BA2B2" stroke-width="0.598583"/>
<path d="M34.9771 287.785C34.9771 287.785 67.2668 233.119 88.7933 233.119C110.32 233.119 121.083 307.128 142.61 307.128C164.136 307.128 196.426 240.688 196.426 240.688" stroke="#20B985" stroke-width="0.598583"/>
<path d="M34.9771 245.735C34.9771 245.735 67.2668 277.693 88.7933 277.693C110.32 277.693 121.083 277.693 142.61 276.011C164.136 274.329 196.426 247.417 196.426 247.417" stroke="#20B985" stroke-width="0.598583"/>
<path d="M34.9771 276.852C34.9771 276.852 67.2668 289.299 88.7933 295.354C110.32 301.409 121.083 307.128 142.61 307.128C164.136 307.128 196.426 279.375 196.426 279.375" stroke="#20B985" stroke-width="0.598583"/>
<path d="M34.9766 268.705C34.6146 268.705 34.2674 268.579 34.0113 268.355C33.7553 268.13 33.6114 267.826 33.6113 267.509C33.6112 267.191 33.7549 266.887 34.0109 266.662C34.2668 266.437 34.6139 266.311 34.976 266.311C35.338 266.311 35.6853 266.437 35.9415 266.661C36.1976 266.885 36.3417 267.19 36.342 267.507C36.3422 267.825 36.1987 268.129 35.9429 268.354C35.6871 268.579 35.3401 268.705 34.978 268.705H34.9766Z" fill="#2BA2B2"/>
<path d="M88.5655 268.705C88.2035 268.705 87.8562 268.579 87.6002 268.355C87.3442 268.13 87.2003 267.826 87.2002 267.509C87.2001 267.191 87.3438 266.887 87.5997 266.662C87.8556 266.437 88.2028 266.311 88.5648 266.311C88.9269 266.311 89.2742 266.437 89.5303 266.661C89.7865 266.885 89.9306 267.19 89.9308 267.507C89.9311 267.825 89.7876 268.129 89.5318 268.354C89.276 268.579 88.9289 268.705 88.5669 268.705H88.5655Z" fill="#2BA2B2"/>
<path d="M142.496 260.325C142.134 260.325 141.786 260.199 141.53 259.974C141.274 259.75 141.13 259.446 141.13 259.128C141.13 258.811 141.274 258.506 141.53 258.282C141.786 258.057 142.133 257.931 142.495 257.931C142.857 257.931 143.204 258.056 143.461 258.281C143.717 258.505 143.861 258.809 143.861 259.127C143.861 259.444 143.718 259.749 143.462 259.974C143.206 260.198 142.859 260.325 142.497 260.325H142.496Z" fill="#2BA2B2"/>
<path d="M196.425 288.159C196.063 288.159 195.716 288.033 195.46 287.808C195.204 287.584 195.06 287.28 195.06 286.962C195.06 286.645 195.204 286.34 195.46 286.116C195.715 285.891 196.063 285.765 196.425 285.765C196.787 285.764 197.134 285.89 197.39 286.115C197.646 286.339 197.79 286.643 197.791 286.961C197.791 287.278 197.647 287.583 197.392 287.808C197.136 288.032 196.789 288.159 196.427 288.159H196.425Z" fill="#2F0A3F"/>
<path d="M34.9766 289.057C34.6146 289.057 34.2674 288.931 34.0113 288.706C33.7553 288.482 33.6114 288.178 33.6113 287.86C33.6112 287.543 33.7549 287.238 34.0109 287.014C34.2668 286.789 34.6139 286.663 34.976 286.663C35.338 286.662 35.6853 286.788 35.9415 287.013C36.1976 287.237 36.3417 287.541 36.342 287.859C36.3422 288.176 36.1987 288.481 35.9429 288.706C35.6871 288.93 35.3401 289.057 34.978 289.057H34.9766Z" fill="#20B985"/>
<path d="M88.5655 234.287C88.2035 234.287 87.8562 234.161 87.6002 233.936C87.3442 233.712 87.2003 233.407 87.2002 233.09C87.2001 232.772 87.3438 232.468 87.5997 232.243C87.8556 232.019 88.2028 231.892 88.5648 231.892C88.9269 231.892 89.2742 232.018 89.5303 232.242C89.7865 232.467 89.9306 232.771 89.9308 233.089C89.9311 233.406 89.7876 233.711 89.5318 233.935C89.276 234.16 88.9289 234.286 88.5669 234.287L88.5655 234.287Z" fill="#20B985"/>
<path d="M142.496 308.212C142.134 308.212 141.786 308.086 141.53 307.861C141.274 307.637 141.13 307.333 141.13 307.015C141.13 306.698 141.274 306.393 141.53 306.169C141.786 305.944 142.133 305.818 142.495 305.818C142.857 305.817 143.204 305.943 143.461 306.168C143.717 306.392 143.861 306.696 143.861 307.014C143.861 307.331 143.718 307.636 143.462 307.861C143.206 308.085 142.859 308.212 142.497 308.212H142.496Z" fill="#20B985"/>
<path d="M196.425 241.769C196.063 241.769 195.716 241.643 195.46 241.418C195.204 241.194 195.06 240.889 195.06 240.572C195.06 240.254 195.204 239.95 195.46 239.725C195.715 239.501 196.063 239.374 196.425 239.374C196.787 239.374 197.134 239.5 197.39 239.724C197.646 239.949 197.79 240.253 197.791 240.571C197.791 240.888 197.647 241.193 197.392 241.417C197.136 241.642 196.789 241.768 196.427 241.769L196.425 241.769Z" fill="#20B985"/>
<path d="M34.9766 246.857C34.6146 246.857 34.2674 246.731 34.0113 246.506C33.7553 246.282 33.6114 245.978 33.6113 245.66C33.6112 245.343 33.7549 245.038 34.0109 244.814C34.2668 244.589 34.6139 244.463 34.976 244.463C35.338 244.462 35.6853 244.588 35.9415 244.813C36.1976 245.037 36.3417 245.341 36.342 245.659C36.3422 245.976 36.1987 246.281 35.9429 246.506C35.6871 246.73 35.3401 246.857 34.978 246.857H34.9766Z" fill="#20B985"/>
<path d="M88.5655 278.881C88.2035 278.881 87.8562 278.755 87.6002 278.53C87.3442 278.306 87.2003 278.001 87.2002 277.684C87.2001 277.367 87.3438 277.062 87.5997 276.838C87.8556 276.613 88.2028 276.487 88.5648 276.487C88.9269 276.486 89.2742 276.612 89.5303 276.837C89.7865 277.061 89.9306 277.365 89.9308 277.683C89.9311 278 89.7876 278.305 89.5318 278.53C89.276 278.754 88.9289 278.881 88.5669 278.881H88.5655Z" fill="#20B985"/>
<path d="M142.496 277.085C142.134 277.085 141.786 276.959 141.53 276.734C141.274 276.51 141.13 276.205 141.13 275.888C141.13 275.57 141.274 275.266 141.53 275.041C141.786 274.817 142.133 274.691 142.495 274.69C142.857 274.69 143.204 274.816 143.461 275.041C143.717 275.265 143.861 275.569 143.861 275.887C143.861 276.204 143.718 276.509 143.462 276.733C143.206 276.958 142.859 277.084 142.497 277.085H142.496Z" fill="#20B985"/>
<path d="M196.425 248.653C196.063 248.653 195.716 248.527 195.46 248.302C195.204 248.078 195.06 247.773 195.06 247.456C195.06 247.138 195.204 246.834 195.46 246.609C195.715 246.385 196.063 246.258 196.425 246.258C196.787 246.258 197.134 246.384 197.39 246.608C197.646 246.833 197.79 247.137 197.791 247.455C197.791 247.772 197.647 248.077 197.392 248.301C197.136 248.526 196.789 248.652 196.427 248.653H196.425Z" fill="#20B985"/>
<path d="M34.9766 277.983C34.6146 277.983 34.2674 277.857 34.0113 277.632C33.7553 277.408 33.6114 277.104 33.6113 276.786C33.6112 276.469 33.7549 276.164 34.0109 275.94C34.2668 275.715 34.6139 275.589 34.976 275.589C35.338 275.588 35.6853 275.714 35.9415 275.939C36.1976 276.163 36.3417 276.467 36.342 276.785C36.3422 277.102 36.1987 277.407 35.9429 277.632C35.6871 277.856 35.3401 277.983 34.978 277.983H34.9766Z" fill="#20B985"/>
<path d="M88.5655 296.539C88.2035 296.539 87.8562 296.413 87.6002 296.189C87.3442 295.964 87.2003 295.66 87.2002 295.342C87.2001 295.025 87.3438 294.72 87.5997 294.496C87.8556 294.271 88.2028 294.145 88.5648 294.145C88.9269 294.145 89.2742 294.271 89.5303 294.495C89.7865 294.719 89.9306 295.024 89.9308 295.341C89.9311 295.658 89.7876 295.963 89.5318 296.188C89.276 296.412 88.9289 296.539 88.5669 296.539H88.5655Z" fill="#20B985"/>
<path d="M142.496 308.212C142.134 308.212 141.786 308.086 141.53 307.861C141.274 307.637 141.13 307.333 141.13 307.015C141.13 306.698 141.274 306.393 141.53 306.169C141.786 305.944 142.133 305.818 142.495 305.818C142.857 305.817 143.204 305.943 143.461 306.168C143.717 306.392 143.861 306.696 143.861 307.014C143.861 307.331 143.718 307.636 143.462 307.861C143.206 308.085 142.859 308.212 142.497 308.212H142.496Z" fill="#20B985"/>
<path d="M196.425 280.677C196.063 280.677 195.716 280.55 195.46 280.326C195.204 280.102 195.06 279.797 195.06 279.48C195.06 279.162 195.204 278.858 195.46 278.633C195.715 278.409 196.063 278.282 196.425 278.282C196.787 278.282 197.134 278.408 197.39 278.632C197.646 278.857 197.79 279.161 197.791 279.478C197.791 279.796 197.647 280.101 197.392 280.325C197.136 280.55 196.789 280.676 196.427 280.677H196.425Z" fill="#20B985"/>
<rect x="519.743" y="191.938" width="299.026" height="178.642" rx="9.7126" fill="#0A0A0A" stroke="#262626" stroke-width="6.46376"/>
<rect x="704.551" y="228.781" width="72.3942" height="5.9502" rx="1.9834" fill="#20B985"/>
<rect x="704.551" y="285.663" width="72.3942" height="5.9502" rx="1.9834" fill="#20B985"/>
<rect x="704.551" y="261.1" width="54.2956" height="6.46376" rx="1.9834" fill="#2BA2B2"/>
<rect x="704.551" y="317.981" width="54.2956" height="6.46376" rx="1.9834" fill="#2BA2B2"/>
<rect x="704.551" y="253.344" width="72.3942" height="5.9502" rx="1.9834" fill="#20B985"/>
<rect x="704.551" y="310.225" width="72.3942" height="5.9502" rx="1.9834" fill="#20B985"/>
<circle cx="709.25" cy="242.063" r="4.6996" fill="#20B985"/>
<circle cx="709.25" cy="298.944" r="4.6996" fill="#2BA2B2"/>
<circle cx="709.25" cy="274.382" r="4.6996" fill="#20B985"/>
<circle cx="709.25" cy="331.263" r="4.6996" fill="#20B985"/>
<circle cx="719.993" cy="242.063" r="4.6996" fill="#2BA2B2"/>
<circle cx="719.993" cy="298.944" r="4.6996" fill="#20B985"/>
<circle cx="719.993" cy="274.382" r="4.6996" fill="#20B985"/>
<circle cx="719.993" cy="331.263" r="4.6996" fill="#2BA2B2"/>
<circle cx="730.877" cy="242.063" r="4.6996" fill="#20B985"/>
<circle cx="730.877" cy="298.944" r="4.6996" fill="#20B985"/>
<circle cx="730.877" cy="274.382" r="4.6996" fill="#2BA2B2"/>
<circle cx="730.877" cy="331.263" r="4.6996" fill="#20B985"/>
<path d="M636.684 281.136V231.367C664.17 231.367 686.453 253.649 686.453 281.136C686.453 282.874 686.362 284.61 686.18 286.338L636.684 281.136Z" fill="#2BA2B2" fill-opacity="0.91"/>
<path d="M636.684 281.136L686.18 286.338C684.706 300.366 677.348 313.109 665.937 321.4L636.684 281.136Z" fill="#20B985"/>
<path d="M636.684 281.136L665.938 321.4C643.7 337.556 612.576 332.627 596.42 310.39C580.263 288.152 585.193 257.028 607.43 240.872C615.933 234.694 626.174 231.367 636.684 231.367V281.136Z" fill="#2BA2B2"/>
</svg>
