<svg width="686" height="449" viewBox="0 0 686 449" fill="none" xmlns="http://www.w3.org/2000/svg">
<circle cx="627.992" cy="383.992" r="6.00787" transform="rotate(180 627.992 383.992)" fill="white"/>
<path d="M158.4 169.072V169.703H159.031H184.271H184.902V169.072V38.3288V37.6983H184.271H159.031H158.856L158.706 37.7881L134.192 52.4968L133.886 52.6805V53.0374V80.2757V81.4035L134.846 80.8128L158.4 66.3317V169.072ZM36.727 166.264C44.0989 170.379 52.6822 172.427 62.4567 172.427C72.2313 172.427 80.8146 170.379 88.1865 166.264C95.552 162.151 101.296 156.407 105.408 149.042C109.524 141.67 111.571 133.087 111.571 123.312V84.0891C111.571 74.3145 109.524 65.7312 105.408 58.3593C101.296 50.9938 95.552 45.2501 88.1865 41.1377C80.8146 37.0217 72.2313 34.9745 62.4567 34.9745C52.6822 34.9745 44.0989 37.0217 36.727 41.1377C29.3615 45.2501 23.6178 50.9938 19.5053 58.3593C15.3894 65.7312 13.3421 74.3145 13.3421 84.0891V123.312C13.3421 133.087 15.3894 141.67 19.5053 149.042C23.6178 156.407 29.3615 162.151 36.727 166.264ZM73.9411 144.74C70.534 146.738 66.711 147.741 62.4567 147.741C58.2025 147.741 54.3795 146.738 50.9724 144.74C47.5547 142.737 44.8478 140.03 42.8444 136.612C40.8471 133.205 39.8439 129.382 39.8439 125.128V82.0916C39.8439 77.8373 40.8471 74.0143 42.8444 70.6072C44.8478 67.1895 47.5547 64.4827 50.9724 62.4792C54.3795 60.4819 58.2025 59.4788 62.4567 59.4788C66.711 59.4788 70.534 60.4819 73.9411 62.4792C77.3588 64.4827 80.0656 67.1895 82.0691 70.6072C84.0664 74.0143 85.0695 77.8373 85.0695 82.0916V125.128C85.0695 129.382 84.0664 133.205 82.0691 136.612C80.0656 140.03 77.3588 142.737 73.9411 144.74Z" stroke="white" stroke-width="1.26103"/>
<rect x="235.182" y="3.21385" width="368.221" height="200.504" rx="3.15257" fill="#0A0A0A" stroke="#262626" stroke-width="6.30515"/>
<rect x="3.15257" y="220.111" width="301.386" height="225.724" rx="3.15257" fill="#0A0A0A" stroke="#262626" stroke-width="6.30515"/>
<rect x="320.932" y="220.111" width="361.916" height="200.504" rx="3.15257" fill="#0A0A0A" stroke="#262626" stroke-width="6.30515"/>
<circle cx="295.666" cy="61.1748" r="29.5879" fill="#2BA2B2"/>
<path d="M303.735 54.0016C303.735 58.4582 300.122 62.071 295.665 62.071C291.209 62.071 287.596 58.4582 287.596 54.0016C287.596 49.5449 291.209 45.9321 295.665 45.9321C300.122 45.9321 303.735 49.5449 303.735 54.0016Z" fill="white"/>
<path d="M309.114 77.3133C309.114 73.7463 307.697 70.3255 305.175 67.8033C302.653 65.2812 299.232 63.8642 295.665 63.8642C292.098 63.8642 288.678 65.2812 286.155 67.8033C283.633 70.3255 282.216 73.7463 282.216 77.3133L309.114 77.3133Z" fill="white"/>
<rect x="330.633" y="49.5188" width="130.904" height="10.7592" rx="3.58642" fill="#20B985"/>
<rect x="465.32" y="49.2412" width="80.7059" height="11.3493" rx="3.58642" fill="#20B985"/>
<circle cx="343.185" cy="78.2102" r="12.5525" fill="#2BA2B2"/>
<circle cx="371.877" cy="78.2102" r="12.5525" fill="#2BA2B2"/>
<circle cx="400.95" cy="78.2102" r="12.5525" fill="#2BA2B2"/>
<circle cx="295.666" cy="145.456" r="29.5879" fill="#2BA2B2"/>
<path d="M303.735 138.283C303.735 142.739 300.122 146.352 295.665 146.352C291.209 146.352 287.596 142.739 287.596 138.283C287.596 133.826 291.209 130.213 295.665 130.213C300.122 130.213 303.735 133.826 303.735 138.283Z" fill="white"/>
<path d="M309.114 161.595C309.114 158.028 307.697 154.607 305.175 152.085C302.653 149.562 299.232 148.145 295.665 148.145C292.098 148.145 288.678 149.562 286.155 152.085C283.633 154.607 282.216 158.028 282.216 161.595L309.114 161.595Z" fill="white"/>
<rect x="330.633" y="133.8" width="127.318" height="10.7592" rx="3.58642" fill="#20B985"/>
<rect x="330.633" y="117.661" width="93.2468" height="10.7592" rx="3.58642" fill="#20B985"/>
<rect x="428.751" y="117.337" width="136.191" height="11.3493" rx="3.58642" fill="#20B985"/>
<circle cx="343.185" cy="162.491" r="12.5525" fill="#2BA2B2"/>
<circle cx="371.877" cy="162.491" r="12.5525" fill="#2BA2B2"/>
<rect x="46.6587" y="373.465" width="38.6261" height="50.214" rx="3.86261" fill="#20B985"/>
<rect x="89.147" y="344.496" width="38.6261" height="79.1836" rx="3.86261" fill="#20B985"/>
<rect x="133.567" y="313.595" width="38.6261" height="110.084" rx="3.86261" fill="#20B985"/>
<rect x="177.987" y="371.534" width="38.6261" height="52.1453" rx="3.86261" fill="#20B985"/>
<rect x="222.408" y="388.916" width="38.6261" height="34.7635" rx="3.86261" fill="#20B985"/>
<path d="M25.0039 292.96C42.9336 278.92 53.0486 274.132 71.6299 291.576C93.7602 308.92 116.62 286.885 155.732 277.28C201.789 265.97 212.234 298.125 237.81 303.546C261.061 309.631 271.285 296.809 284.436 285.261" stroke="#2BA2B2" stroke-width="1.93131"/>
<rect x="343" y="248.468" width="54.0106" height="14.2133" rx="5.68532" fill="#20B985"/>
<rect x="343" y="285.422" width="233.098" height="17.056" rx="5.68532" fill="#20B985"/>
<rect x="343" y="322.377" width="167.717" height="17.056" rx="5.68532" fill="#20B985"/>
<rect x="343" y="359.332" width="122.234" height="17.056" rx="5.68532" fill="#20B985"/>
<rect x="408.381" y="248.468" width="54.0106" height="14.2133" rx="5.68532" fill="#20B985"/>
<rect x="473.763" y="248.468" width="54.0106" height="14.2133" rx="5.68532" fill="#20B985"/>
<rect x="539.144" y="248.468" width="54.0106" height="14.2133" rx="5.68532" fill="#20B985"/>
<circle cx="629.938" cy="375.164" r="28.4266" fill="#2BA2B2"/>
<path d="M637.69 368.273C637.69 372.554 634.219 376.025 629.938 376.025C625.656 376.025 622.185 372.554 622.185 368.273C622.185 363.991 625.656 360.52 629.938 360.52C634.219 360.52 637.69 363.991 637.69 368.273Z" fill="white"/>
<path d="M642.859 390.669C642.859 387.243 641.498 383.956 639.074 381.533C636.651 379.11 633.365 377.748 629.938 377.748C626.511 377.748 623.224 379.11 620.801 381.533C618.378 383.956 617.017 387.243 617.017 390.669L642.859 390.669Z" fill="white"/>
<path d="M276.796 242.179L281.711 249.745H271.882L276.796 242.179Z" fill="#2BA2B2"/>
</svg>
