<svg width="809" height="370" viewBox="0 0 809 370" fill="none" xmlns="http://www.w3.org/2000/svg">
<rect x="3.23188" y="32.8999" width="563.093" height="305.498" rx="9.7126" fill="#0A0A0A" stroke="#262626" stroke-width="6.46376"/>
<rect x="503.689" y="211.254" width="5.17101" height="81.4434" rx="2.58551" fill="#262626"/>
<rect x="502.396" y="233.231" width="7.75652" height="27.1478" rx="3.87826" fill="#20B985"/>
<rect x="33.6113" y="220.304" width="164.18" height="90.4927" rx="2.58551" fill="#181818"/>
<path d="M34.9766 283.877C34.9766 283.877 67.2663 229.212 88.7928 229.212C110.319 229.212 121.083 303.221 142.609 303.221C164.136 303.221 196.425 236.781 196.425 236.781" stroke="#20B985" stroke-width="0.598583"/>
<path d="M34.9766 272.944C34.9766 272.944 67.2663 285.391 88.7928 291.446C110.319 297.502 121.083 303.22 142.609 303.22C164.136 303.22 196.425 275.467 196.425 275.467" stroke="#20B985" stroke-width="0.598583"/>
<path d="M34.9766 285.149C34.6146 285.149 34.2674 285.023 34.0113 284.799C33.7553 284.574 33.6114 284.27 33.6113 283.952C33.6112 283.635 33.7549 283.33 34.0109 283.106C34.2668 282.881 34.6139 282.755 34.976 282.755C35.338 282.755 35.6853 282.881 35.9415 283.105C36.1976 283.329 36.3417 283.634 36.342 283.951C36.3422 284.269 36.1987 284.573 35.9429 284.798C35.6871 285.023 35.3401 285.149 34.978 285.149H34.9766Z" fill="#20B985"/>
<path d="M88.5655 230.379C88.2035 230.379 87.8562 230.253 87.6002 230.028C87.3442 229.804 87.2003 229.5 87.2002 229.182C87.2001 228.865 87.3438 228.56 87.5997 228.336C87.8556 228.111 88.2028 227.985 88.5648 227.985C88.9269 227.984 89.2742 228.11 89.5303 228.335C89.7865 228.559 89.9306 228.863 89.9308 229.181C89.9311 229.498 89.7876 229.803 89.5318 230.028C89.276 230.252 88.9289 230.379 88.5669 230.379L88.5655 230.379Z" fill="#20B985"/>
<path d="M142.495 304.304C142.133 304.304 141.786 304.178 141.53 303.954C141.274 303.729 141.13 303.425 141.13 303.107C141.13 302.79 141.274 302.485 141.529 302.261C141.785 302.036 142.132 301.91 142.495 301.91C142.857 301.91 143.204 302.036 143.46 302.26C143.716 302.484 143.86 302.789 143.861 303.106C143.861 303.424 143.717 303.728 143.461 303.953C143.206 304.177 142.859 304.304 142.497 304.304H142.495Z" fill="#20B985"/>
<path d="M196.417 237.86C196.055 237.86 195.708 237.734 195.452 237.51C195.196 237.285 195.052 236.981 195.052 236.663C195.052 236.346 195.195 236.041 195.451 235.817C195.707 235.592 196.054 235.466 196.416 235.466C196.778 235.466 197.126 235.592 197.382 235.816C197.638 236.04 197.782 236.345 197.782 236.662C197.783 236.98 197.639 237.284 197.383 237.509C197.128 237.734 196.78 237.86 196.418 237.86L196.417 237.86Z" fill="#20B985"/>
<path d="M34.9766 274.075C34.6146 274.075 34.2674 273.949 34.0113 273.725C33.7553 273.5 33.6114 273.196 33.6113 272.878C33.6112 272.561 33.7549 272.257 34.0109 272.032C34.2668 271.807 34.6139 271.681 34.976 271.681C35.338 271.681 35.6853 271.807 35.9415 272.031C36.1976 272.255 36.3417 272.56 36.342 272.877C36.3422 273.195 36.1987 273.499 35.9429 273.724C35.6871 273.949 35.3401 274.075 34.978 274.075H34.9766Z" fill="#20B985"/>
<path d="M88.5655 292.632C88.2035 292.632 87.8562 292.505 87.6002 292.281C87.3442 292.057 87.2003 291.752 87.2002 291.435C87.2001 291.117 87.3438 290.813 87.5997 290.588C87.8556 290.364 88.2028 290.237 88.5648 290.237C88.9269 290.237 89.2742 290.363 89.5303 290.587C89.7865 290.812 89.9306 291.116 89.9308 291.433C89.9311 291.751 89.7876 292.055 89.5318 292.28C89.276 292.505 88.9289 292.631 88.5669 292.632H88.5655Z" fill="#20B985"/>
<path d="M142.495 304.304C142.133 304.304 141.786 304.178 141.53 303.954C141.274 303.729 141.13 303.425 141.13 303.107C141.13 302.79 141.274 302.485 141.529 302.261C141.785 302.036 142.132 301.91 142.495 301.91C142.857 301.91 143.204 302.036 143.46 302.26C143.716 302.484 143.86 302.789 143.861 303.106C143.861 303.424 143.717 303.728 143.461 303.953C143.206 304.177 142.859 304.304 142.497 304.304H142.495Z" fill="#20B985"/>
<path d="M196.417 276.768C196.055 276.768 195.708 276.642 195.452 276.418C195.196 276.193 195.052 275.889 195.052 275.571C195.052 275.254 195.195 274.949 195.451 274.725C195.707 274.5 196.054 274.374 196.416 274.374C196.778 274.374 197.126 274.5 197.382 274.724C197.638 274.948 197.782 275.253 197.782 275.57C197.783 275.888 197.639 276.192 197.383 276.417C197.128 276.641 196.78 276.768 196.418 276.768H196.417Z" fill="#20B985"/>
<rect x="504.743" y="188.03" width="299.026" height="178.642" rx="9.7126" fill="#0A0A0A" stroke="#262626" stroke-width="6.46376"/>
<path d="M654.046 280.042V213C691.073 213 721.089 243.016 721.089 280.042C721.089 282.383 720.966 284.722 720.721 287.05L654.046 280.042Z" fill="#2BA2B2" fill-opacity="0.91"/>
<path d="M654.046 280.042L720.721 287.05C718.735 305.947 708.824 323.113 693.453 334.281L654.046 280.042Z" fill="#20B985"/>
<path d="M654.047 280.042L693.453 334.281C663.498 356.044 621.572 349.404 599.809 319.449C578.045 289.494 584.686 247.568 614.641 225.804C626.095 217.482 639.889 213 654.047 213V280.042Z" fill="#2BA2B2"/>
<path d="M737.959 132.087L737.96 132.088C744.973 136.209 752.872 138.265 761.646 138.265C769.995 138.265 777.678 136.3 784.685 132.366L784.688 132.365C791.687 128.374 797.31 123.029 801.548 116.333L801.549 116.331C805.796 109.561 807.917 101.992 807.917 93.6358C807.917 85.2952 806.107 77.8552 802.475 71.3294C798.907 64.8084 793.92 59.6676 787.522 55.9142C781.174 52.1547 773.819 50.2826 765.476 50.2826C760.12 50.2826 754.919 51.3293 749.876 53.4204C746.958 54.6094 744.24 56.1149 741.722 57.9362V47.6826C741.722 43.7533 742.644 40.0661 744.489 36.6138C746.393 33.1036 749.038 30.2801 752.431 28.1376L752.433 28.1364C755.867 25.9452 759.905 24.8413 764.564 24.8413C767.534 24.8413 770.416 25.435 773.212 26.6249C776.01 27.8156 778.479 29.4815 780.622 31.6243L780.976 31.9779L781.329 31.6243L799.018 13.936L799.383 13.5707L799.006 13.2175C794.155 8.67365 788.804 5.44238 782.954 3.53351C777.127 1.63203 770.996 0.682352 764.564 0.682352C754.648 0.682352 745.991 2.73321 738.61 6.85347C731.229 10.9132 725.508 16.7591 721.452 24.3793C717.394 31.9425 715.375 40.932 715.375 51.3297V89.4417C715.375 99.0567 717.397 107.56 721.455 114.939L721.456 114.94C725.509 122.248 731.011 127.967 737.959 132.087ZM771.699 110.891L771.696 110.893C768.676 112.669 765.33 113.559 761.646 113.559C757.965 113.559 754.621 112.641 751.603 110.806C748.573 108.964 746.17 106.531 744.389 103.503C742.611 100.481 741.722 97.1951 741.722 93.6358C741.722 89.9524 742.612 86.6067 744.388 83.5876C746.23 80.4978 748.662 78.067 751.688 76.2873L751.69 76.2858C754.772 74.4488 758.148 73.5298 761.828 73.5298C765.509 73.5298 768.853 74.4487 771.872 76.2836L771.878 76.2873C774.902 78.0663 777.303 80.4956 779.084 83.5827L779.086 83.5863C780.862 86.6058 781.752 89.9519 781.752 93.6358C781.752 97.3166 780.833 100.66 778.998 103.679L778.995 103.685C777.216 106.71 774.786 109.11 771.699 110.891ZM615.915 132.093C623.295 136.214 631.892 138.265 641.689 138.265C651.485 138.265 660.082 136.214 667.462 132.093C674.837 127.975 680.587 122.225 684.705 114.85C688.825 107.47 690.877 98.8737 690.877 89.077V49.6885C690.877 39.8917 688.825 31.2953 684.705 23.9152C680.587 16.5401 674.837 10.79 667.462 6.67229C660.082 2.55174 651.485 0.5 641.689 0.5C631.892 0.5 623.295 2.55174 615.915 6.67229C608.54 10.79 602.79 16.5401 598.672 23.9152C594.552 31.2953 592.5 39.8917 592.5 49.6885V89.077C592.5 98.8737 594.552 107.47 598.672 114.85C602.79 122.225 608.54 127.975 615.915 132.093ZM653.289 110.71C649.845 112.729 645.983 113.742 641.689 113.742C637.394 113.742 633.532 112.729 630.088 110.71C626.637 108.687 623.902 105.952 621.879 102.501C619.86 99.0573 618.847 95.1946 618.847 90.9005V47.6826C618.847 43.3885 619.86 39.5258 621.879 36.0825C623.902 32.6307 626.637 29.8961 630.088 27.8727C633.532 25.8541 637.394 24.8413 641.689 24.8413C645.983 24.8413 649.845 25.8541 653.289 27.8727C656.74 29.8961 659.475 32.6307 661.498 36.0825C663.517 39.5258 664.53 43.3885 664.53 47.6826V90.9005C664.53 95.1946 663.517 99.0573 661.498 102.501C659.475 105.952 656.74 108.687 653.289 110.71Z" stroke="white"/>
<path d="M85.7317 159.297L36.7534 146.184L36.1984 186.072L510.162 192.694L511.901 67.7138C492.767 71.2882 453.815 78.2502 451.077 77.5027C449.15 76.9766 429.796 70.9089 412.008 65.3122C399.221 61.2891 385.302 63.2564 374.138 70.6757L343.122 91.2891C335.677 96.2372 326.909 98.8182 317.97 98.6933L271.016 98.0372L214.919 97.2533C177.382 96.7288 172.611 122.197 162.85 142.822C158.017 153.035 147.11 157.937 135.831 158.602L99.8059 160.728C95.0682 161.008 90.3163 160.525 85.7317 159.297Z" fill="#21936C" fill-opacity="0.66" stroke="url(#paint0_linear_627_9)" stroke-opacity="0.44"/>
<path d="M80.3104 156.718L36.8704 142.001L36.2537 186.32L510.218 192.943L511.18 123.805L470.448 128.771C462.932 129.687 455.307 128.663 448.299 125.795L412.915 111.318C407.78 109.217 402.296 108.099 396.749 108.021L356.304 107.456C353.459 107.416 350.618 107.65 347.818 108.155L309.942 114.986C304.586 115.952 299.098 115.923 293.752 114.901L253.303 107.166C249.001 106.344 244.602 106.164 240.248 106.631L208.908 109.995C200.264 110.922 192.084 114.372 185.386 119.913L152.884 146.801C145.747 152.706 136.94 156.225 127.7 156.867L97.6006 158.955C91.746 159.361 85.8689 158.601 80.3104 156.718Z" fill="#2D96D7" fill-opacity="0.64" stroke="url(#paint1_linear_627_9)" stroke-opacity="0.44"/>
<path d="M464.656 170.867L510.489 160.605L510.034 193.32L36.0004 186.697L36.7106 135.661L66.7119 139.099C80.5426 140.684 94.2908 135.518 103.655 125.217C114.881 112.867 132.209 108.075 148.186 112.903L196.23 127.419L240.186 134.367C244.17 134.996 248.22 135.08 252.226 134.614L296.613 129.452C299.833 129.078 303.084 129.058 306.307 129.392L341.886 133.084C348.846 133.807 355.536 136.166 361.41 139.971L395.648 162.15C401.873 166.182 409.01 168.588 416.405 169.147L451.63 171.811C455.995 172.141 460.385 171.823 464.656 170.867Z" fill="#2BA2B2" fill-opacity="0.36" stroke="url(#paint2_linear_627_9)" stroke-opacity="0.44"/>
<path d="M333.744 215V317.027" stroke="white" stroke-linecap="round"/>
<path d="M272.744 215V317.027" stroke="white" stroke-linecap="round"/>
<path d="M212.744 215V317.027" stroke="white" stroke-linecap="round"/>
<path d="M353.744 215V317.027" stroke="white" stroke-linecap="round"/>
<path d="M292.744 215V317.027" stroke="white" stroke-linecap="round"/>
<path d="M232.744 215V317.027" stroke="white" stroke-linecap="round"/>
<path d="M373.744 215V317.027" stroke="white" stroke-linecap="round"/>
<path d="M312.744 215V317.027" stroke="white" stroke-linecap="round"/>
<path d="M252.744 215V317.027" stroke="white" stroke-linecap="round"/>
<path d="M393.744 215V317.027" stroke="white" stroke-linecap="round"/>
<path d="M413.744 215V317.027" stroke="white" stroke-linecap="round"/>
<path d="M433.744 215V317.027" stroke="white" stroke-linecap="round"/>
<path d="M453.744 215V317.027" stroke="white" stroke-linecap="round"/>
<path d="M473.744 215V317.027" stroke="white" stroke-linecap="round"/>
<path d="M493.744 215V317.027" stroke="white" stroke-linecap="round"/>
<path d="M334 263L334 317" stroke="#21936C" stroke-width="4" stroke-linecap="round"/>
<path d="M273 263L273 317" stroke="#21936C" stroke-width="4" stroke-linecap="round"/>
<path d="M213 263L213 317" stroke="#21936C" stroke-width="4" stroke-linecap="round"/>
<path d="M354 270V317" stroke="#21936C" stroke-width="4" stroke-linecap="round"/>
<path d="M293 270V317" stroke="#21936C" stroke-width="4" stroke-linecap="round"/>
<path d="M233 270V317" stroke="#21936C" stroke-width="4" stroke-linecap="round"/>
<path d="M374 275V317" stroke="#21936C" stroke-width="4" stroke-linecap="round"/>
<path d="M313 275V317" stroke="#21936C" stroke-width="4" stroke-linecap="round"/>
<path d="M253 275V317" stroke="#21936C" stroke-width="4" stroke-linecap="round"/>
<path d="M394 255V317" stroke="#21936C" stroke-width="4" stroke-linecap="round"/>
<path d="M414 262L414 317" stroke="#21936C" stroke-width="4" stroke-linecap="round"/>
<path d="M434 259V317" stroke="#21936C" stroke-width="4" stroke-linecap="round"/>
<path d="M454 270V317" stroke="#21936C" stroke-width="4" stroke-linecap="round"/>
<path d="M474 263V317" stroke="#21936C" stroke-width="4" stroke-linecap="round"/>
<path d="M494 272V317" stroke="#21936C" stroke-width="4" stroke-linecap="round"/>
<defs>
<linearGradient id="paint0_linear_627_9" x1="275.018" y1="57.3114" x2="273.173" y2="189.383" gradientUnits="userSpaceOnUse">
<stop stop-color="white"/>
<stop offset="1" stop-color="white" stop-opacity="0"/>
</linearGradient>
<linearGradient id="paint1_linear_627_9" x1="274.395" y1="106.311" x2="273.231" y2="189.632" gradientUnits="userSpaceOnUse">
<stop stop-color="white"/>
<stop offset="1" stop-color="white" stop-opacity="0"/>
</linearGradient>
<linearGradient id="paint2_linear_627_9" x1="274.171" y1="107.126" x2="273.012" y2="190.009" gradientUnits="userSpaceOnUse">
<stop stop-color="white"/>
<stop offset="1" stop-color="white" stop-opacity="0"/>
</linearGradient>
</defs>
</svg>
