<svg width="157" height="431" viewBox="0 0 157 431" fill="none" xmlns="http://www.w3.org/2000/svg">
<g filter="url(#filter0_d_171_1732)">
<circle cx="102" cy="102" r="101.5" transform="matrix(0.92213 0.386879 0.126018 0.992028 -114.388 74.4638)" stroke="white"/>
<circle cx="156" cy="156" r="155.5" transform="matrix(0.92213 0.386879 0.126018 0.992028 -170.988 0.00292969)" stroke="white"/>
<circle cx="138" cy="138" r="137.5" transform="matrix(0.92213 0.386879 0.126018 0.992028 -152.121 24.8232)" stroke="white"/>
<circle cx="5" cy="5" r="5" transform="matrix(0.92213 0.386879 0.126018 0.992028 78.0122 170.003)" fill="white"/>
<circle cx="3" cy="3" r="3" transform="matrix(0.92213 0.386879 0.126018 0.992028 98.144 242.521)" fill="white"/>
<circle cx="5" cy="5" r="5" transform="matrix(0.92213 0.386879 0.126018 0.992028 97.584 334.323)" fill="white"/>
<circle cx="4" cy="4" r="4" transform="matrix(0.92213 0.386879 0.126018 0.992028 77.9146 289.444)" fill="white"/>
<circle cx="121" cy="121" r="120.5" transform="matrix(0.92213 0.386879 0.126018 0.992028 -134.303 48.2649)" stroke="white"/>
</g>
<defs>
<filter id="filter0_d_171_1732" x="-156.684" y="48.9594" width="298.414" height="340.306" filterUnits="userSpaceOnUse" color-interpolation-filters="sRGB">
<feFlood flood-opacity="0" result="BackgroundImageFix"/>
<feColorMatrix in="SourceAlpha" type="matrix" values="0 0 0 0 0 0 0 0 0 0 0 0 0 0 0 0 0 0 127 0" result="hardAlpha"/>
<feOffset dy="4"/>
<feGaussianBlur stdDeviation="2"/>
<feComposite in2="hardAlpha" operator="out"/>
<feColorMatrix type="matrix" values="0 0 0 0 0 0 0 0 0 0 0 0 0 0 0 0 0 0 0.25 0"/>
<feBlend mode="normal" in2="BackgroundImageFix" result="effect1_dropShadow_171_1732"/>
<feBlend mode="normal" in="SourceGraphic" in2="effect1_dropShadow_171_1732" result="shape"/>
</filter>
</defs>
</svg>
