<svg width="77" height="59" viewBox="0 0 77 59" fill="none" xmlns="http://www.w3.org/2000/svg">
<path d="M68.1123 1.81038C67.2957 1.28209 66.3618 0.962488 65.3928 0.879664C64.4238 0.796839 63.4492 0.953329 62.5548 1.33538L33.2473 12.8779C32.5534 13.1603 31.8114 13.3054 31.0623 13.3054H12.2998C10.7251 13.3054 9.21486 13.9309 8.10136 15.0444C6.98786 16.1579 6.3623 17.6682 6.3623 19.2429V19.7179H0.424805V33.9679H6.3623V34.5854C6.39951 36.1353 7.04146 37.6091 8.15095 38.692C9.26044 39.7749 10.7495 40.3808 12.2998 40.3804L19.4248 55.4854C19.9073 56.5026 20.6668 57.363 21.6163 57.968C22.5657 58.5729 23.6665 58.8978 24.7923 58.9054H27.7848C29.3513 58.8928 30.8493 58.2618 31.9526 57.1496C33.0558 56.0375 33.6749 54.5344 33.6748 52.9679V40.9504L62.5548 52.4929C63.2652 52.7756 64.0228 52.9206 64.7873 52.9204C65.9734 52.9012 67.1285 52.5382 68.1123 51.8754C68.8936 51.3479 69.538 50.6419 69.9923 49.8159C70.4466 48.9899 70.6977 48.0677 70.7248 47.1254V6.70288C70.7205 5.73633 70.4802 4.78545 70.0249 3.93284C69.5696 3.08022 68.9131 2.35164 68.1123 1.81038ZM27.7373 19.2429V34.5854H12.2998V19.2429H27.7373ZM27.7373 52.9679H24.7448L18.9023 40.3804H27.7373V52.9679ZM35.4323 35.2979C34.8683 35.0097 34.2803 34.7713 33.6748 34.5854V18.9104C34.2745 18.7866 34.8624 18.6118 35.4323 18.3879L64.7873 6.70288V46.9829L35.4323 35.2979ZM70.8673 20.9054V32.7804C72.442 32.7804 73.9523 32.1548 75.0658 31.0413C76.1792 29.9278 76.8048 28.4176 76.8048 26.8429C76.8048 25.2682 76.1792 23.7579 75.0658 22.6444C73.9523 21.5309 72.442 20.9054 70.8673 20.9054Z" fill="white"/>
</svg>
