<svg width="77" height="76" viewBox="0 0 77 76" fill="none" xmlns="http://www.w3.org/2000/svg">
<path d="M38.9049 22.1184C40.65 22.1184 42.0646 20.7038 42.0646 18.9587C42.0646 17.2136 40.65 15.7989 38.9049 15.7989C37.1598 15.7989 35.7451 17.2136 35.7451 18.9587C35.7451 20.7038 37.1598 22.1184 38.9049 22.1184Z" fill="white"/>
<path d="M19.9463 53.7161H57.8634V60.0356H19.9463V53.7161ZM32.5853 37.3801L41.4074 46.2085L53.8316 33.7748L57.8634 37.9172V25.2782H45.2244L49.3637 29.3069L41.4042 37.2663L32.5853 28.438L19.9463 41.077L24.4142 45.5449L32.5853 37.3801Z" fill="white"/>
<path d="M61.0231 9.47939H50.6022C50.2919 9.01219 49.9543 8.56378 49.5911 8.13649L49.5595 8.09857C47.2379 5.39461 43.9716 3.67896 40.4278 3.30205C39.4215 3.11046 38.388 3.11046 37.3817 3.30205C33.8379 3.67896 30.5716 5.39461 28.25 8.09857L28.2184 8.13649C27.8553 8.56276 27.5177 9.01012 27.2073 9.47623L16.7864 9.47939C14.2731 9.4819 11.8635 10.4814 10.0863 12.2586C8.30915 14.0357 7.30964 16.4454 7.30713 18.9587V63.1953C7.30964 65.7086 8.30915 68.1183 10.0863 69.8954C11.8635 71.6726 14.2731 72.6721 16.7864 72.6746H61.0231C63.5364 72.6721 65.946 71.6726 67.7232 69.8954C69.5003 68.1183 70.4999 65.7086 70.5024 63.1953V18.9587C70.4999 16.4454 69.5003 14.0357 67.7232 12.2586C65.946 10.4814 63.5364 9.4819 61.0231 9.47939ZM64.1828 63.1953C64.1828 64.0334 63.8499 64.8371 63.2574 65.4296C62.6648 66.0222 61.8611 66.3551 61.0231 66.3551H16.7864C15.9486 66.3543 15.1454 66.0211 14.553 65.4287C13.9607 64.8363 13.6275 64.0331 13.6267 63.1953V18.9587C13.6275 18.1209 13.9607 17.3177 14.553 16.7253C15.1454 16.1329 15.9486 15.7997 16.7864 15.7989H31.1633C31.5259 14.0132 32.4947 12.4077 33.9056 11.2546C35.3164 10.1014 37.0826 9.47147 38.9047 9.47147C40.7269 9.47147 42.493 10.1014 43.9039 11.2546C45.3148 12.4077 46.2836 14.0132 46.6462 15.7989H61.0231C61.8608 15.7997 62.6641 16.1329 63.2564 16.7253C63.8488 17.3177 64.182 18.1209 64.1828 18.9587V63.1953Z" fill="white"/>
</svg>
