<svg width="67" height="67" viewBox="0 0 67 67" fill="none" xmlns="http://www.w3.org/2000/svg">
<path d="M28.8397 47.7753C27.1966 47.593 25.5805 47.2192 24.0242 46.6615C24.0716 45.5429 24.1001 44.377 24.1001 43.1636V41.5664C25.5694 42.2678 27.1666 42.756 28.8397 42.9977V31.3145C28.8397 29.429 29.5887 27.6207 30.922 26.2874C32.2553 24.9541 34.0636 24.2051 35.9492 24.2051H47.6324C47.2544 21.5788 46.252 19.0814 44.7092 16.9227C43.1664 14.764 41.1283 13.0068 38.7659 11.7987C36.4036 10.5906 33.7858 9.96678 31.1325 9.97962C28.4792 9.99246 25.8677 10.6416 23.5171 11.8725C23.1422 10.3223 22.5247 8.84111 21.6876 7.48361C24.7602 5.94998 28.1576 5.18094 31.5911 5.24186C35.0246 5.30278 38.3926 6.19187 41.4089 7.83353C44.4251 9.47519 47.0003 11.8209 48.9156 14.6712C50.8309 17.5215 52.0297 20.7921 52.4099 24.2051H59.6474C61.5329 24.2051 63.3412 24.9541 64.6745 26.2874C66.0078 27.6207 66.7568 29.429 66.7568 31.3145V55.0127C66.7568 56.8983 66.0078 58.7066 64.6745 60.0399C63.3412 61.3732 61.5329 62.1222 59.6474 62.1222H35.9492C34.0636 62.1222 32.2553 61.3732 30.922 60.0399C29.5887 58.7066 28.8397 56.8983 28.8397 55.0127V47.7753ZM52.4099 28.9447C51.8714 33.7535 49.7144 38.2365 46.2928 41.6581C42.8712 45.0798 38.3882 47.2368 33.5793 47.7753V55.0127C33.5793 55.6413 33.829 56.244 34.2735 56.6885C34.7179 57.1329 35.3207 57.3826 35.9492 57.3826H59.6474C60.2759 57.3826 60.8787 57.1329 61.3231 56.6885C61.7675 56.244 62.0172 55.6413 62.0172 55.0127V31.3145C62.0172 30.686 61.7675 30.0832 61.3231 29.6388C60.8787 29.1944 60.2759 28.9447 59.6474 28.9447H52.4099ZM47.6324 28.9447H35.9492C35.3207 28.9447 34.7179 29.1944 34.2735 29.6388C33.829 30.0832 33.5793 30.686 33.5793 31.3145V42.9977C37.1245 42.4853 40.4088 40.8398 42.9416 38.307C45.4744 35.7741 47.12 32.4899 47.6324 28.9447ZM18.3888 31.6036C17.8911 29.7741 17.0854 27.9399 15.7014 26.5322C17.9385 24.4136 19.3604 21.039 19.3604 17.0956C19.3604 13.7921 18.6921 11.5218 17.4835 9.7065C16.9472 8.92575 16.3274 8.20581 15.6351 7.55944C15.3697 7.30326 15.1011 7.05046 14.8293 6.8011C14.5402 6.53094 14.2748 6.28448 13.9288 5.93848C13.2178 5.22754 13.1373 4.65878 13.1373 4.36018C13.1381 4.19421 13.1653 4.02942 13.2178 3.872C13.4345 3.40337 13.4923 2.8768 13.3822 2.37235C13.2722 1.86791 13.0005 1.41319 12.6083 1.07736C12.2161 0.741533 11.725 0.542962 11.2097 0.511847C10.6943 0.480732 10.1829 0.618775 9.75317 0.904985L9.74369 0.909725L9.72947 0.919204L9.68682 0.947642L9.54462 1.04243C8.83368 1.54953 8.14872 2.09212 7.49236 2.66813C6.30745 3.71559 4.76233 5.26546 3.66747 7.11392C2.71172 8.64638 1.94466 10.2887 1.38296 12.0052C0.814204 13.7068 0.401855 15.5505 0.401855 17.0956C0.401855 21.039 1.82375 24.4089 4.06086 26.537C2.67688 27.9399 1.87114 29.7741 1.37348 31.6084C0.401856 35.1726 0.401855 39.5805 0.401855 42.9883V43.1636C0.401855 52.9178 2.22662 58.7097 4.2931 62.1554C5.33108 63.8806 6.41172 64.9944 7.31699 65.6959C7.79936 66.0721 8.32433 66.3903 8.88108 66.6438C9.20304 66.7614 9.53946 66.8347 9.88114 66.8618C10.2793 66.8618 10.8812 66.6438 10.8812 66.6438C11.4379 66.3903 11.9629 66.0721 12.4453 65.6959C13.3458 64.9944 14.4359 63.8806 15.4692 62.1554C17.5357 58.7144 19.3604 52.9178 19.3604 43.1636V42.993C19.3604 39.5805 19.3604 35.1773 18.3888 31.6036ZM7.4497 29.85C7.98528 29.3097 8.70097 28.9447 9.88114 28.9447C11.0661 28.9447 11.777 29.3144 12.3126 29.8452C12.9098 30.4472 13.4264 31.4235 13.815 32.8502C14.6018 35.7461 14.6208 39.5473 14.6208 43.1636C14.6208 52.368 12.8908 57.2404 11.4026 59.7192C10.8338 60.6671 10.2982 61.2785 9.88114 61.6625C9.2852 61.0894 8.77302 60.4352 8.35971 59.7192C6.87147 57.2356 5.1415 52.368 5.1415 43.1636C5.1415 39.5473 5.16046 35.7461 5.94724 32.8502C6.33589 31.4283 6.85251 30.4519 7.4497 29.85ZM9.88114 24.2051C8.05638 24.2051 5.1415 22.1765 5.1415 17.0956C5.1415 16.2756 5.38796 14.977 5.88088 13.5077C6.33007 12.1206 6.94936 10.7944 7.7246 9.55957C8.13695 8.86284 8.67253 8.18508 9.25077 7.56418C9.5778 8.14242 10.0091 8.72539 10.5779 9.29415C10.9239 9.64015 11.3741 10.0572 11.758 10.4174L12.3458 10.9672C12.8434 11.4507 13.2273 11.8725 13.5354 12.3417C14.1042 13.1901 14.6208 14.4746 14.6208 17.0956C14.6208 22.1765 11.7059 24.2051 9.88114 24.2051Z" fill="white"/>
</svg>
