<svg width="63" height="67" viewBox="0 0 63 67" fill="none" xmlns="http://www.w3.org/2000/svg">
<path d="M62.2998 9.76709V5.01709C62.2998 3.75731 61.7994 2.54913 60.9086 1.65833C60.0178 0.767535 58.8096 0.26709 57.5498 0.26709H5.2998C4.04003 0.26709 2.83185 0.767535 1.94105 1.65833C1.05025 2.54913 0.549805 3.75731 0.549805 5.01709V9.76709C0.549805 11.0269 1.05025 12.235 1.94105 13.1258C2.83185 14.0166 4.04003 14.5171 5.2998 14.5171V43.0171H2.9248C2.29492 43.0171 1.69082 43.2673 1.24543 43.7127C0.800027 44.1581 0.549805 44.7622 0.549805 45.3921C0.549805 46.022 0.800027 46.6261 1.24543 47.0715C1.69082 47.5169 2.29492 47.7671 2.9248 47.7671H29.0498V52.9268C27.4652 53.487 26.1296 54.5894 25.2792 56.0392C24.4287 57.4889 24.1182 59.1926 24.4024 60.8491C24.6866 62.5057 25.5473 64.0084 26.8324 65.0918C28.1174 66.1751 29.744 66.7693 31.4248 66.7693C33.1056 66.7693 34.7322 66.1751 36.0173 65.0918C37.3023 64.0084 38.163 62.5057 38.4472 60.8491C38.7314 59.1926 38.4209 57.4889 37.5704 56.0392C36.72 54.5894 35.3844 53.487 33.7998 52.9268V47.7671H59.9248C60.5547 47.7671 61.1588 47.5169 61.6042 47.0715C62.0496 46.6261 62.2998 46.022 62.2998 45.3921C62.2998 44.7622 62.0496 44.1581 61.6042 43.7127C61.1588 43.2673 60.5547 43.0171 59.9248 43.0171H57.5498V14.5171C58.8096 14.5171 60.0178 14.0166 60.9086 13.1258C61.7994 12.235 62.2998 11.0269 62.2998 9.76709ZM31.4248 62.0171C30.9551 62.0171 30.4959 61.8778 30.1053 61.6168C29.7148 61.3559 29.4103 60.9849 29.2306 60.551C29.0508 60.117 29.0038 59.6394 29.0954 59.1787C29.1871 58.718 29.4133 58.2949 29.7454 57.9627C30.0776 57.6306 30.5008 57.4044 30.9615 57.3127C31.4222 57.2211 31.8997 57.2681 32.3337 57.4479C32.7677 57.6276 33.1386 57.932 33.3995 58.3226C33.6605 58.7132 33.7998 59.1724 33.7998 59.6421C33.7998 60.272 33.5496 60.8761 33.1042 61.3215C32.6588 61.7669 32.0547 62.0171 31.4248 62.0171ZM5.2998 5.01709H57.5498V9.76709H5.2998V5.01709ZM52.7998 43.0171H10.0498V14.5171H52.7998V43.0171Z" fill="white"/>
</svg>
