<svg width="94" height="100" viewBox="0 0 94 100" fill="none" xmlns="http://www.w3.org/2000/svg">
<g filter="url(#filter0_i_171_1333)">
<path d="M11.1879 77.4562L13.5894 86.0102L22.1435 88.4117L13.5894 90.8132L11.1879 99.3672L8.78646 90.8132L0.232422 88.4117L8.78646 86.0102L11.1879 77.4562Z" fill="white"/>
<path d="M11.1879 51.8934L13.5894 60.4475L22.1435 62.849L13.5894 65.2504L11.1879 73.8045L8.78646 65.2504L0.232422 62.849L8.78646 60.4475L11.1879 51.8934Z" fill="white"/>
<path d="M11.1879 26.3302L13.5894 34.8842L22.1435 37.2857L13.5894 39.6872L11.1879 48.2413L8.78646 39.6872L0.232422 37.2857L8.78646 34.8842L11.1879 26.3302Z" fill="white"/>
<path d="M34.9248 77.4562L37.3263 86.0102L45.8803 88.4117L37.3263 90.8132L34.9248 99.3672L32.5233 90.8132L23.9692 88.4117L32.5233 86.0102L34.9248 77.4562Z" fill="white"/>
<path d="M34.9248 51.8934L37.3263 60.4475L45.8803 62.849L37.3263 65.2504L34.9248 73.8045L32.5233 65.2504L23.9692 62.849L32.5233 60.4475L34.9248 51.8934Z" fill="white"/>
<path d="M34.9248 26.3302L37.3263 34.8842L45.8803 37.2857L37.3263 39.6872L34.9248 48.2413L32.5233 39.6872L23.9692 37.2857L32.5233 34.8842L34.9248 26.3302Z" fill="white"/>
<path d="M34.9248 0.767334L37.3263 9.32138L45.8803 11.7229L37.3263 14.1243L34.9248 22.6784L32.5233 14.1243L23.9692 11.7229L32.5233 9.32138L34.9248 0.767334Z" fill="white"/>
<path d="M58.6621 77.4562L61.0636 86.0102L69.6176 88.4117L61.0636 90.8132L58.6621 99.3672L56.2606 90.8132L47.7065 88.4117L56.2606 86.0102L58.6621 77.4562Z" fill="white"/>
<path d="M58.6621 51.8934L61.0636 60.4475L69.6176 62.849L61.0636 65.2504L58.6621 73.8045L56.2606 65.2504L47.7065 62.849L56.2606 60.4475L58.6621 51.8934Z" fill="white"/>
<path d="M82.3989 51.8934L84.8004 60.4475L93.3544 62.849L84.8004 65.2504L82.3989 73.8045L79.9974 65.2504L71.4434 62.849L79.9974 60.4475L82.3989 51.8934Z" fill="white"/>
</g>
<defs>
<filter id="filter0_i_171_1333" x="0.232422" y="0.767334" width="93.1221" height="98.5999" filterUnits="userSpaceOnUse" color-interpolation-filters="sRGB">
<feFlood flood-opacity="0" result="BackgroundImageFix"/>
<feBlend mode="normal" in="SourceGraphic" in2="BackgroundImageFix" result="shape"/>
<feColorMatrix in="SourceAlpha" type="matrix" values="0 0 0 0 0 0 0 0 0 0 0 0 0 0 0 0 0 0 127 0" result="hardAlpha"/>
<feOffset/>
<feGaussianBlur stdDeviation="2"/>
<feComposite in2="hardAlpha" operator="arithmetic" k2="-1" k3="1"/>
<feColorMatrix type="matrix" values="0 0 0 0 0.12549 0 0 0 0 0.72549 0 0 0 0 0.521569 0 0 0 1 0"/>
<feBlend mode="normal" in2="shape" result="effect1_innerShadow_171_1333"/>
</filter>
</defs>
</svg>
