<svg width="167" height="53" viewBox="0 0 167 53" fill="none" xmlns="http://www.w3.org/2000/svg">
<path fill-rule="evenodd" clip-rule="evenodd" d="M155.868 31.2466V44.6066H161.741C163.124 44.3592 165.888 43.0479 165.888 39.7821C165.83 38.3595 164.989 35.403 162.087 34.9577H157.941V31.2466H155.868ZM158.094 36.087V41.9928C158.094 42.2066 158.267 42.3799 158.481 42.3799H161.641C162.028 42.3799 162.407 42.2436 162.651 41.9447C163.116 41.3767 163.655 40.4506 163.655 39.3915C163.712 38.4058 163.384 36.3072 161.626 35.7182C161.589 35.7058 161.55 35.6999 161.511 35.6999H158.481C158.267 35.6999 158.094 35.8732 158.094 36.087Z" fill="#20B985"/>
<path fill-rule="evenodd" clip-rule="evenodd" d="M152.527 40.6165V36.3484C152.527 36.3174 152.524 36.2874 152.517 36.2571C152.211 34.8599 150.778 32.1949 147.388 32.3679C146.12 32.3679 143.379 32.3978 142.979 33.7436C142.969 33.7787 142.964 33.8157 142.967 33.8523C142.985 34.0603 143.107 34.3853 143.483 34.4438C143.563 34.4562 143.643 34.4304 143.716 34.3956C144.277 34.1278 145.464 33.8977 146.104 33.8977H148.194C148.228 33.8977 148.261 33.9013 148.294 33.9095C148.951 34.0738 150.172 34.6715 150.172 35.8646V36.9371C150.172 37.1897 149.967 37.3945 149.714 37.3945H145.929C145.05 37.3945 144.145 37.4403 143.362 37.8395C142.465 38.2968 141.593 39.146 141.394 40.8912C141.394 42.1297 142.079 44.6065 144.819 44.6065H148.537C150.741 44.6065 152.527 42.8201 152.527 40.6165ZM150.3 39.6423V42.8911C150.3 43.2238 150.03 43.4934 149.698 43.4934H145.119C145.077 43.4934 145.036 43.4823 145 43.4598C143.932 42.7794 142.523 41.0161 144.992 39.0883C145.031 39.0575 145.081 39.0401 145.131 39.0401H149.698C150.03 39.0401 150.3 39.3097 150.3 39.6423Z" fill="#20B985"/>
<path d="M13.36 50.1729V37.9263H0V44.0496V50.1729H13.36Z" fill="#2BA2B2"/>
<path d="M34.5123 13.4337V1.18701H21.1523V7.31035V13.4337H34.5123Z" fill="#20B985"/>
<path d="M1.11377 27.3495L13.3604 20.1128V34.5861L1.11377 27.3495Z" fill="#20B985"/>
<path d="M33.4004 27.3499L21.1537 20.1133V34.5866L33.4004 27.3499Z" fill="#2BA2B2"/>
<circle cx="7.79333" cy="7.86658" r="7.79333" fill="#2BA2B2"/>
<circle cx="27.8343" cy="44.6068" r="7.79333" fill="#20B985"/>
<path fill-rule="evenodd" clip-rule="evenodd" d="M55.6675 1.23015V51.287H72.6711C75.5051 51.287 79.0475 49.2013 79.0475 40.8585L78.339 8.18249C78.5752 5.6333 77.2054 0.673964 69.8372 1.23015H55.6675ZM64.5738 7.26727V44.4321C66.8005 44.8996 71.2538 44.7126 71.2538 40.2248V10.0722C71.0064 8.43598 69.324 5.58434 64.5738 7.26727Z" fill="#2BA2B2"/>
<path d="M89.6234 43.2802V37.6334C89.6234 35.3276 87.7542 33.4584 85.4484 33.4584C83.1426 33.4584 81.2734 35.3276 81.2734 37.6334V42.7208C81.2734 44.8897 82.0649 46.984 83.4992 48.6109L84.1806 49.3839C85.8714 51.3016 88.3048 52.4003 90.8615 52.4003H92.62C95.1421 52.4003 97.5459 51.3311 99.2348 49.4581L101.248 47.2251C102.724 45.5889 103.54 43.4639 103.54 41.2607V37.9659C103.54 35.9556 102.86 34.0045 101.611 32.4297L91.0886 19.1692C90.1398 17.9735 89.6234 16.492 89.6234 14.9655V9.5942C89.6234 8.82561 90.2465 8.20254 91.0151 8.20254C91.7837 8.20254 92.4068 8.82561 92.4068 9.5942V11.7103C92.4068 13.6476 93.9772 15.2181 95.9145 15.2181H96.5818C98.8876 15.2181 100.757 13.3489 100.757 11.0431V8.26126C100.757 6.42607 100.032 4.66521 98.7393 3.36224L98.6814 3.30385C97.3376 1.94906 95.5085 1.18701 93.6003 1.18701H89.6509C87.827 1.18701 86.0529 1.78225 84.5981 2.88233C82.5041 4.46575 81.2734 6.93921 81.2734 9.56449V14.313C81.2734 16.2652 81.9149 18.1634 83.0991 19.7155L93.3645 33.1703C94.5487 34.7224 95.1901 36.6206 95.1901 38.5728V40.1758C95.1901 42.1861 94.6601 44.6651 92.6738 44.9746C90.9431 45.2442 89.6234 43.7632 89.6234 43.2802Z" fill="#2BA2B2"/>
<path d="M103.542 8.14534V1.18701H124.695V8.14534H117.644V51.287H110.593V8.14534H103.542Z" fill="#2BA2B2"/>
<path d="M133.6 51.287V1.18701H140.463V46.1552H167V51.287H133.6Z" fill="#2BA2B2"/>
</svg>
