<svg width="104" height="111" viewBox="0 0 104 111" fill="none" xmlns="http://www.w3.org/2000/svg">
<path d="M12.7429 25.1218L15.4073 15.6312L24.8979 12.9668L15.4073 10.3024L12.7429 0.811813L10.0785 10.3024L0.587891 12.9668L10.0785 15.6312L12.7429 25.1218Z" fill="#D9D9D9"/>
<path d="M12.7429 53.4836L15.4073 43.9931L24.8979 41.3286L15.4073 38.6642L12.7429 29.1736L10.0785 38.6642L0.587891 41.3286L10.0785 43.9931L12.7429 53.4836Z" fill="#D9D9D9"/>
<path d="M12.7429 81.8452L15.4073 72.3546L24.8979 69.6902L15.4073 67.0258L12.7429 57.5352L10.0785 67.0258L0.587891 69.6902L10.0785 72.3546L12.7429 81.8452Z" fill="#D9D9D9"/>
<path d="M39.0788 25.1218L41.7432 15.6312L51.2338 12.9668L41.7432 10.3024L39.0788 0.811813L36.4144 10.3024L26.9238 12.9668L36.4144 15.6312L39.0788 25.1218Z" fill="#D9D9D9"/>
<path d="M39.0788 53.4836L41.7432 43.9931L51.2338 41.3286L41.7432 38.6642L39.0788 29.1736L36.4144 38.6642L26.9238 41.3286L36.4144 43.9931L39.0788 53.4836Z" fill="#D9D9D9"/>
<path d="M39.0788 81.8452L41.7432 72.3546L51.2338 69.6902L41.7432 67.0258L39.0788 57.5352L36.4144 67.0258L26.9238 69.6902L36.4144 72.3546L39.0788 81.8452Z" fill="#D9D9D9"/>
<path d="M39.0788 110.207L41.7432 100.716L51.2338 98.052L41.7432 95.3876L39.0788 85.897L36.4144 95.3876L26.9238 98.052L36.4144 100.716L39.0788 110.207Z" fill="#D9D9D9"/>
<path d="M65.4148 25.1218L68.0792 15.6312L77.5698 12.9668L68.0792 10.3024L65.4148 0.811813L62.7504 10.3024L53.2598 12.9668L62.7504 15.6312L65.4148 25.1218Z" fill="#D9D9D9"/>
<path d="M65.4148 53.4836L68.0792 43.9931L77.5698 41.3286L68.0792 38.6642L65.4148 29.1736L62.7504 38.6642L53.2598 41.3286L62.7504 43.9931L65.4148 53.4836Z" fill="#D9D9D9"/>
<path d="M91.7497 53.4836L94.4141 43.9931L103.905 41.3286L94.4141 38.6642L91.7497 29.1736L89.0853 38.6642L79.5947 41.3286L89.0853 43.9931L91.7497 53.4836Z" fill="#D9D9D9"/>
</svg>
