<svg width="30" height="31" viewBox="0 0 30 31" fill="none" xmlns="http://www.w3.org/2000/svg">
<g filter="url(#filter0_i_497_945)">
<path d="M7.05882 16.4702L8.60614 21.9817L14.1176 23.529L8.60614 25.0764L7.05882 30.5879L5.51151 25.0764L0 23.529L5.51151 21.9817L7.05882 16.4702Z" fill="white"/>
<path d="M7.05882 0L8.60614 5.51151L14.1176 7.05882L8.60614 8.60614L7.05882 14.1176L5.51151 8.60614L0 7.05882L5.51151 5.51151L7.05882 0Z" fill="white"/>
<path d="M22.3528 16.4702L23.9001 21.9817L29.4116 23.529L23.9001 25.0764L22.3528 30.5879L20.8055 25.0764L15.2939 23.529L20.8055 21.9817L22.3528 16.4702Z" fill="white"/>
</g>
<defs>
<filter id="filter0_i_497_945" x="0" y="0" width="29.4116" height="30.5879" filterUnits="userSpaceOnUse" color-interpolation-filters="sRGB">
<feFlood flood-opacity="0" result="BackgroundImageFix"/>
<feBlend mode="normal" in="SourceGraphic" in2="BackgroundImageFix" result="shape"/>
<feColorMatrix in="SourceAlpha" type="matrix" values="0 0 0 0 0 0 0 0 0 0 0 0 0 0 0 0 0 0 127 0" result="hardAlpha"/>
<feOffset/>
<feGaussianBlur stdDeviation="1.28863"/>
<feComposite in2="hardAlpha" operator="arithmetic" k2="-1" k3="1"/>
<feColorMatrix type="matrix" values="0 0 0 0 0.12549 0 0 0 0 0.72549 0 0 0 0 0.521569 0 0 0 1 0"/>
<feBlend mode="normal" in2="shape" result="effect1_innerShadow_497_945"/>
</filter>
</defs>
</svg>
